<svg width="367" height="338" viewBox="0 0 367 338" fill="none" xmlns="http://www.w3.org/2000/svg">
<path d="M110.978 164.898C110.914 171.916 110.152 178.869 108.754 185.757C108.563 186.602 109.008 187.512 109.834 187.772C110.597 187.967 111.613 187.512 111.804 186.667C113.265 179.519 114.028 172.241 114.091 164.963C114.155 162.819 110.978 162.819 110.978 164.898Z" fill="#1C2D5A"/>
<path d="M58.2365 226.435C51.9457 227.345 45.6548 227.8 39.3004 227.735C37.267 227.735 37.267 230.984 39.3004 230.984C45.909 231.049 52.5176 230.529 59.0626 229.554C59.8887 229.424 60.397 228.32 60.1428 227.54C59.9522 226.63 59.1261 226.305 58.2365 226.435Z" fill="#1C2D5A"/>
<path d="M339.799 110.965C333.381 110.575 326.9 110.185 320.482 109.925C314.255 109.6 307.964 109.665 301.927 111.29C299.957 111.81 300.784 114.994 302.753 114.409C308.663 112.784 314.763 112.849 320.8 113.174C327.154 113.499 333.509 113.889 339.863 114.214C341.833 114.279 341.833 111.03 339.799 110.965Z" fill="#1C2D5A"/>
<path d="M305.676 41.8253L341.641 41.6953" stroke="#1C2D5A" stroke-width="2.82222" stroke-miterlimit="10" stroke-linecap="round" stroke-linejoin="round"/>
<path d="M303.134 149.368V132.668" stroke="#1C2D5A" stroke-width="2.82222" stroke-miterlimit="10"/>
<path d="M341.007 102.777C345.582 102.777 349.267 106.546 349.267 111.224C349.267 115.903 345.582 119.672 341.007 119.672C336.432 119.672 332.746 115.903 332.746 111.224C332.746 106.546 336.432 102.777 341.007 102.777Z" fill="#5BBCB0"/>
<path d="M341.007 119.672C345.569 119.672 349.267 115.89 349.267 111.224C349.267 106.559 345.569 102.777 341.007 102.777C336.445 102.777 332.746 106.559 332.746 111.224C332.746 115.89 336.445 119.672 341.007 119.672Z" stroke="#1C2D5A" stroke-width="2.25778" stroke-miterlimit="10"/>
<path d="M326.836 63.3989C330.458 62.2942 334.207 64.4386 335.287 68.1424C336.368 71.8463 334.271 75.6802 330.649 76.7848C327.027 77.8895 323.278 75.7452 322.197 72.0413C321.117 68.3374 323.214 64.4386 326.836 63.3989Z" fill="#B1DBD5"/>
<path d="M326.836 63.3989C330.458 62.2942 334.207 64.4386 335.287 68.1424C336.368 71.8463 334.271 75.6802 330.649 76.7848C327.027 77.8895 323.278 75.7452 322.197 72.0413C321.117 68.3374 323.214 64.4386 326.836 63.3989Z" stroke="#1C2D5A" stroke-width="2.25778" stroke-miterlimit="10"/>
<path d="M314.764 6.79993C318.64 5.63027 322.643 7.90461 323.787 11.8685C324.931 15.8323 322.707 19.9262 318.831 21.0958C314.954 22.2655 310.951 19.9262 309.807 16.0273C308.664 12.0634 310.888 7.9696 314.764 6.79993Z" fill="#B1DBD5"/>
<path d="M314.764 6.79993C318.64 5.63027 322.643 7.90461 323.787 11.8685C324.931 15.8323 322.707 19.9262 318.831 21.0958C314.954 22.2655 310.951 19.9262 309.807 16.0273C308.664 12.0634 310.888 7.9696 314.764 6.79993Z" stroke="#1C2D5A" stroke-width="2.25778" stroke-miterlimit="10"/>
<path d="M295.509 35.0023C299.386 33.8327 303.389 36.107 304.533 40.0708C305.676 44.0347 303.452 48.1284 299.576 49.2981C295.7 50.4677 291.697 48.1934 290.553 44.2296C289.473 40.2658 291.697 36.172 295.509 35.0023Z" fill="#8FCCE1"/>
<path d="M295.509 35.0023C299.386 33.8327 303.389 36.107 304.533 40.0708C305.676 44.0347 303.452 48.1284 299.576 49.2981C295.7 50.4677 291.697 48.1934 290.553 44.2296C289.473 40.2658 291.697 36.172 295.509 35.0023Z" stroke="#1C2D5A" stroke-width="2.25778" stroke-miterlimit="10"/>
<path d="M302.308 66.3877V77.4346" stroke="#1C2D5A" stroke-width="2.82222" stroke-miterlimit="10" stroke-linecap="round" stroke-linejoin="round"/>
<path d="M302.181 91.2106L302.245 112.524" stroke="#1C2D5A" stroke-width="2.82222" stroke-miterlimit="10" stroke-linecap="round" stroke-linejoin="round"/>
<path d="M300.146 77.6303C304.022 76.4606 308.025 78.7349 309.169 82.6988C310.313 86.6626 308.089 90.7564 304.213 91.926C300.337 93.0957 296.333 90.8213 295.19 86.8575C294.109 82.8937 296.27 78.7349 300.146 77.6303Z" fill="#CBE5F1"/>
<path d="M300.146 77.6303C304.022 76.4606 308.025 78.7349 309.169 82.6988C310.313 86.6626 308.089 90.7564 304.213 91.926C300.337 93.0957 296.333 90.8213 295.19 86.8575C294.109 82.8937 296.27 78.7349 300.146 77.6303Z" stroke="#1C2D5A" stroke-width="2.25778" stroke-miterlimit="10"/>
<path d="M308.854 128.25H279.37" stroke="#1C2D5A" stroke-width="2.82222" stroke-miterlimit="10"/>
<path d="M301.546 121.167C305.423 119.998 309.426 122.272 310.57 126.236C311.713 130.2 309.489 134.293 305.613 135.463C301.737 136.633 297.734 134.358 296.59 130.395C295.51 126.431 297.67 122.337 301.546 121.167Z" fill="#8FCCE1"/>
<path d="M301.546 121.167C305.423 119.998 309.426 122.272 310.57 126.236C311.713 130.2 309.489 134.293 305.613 135.463C301.737 136.633 297.734 134.358 296.59 130.395C295.51 126.431 297.67 122.337 301.546 121.167Z" stroke="#1C2D5A" stroke-width="2.25778" stroke-miterlimit="10"/>
<path d="M289.281 42.0199L279.622 41.825" stroke="#1C2D5A" stroke-width="2.82222" stroke-miterlimit="10"/>
<path d="M347.234 34.0276C351.11 32.8579 355.113 35.1323 356.257 39.0961C357.401 43.0599 355.177 47.1537 351.301 48.3234C347.425 49.493 343.421 47.2187 342.278 43.2549C341.197 39.291 343.358 35.1972 347.234 34.0276Z" fill="#CBE5F1"/>
<path d="M347.234 34.0276C351.11 32.8579 355.113 35.1323 356.257 39.0961C357.401 43.0599 355.177 47.1537 351.301 48.3234C347.425 49.493 343.421 47.2187 342.278 43.2549C341.197 39.291 343.358 35.1972 347.234 34.0276Z" stroke="#1C2D5A" stroke-width="2.25778" stroke-miterlimit="10"/>
<path d="M311.84 129.354C318.322 128.834 324.867 128.444 331.412 128.834C334.589 129.029 337.766 129.614 340.943 129.874C344.248 130.133 347.552 130.004 350.793 129.484C351.619 129.354 352.127 128.249 351.873 127.469C351.619 126.56 350.793 126.17 349.903 126.365C346.853 126.82 343.676 126.885 340.626 126.625C337.449 126.3 334.271 125.78 331.094 125.585C324.676 125.195 318.258 125.585 311.84 126.105C311.014 126.17 310.252 126.82 310.252 127.729C310.252 128.509 310.951 129.419 311.84 129.354Z" fill="#1C2D5A"/>
<path d="M330.014 61.7099C329.125 55.2768 328.68 48.8437 328.743 42.3457C328.743 40.2663 325.566 40.2663 325.566 42.3457C325.503 49.1037 326.011 55.8616 326.964 62.5546C327.091 63.3994 328.171 63.9192 328.934 63.6593C329.824 63.4644 330.141 62.6196 330.014 61.7099Z" fill="#1C2D5A"/>
<path d="M318.067 40.0712C318.258 34.0929 318.448 28.1146 318.575 22.1363C318.639 20.0569 315.462 20.0569 315.398 22.1363C315.208 28.1146 315.017 34.0929 314.89 40.0712C314.826 42.1506 318.003 42.1506 318.067 40.0712Z" fill="#1C2D5A"/>
<path d="M304.024 71.9758C309.425 71.1961 315.271 69.7665 320.672 71.261C322.642 71.7809 323.468 68.6619 321.498 68.1421C315.525 66.4526 309.171 67.9471 303.134 68.8568C302.308 68.9868 301.8 70.0914 302.054 70.8712C302.308 71.7809 303.134 72.1058 304.024 71.9758Z" fill="#1C2D5A"/>
<path d="M302.561 64.504C299.384 63.3344 295.952 63.8542 292.648 64.1791C289.09 64.569 285.595 64.8939 282.036 65.2838C281.21 65.3488 280.448 65.9986 280.448 66.9083C280.448 67.6881 281.147 68.5978 282.036 68.5328C285.468 68.143 288.899 67.8181 292.33 67.4282C295.381 67.1033 298.685 66.4535 301.671 67.5581C302.497 67.883 303.387 67.2332 303.641 66.4535C303.959 65.6087 303.387 64.8289 302.561 64.504Z" fill="#1C2D5A"/>
<path d="M300.783 100.243C297.86 100.568 294.873 100.503 291.95 100.048C290.489 99.853 289.091 99.5281 287.629 99.1382C286.168 98.7483 284.706 98.3584 283.181 98.4884C281.148 98.6183 281.148 101.867 283.181 101.737C284.643 101.672 285.977 102.062 287.375 102.452C288.837 102.842 290.298 103.102 291.76 103.297C294.746 103.687 297.733 103.817 300.783 103.492C301.609 103.427 302.372 102.777 302.372 101.867C302.372 101.023 301.609 100.113 300.783 100.243Z" fill="#1C2D5A"/>
<path d="M328.298 127.145C328.806 134.163 331.157 141.311 329.886 148.394C329.696 149.239 330.14 150.148 330.966 150.408C331.729 150.603 332.746 150.148 332.936 149.304C334.334 141.831 332.047 134.553 331.475 127.145C331.411 126.3 330.776 125.521 329.886 125.521C329.06 125.521 328.234 126.235 328.298 127.145Z" fill="#1C2D5A"/>
<path d="M351.174 69.572C354.098 68.7273 357.148 70.4168 358.037 73.4059C358.863 76.3949 357.211 79.514 354.288 80.4237C351.365 81.2685 348.315 79.579 347.425 76.5899C346.599 73.5358 348.251 70.4168 351.174 69.572Z" fill="#8FCCE1"/>
<path d="M351.174 69.572C354.098 68.7273 357.148 70.4168 358.037 73.4059C358.863 76.3949 357.211 79.514 354.288 80.4237C351.365 81.2685 348.315 79.579 347.425 76.5899C346.599 73.5358 348.251 70.4168 351.174 69.572Z" stroke="#1C2D5A" stroke-width="2.25778" stroke-miterlimit="10"/>
<path d="M353.525 68.6625C353.843 65.3485 353.08 62.0345 352.318 58.7855C351.555 55.6664 350.729 52.4173 351.174 49.1683C351.237 48.4535 350.983 47.8037 350.284 47.5438C349.712 47.3488 348.823 47.7387 348.696 48.4535C348.251 51.8975 348.886 55.2765 349.649 58.5905C350.411 61.9045 351.301 65.1536 350.983 68.5975C350.92 69.3123 351.619 69.8972 352.254 69.8972C352.953 69.9621 353.461 69.3773 353.525 68.6625Z" fill="#1C2D5A"/>
<path d="M319.529 89.0012C322.452 88.1565 325.502 89.846 326.392 92.8351C327.218 95.8242 325.566 98.9433 322.643 99.853C319.72 100.698 316.669 99.0083 315.78 96.0192C314.954 93.03 316.606 89.911 319.529 89.0012Z" fill="#8FCCE1"/>
<path d="M319.529 89.0012C322.452 88.1565 325.502 89.846 326.392 92.8351C327.218 95.8242 325.566 98.9433 322.643 99.853C319.72 100.698 316.669 99.0083 315.78 96.0192C314.954 93.03 316.606 89.911 319.529 89.0012Z" stroke="#1C2D5A" stroke-width="2.25778" stroke-miterlimit="10"/>
<path d="M322.197 109.925L322.452 100.697C322.515 98.8128 319.656 98.8128 319.592 100.697L319.338 109.925C319.274 111.809 322.134 111.809 322.197 109.925Z" fill="#1C2D5A"/>
<path d="M349.711 134.487C352.697 133.577 355.747 135.332 356.637 138.321C357.463 141.31 355.747 144.494 352.824 145.339C349.838 146.249 346.788 144.494 345.898 141.505C345.008 138.516 346.724 135.332 349.711 134.487Z" fill="#B1DBD5"/>
<path d="M349.711 134.487C352.697 133.577 355.747 135.332 356.637 138.321C357.463 141.31 355.747 144.494 352.824 145.339C349.838 146.249 346.788 144.494 345.898 141.505C345.008 138.516 346.724 135.332 349.711 134.487Z" stroke="#1C2D5A" stroke-width="2.25778" stroke-miterlimit="10"/>
<path d="M349.138 128.055V133.318C349.138 134.163 349.837 135.008 350.727 134.943C351.617 134.878 352.316 134.228 352.316 133.318V128.055C352.316 127.21 351.553 126.365 350.727 126.43C349.837 126.495 349.138 127.145 349.138 128.055Z" fill="#1C2D5A"/>
<path d="M342.342 127.34C342.914 125.13 343.295 122.921 343.422 120.647C343.485 119.802 342.659 118.957 341.833 119.022C340.944 119.087 340.308 119.737 340.245 120.647C340.181 121.166 340.181 121.686 340.118 122.206C340.118 122.336 340.118 122.466 340.054 122.596C340.118 122.141 340.054 122.596 340.054 122.726C339.991 122.986 339.991 123.246 339.927 123.506C339.736 124.545 339.546 125.52 339.292 126.56C339.101 127.405 339.546 128.379 340.372 128.574C341.198 128.704 342.087 128.249 342.342 127.34Z" fill="#1C2D5A"/>
<path d="M106.339 216.494C105.958 222.732 105.576 228.905 105.322 235.143C105.005 241.121 105.068 247.229 106.657 253.013C107.229 255.027 110.279 254.182 109.707 252.168C108.118 246.514 108.182 240.666 108.499 234.883C108.817 228.775 109.198 222.667 109.516 216.559C109.643 214.414 106.466 214.414 106.339 216.494Z" fill="#1C2D5A"/>
<path d="M38.7915 251.322V216.493" stroke="#1C2D5A" stroke-width="2.82222" stroke-miterlimit="10" stroke-linecap="round" stroke-linejoin="round"/>
<path d="M122.415 215.194C120.509 214.609 118.602 214.219 116.632 214.089C115.806 214.024 114.98 214.869 115.044 215.714C115.107 216.624 115.743 217.273 116.632 217.338C117.077 217.403 117.522 217.403 117.967 217.468C117.84 217.468 117.713 217.403 117.522 217.403C118.92 217.598 120.254 217.923 121.589 218.313C122.351 218.573 123.368 217.988 123.559 217.209C123.686 216.299 123.241 215.454 122.415 215.194Z" fill="#1C2D5A"/>
<path d="M143.957 253.923H127.626" stroke="#1C2D5A" stroke-width="2.82222" stroke-miterlimit="10"/>
<path d="M99.603 214.869C99.603 209.995 103.479 206.096 108.181 206.096C112.947 206.096 116.76 210.06 116.76 214.869C116.76 219.742 112.884 223.641 108.181 223.641C103.479 223.641 99.603 219.742 99.603 214.869Z" fill="#5BBCB0"/>
<path d="M99.603 214.869C99.603 209.995 103.479 206.096 108.181 206.096C112.947 206.096 116.76 210.06 116.76 214.869C116.76 219.742 112.884 223.641 108.181 223.641C103.479 223.641 99.603 219.742 99.603 214.869Z" stroke="#1C2D5A" stroke-width="2.25778" stroke-miterlimit="10"/>
<path d="M4.54277 242.095C3.39898 238.132 5.62302 234.038 9.49919 232.868C13.3754 231.699 17.3786 233.973 18.5224 237.937C19.6662 241.9 17.4422 245.994 13.566 247.164C9.68982 248.268 5.62302 245.994 4.54277 242.095Z" fill="#B1DBD5"/>
<path d="M4.54277 242.095C3.39898 238.132 5.62302 234.038 9.49919 232.868C13.3754 231.699 17.3786 233.973 18.5224 237.937C19.6662 241.9 17.4422 245.994 13.566 247.164C9.68982 248.268 5.62302 245.994 4.54277 242.095Z" stroke="#1C2D5A" stroke-width="2.25778" stroke-miterlimit="10"/>
<path d="M32.1194 261.72C30.9756 257.756 33.1997 253.662 37.0759 252.492C40.9521 251.323 44.9553 253.597 46.0991 257.561C47.2429 261.525 45.0189 265.618 41.1427 266.788C37.2665 267.958 33.2632 265.683 32.1194 261.72Z" fill="#8FCCE1"/>
<path d="M32.1194 261.72C30.9756 257.756 33.1997 253.662 37.0759 252.492C40.9521 251.323 44.9553 253.597 46.0991 257.561C47.2429 261.525 45.0189 265.618 41.1427 266.788C37.2665 267.958 33.2632 265.683 32.1194 261.72Z" stroke="#1C2D5A" stroke-width="2.25778" stroke-miterlimit="10"/>
<path d="M87.0842 252.623L107.927 252.493" stroke="#1C2D5A" stroke-width="2.82222" stroke-miterlimit="10" stroke-linecap="round" stroke-linejoin="round"/>
<path d="M102.335 251.323V268.478" stroke="#1C2D5A" stroke-width="2.82222" stroke-miterlimit="10"/>
<path d="M116.379 255.612C115.236 251.648 117.46 247.554 121.336 246.385C125.212 245.215 129.215 247.489 130.359 251.453C131.503 255.417 129.279 259.511 125.403 260.68C121.526 261.785 117.523 259.511 116.379 255.612Z" fill="#8FCCE1"/>
<path d="M116.379 255.612C115.236 251.648 117.46 247.554 121.336 246.385C125.212 245.215 129.215 247.489 130.359 251.453C131.503 255.417 129.279 259.511 125.403 260.68C121.526 261.785 117.523 259.511 116.379 255.612Z" stroke="#1C2D5A" stroke-width="2.25778" stroke-miterlimit="10"/>
<path d="M59.1892 251.257H73.1689" stroke="#1C2D5A" stroke-width="2.82222" stroke-miterlimit="10" stroke-linecap="round" stroke-linejoin="round"/>
<path d="M31.167 212.074C30.0233 208.11 32.2473 204.016 36.1235 202.847C39.9996 201.677 44.0029 203.951 45.1467 207.915C46.2905 211.879 44.0664 215.973 40.1903 217.143C36.3141 218.312 32.3108 216.038 31.167 212.074Z" fill="#CBE5F1"/>
<path d="M31.167 212.074C30.0233 208.11 32.2473 204.016 36.1235 202.847C39.9996 201.677 44.0029 203.951 45.1467 207.915C46.2905 211.879 44.0664 215.973 40.1903 217.143C36.3141 218.312 32.3108 216.038 31.167 212.074Z" stroke="#1C2D5A" stroke-width="2.25778" stroke-miterlimit="10"/>
<path d="M124.322 245.084C123.814 238.456 123.433 231.763 123.814 225.07C124.004 221.821 124.576 218.572 124.83 215.323C125.085 211.944 124.958 208.565 124.449 205.251C124.322 204.406 123.242 203.887 122.479 204.146C121.59 204.406 121.208 205.251 121.399 206.161C121.844 209.28 121.907 212.529 121.653 215.648C121.336 218.897 120.827 222.146 120.637 225.395C120.255 231.958 120.637 238.521 121.145 245.084C121.208 245.929 121.844 246.709 122.734 246.709C123.56 246.709 124.386 245.929 124.322 245.084Z" fill="#1C2D5A"/>
<path d="M37.0751 238.651C31.2291 238.456 25.383 238.261 19.537 238.131C17.5036 238.066 17.5036 241.315 19.537 241.38C25.383 241.575 31.2291 241.77 37.0751 241.9C39.1085 241.965 39.1085 238.716 37.0751 238.651Z" fill="#1C2D5A"/>
<path d="M60.6503 250.803C59.8878 245.8 58.5534 240.341 59.9513 235.338C60.5232 233.323 57.4731 232.478 56.9012 234.493C55.2491 240.081 56.7106 246.059 57.6002 251.713C57.7273 252.558 58.8075 253.077 59.5701 252.818C60.3961 252.558 60.7774 251.713 60.6503 250.803Z" fill="#1C2D5A"/>
<path d="M122.225 228.19C129.088 227.67 136.078 225.266 143.004 226.565C143.83 226.76 144.72 226.305 144.974 225.461C145.164 224.681 144.72 223.641 143.893 223.446C136.586 222.017 129.469 224.356 122.225 224.941C121.399 225.006 120.636 225.656 120.636 226.565C120.636 227.41 121.335 228.255 122.225 228.19Z" fill="#1C2D5A"/>
<path d="M65.8614 208.046C65.0353 205.057 66.6875 201.938 69.6105 201.028C72.5335 200.183 75.5836 201.873 76.4732 204.862C77.2993 207.851 75.6471 210.97 72.7241 211.88C69.8011 212.725 66.751 211.035 65.8614 208.046Z" fill="#8FCCE1"/>
<path d="M65.8614 208.046C65.0353 205.057 66.6875 201.938 69.6105 201.028C72.5335 200.183 75.5836 201.873 76.4732 204.862C77.2993 207.851 75.6471 210.97 72.7241 211.88C69.8011 212.725 66.751 211.035 65.8614 208.046Z" stroke="#1C2D5A" stroke-width="2.25778" stroke-miterlimit="10"/>
<path d="M64.7814 205.706C61.6042 205.381 58.427 206.161 55.3769 206.941C52.3904 207.721 49.2767 208.565 46.2266 208.11C45.5276 208.045 44.8922 208.305 44.638 209.02C44.4474 209.605 44.8286 210.515 45.5276 210.645C48.8319 211.099 52.0727 210.515 55.2498 209.67C58.3635 208.89 61.5407 207.98 64.7814 208.305C65.4804 208.37 66.0523 207.656 66.0523 207.006C66.0523 206.226 65.4804 205.771 64.7814 205.706Z" fill="#1C2D5A"/>
<path d="M84.9251 233.908C84.0991 230.919 85.7512 227.8 88.6742 226.89C91.5972 226.046 94.6474 227.735 95.537 230.724C96.363 233.713 94.7109 236.832 91.7879 237.742C88.8648 238.652 85.8147 236.897 84.9251 233.908Z" fill="#8FCCE1"/>
<path d="M84.9251 233.908C84.0991 230.919 85.7512 227.8 88.6742 226.89C91.5972 226.046 94.6474 227.735 95.537 230.724C96.363 233.713 94.7109 236.832 91.7879 237.742C88.8648 238.652 85.8147 236.897 84.9251 233.908Z" stroke="#1C2D5A" stroke-width="2.25778" stroke-miterlimit="10"/>
<path d="M105.387 231.179C102.4 231.114 99.3498 230.984 96.3633 230.919C94.5205 230.854 94.5205 233.778 96.3633 233.843C99.3498 233.908 102.4 234.038 105.387 234.103C107.229 234.168 107.229 231.244 105.387 231.179Z" fill="#1C2D5A"/>
<path d="M129.405 206.356C128.516 203.302 130.231 200.183 133.154 199.273C136.077 198.429 139.191 200.118 140.017 203.172C140.907 206.226 139.191 209.345 136.268 210.255C133.345 211.1 130.231 209.345 129.405 206.356Z" fill="#B1DBD5"/>
<path d="M129.405 206.356C128.516 203.302 130.231 200.183 133.154 199.273C136.077 198.429 139.191 200.118 140.017 203.172C140.907 206.226 139.191 209.345 136.268 210.255C133.345 211.1 130.231 209.345 129.405 206.356Z" stroke="#1C2D5A" stroke-width="2.25778" stroke-miterlimit="10"/>
<path d="M123.114 206.94H128.261C129.087 206.94 129.913 206.226 129.849 205.316C129.786 204.406 129.15 203.691 128.261 203.691H123.114C122.288 203.691 121.462 204.471 121.525 205.316C121.525 206.161 122.224 206.94 123.114 206.94Z" fill="#1C2D5A"/>
<path d="M87.7197 179.649V206.096" stroke="#1C2D5A" stroke-width="2.82222" stroke-miterlimit="10" stroke-linecap="round" stroke-linejoin="round"/>
<path d="M76.9824 206.616C80.5408 206.292 83.9087 206.681 87.213 207.916C88.039 208.241 88.9286 207.591 89.1828 206.811C89.437 205.902 88.8651 205.122 88.1026 204.797C84.5441 203.498 80.7315 203.043 76.9824 203.368C76.1563 203.433 75.3938 204.082 75.3938 204.992C75.3938 205.837 76.0928 206.746 76.9824 206.616Z" fill="#1C2D5A"/>
<path d="M14.4541 179.65C14.3906 186.668 13.628 193.621 12.2301 200.509C12.0394 201.353 12.4842 202.263 13.3103 202.523C14.0729 202.718 15.0896 202.263 15.2802 201.418C16.7417 194.27 17.5042 186.993 17.5678 179.715C17.6313 177.57 14.4541 177.57 14.4541 179.65Z" fill="#1C2D5A"/>
<path d="M7.97346 207.591C7.1474 204.602 8.79954 201.483 11.7225 200.573C14.6455 199.729 17.6956 201.418 18.5853 204.407C19.4113 207.396 17.7592 210.515 14.8362 211.425C11.9132 212.27 8.86307 210.58 7.97346 207.591Z" fill="#8FCCE1"/>
<path d="M7.97346 207.591C7.1474 204.602 8.79954 201.483 11.7225 200.573C14.6455 199.729 17.6956 201.418 18.5853 204.407C19.4113 207.396 17.7592 210.515 14.8362 211.425C11.9132 212.27 8.86307 210.58 7.97346 207.591Z" stroke="#1C2D5A" stroke-width="2.25778" stroke-miterlimit="10"/>
<path d="M103.543 194.204C102.717 191.215 104.369 188.096 107.292 187.187C110.215 186.342 113.266 188.031 114.155 191.02C114.981 194.01 113.329 197.129 110.406 198.038C107.483 198.883 104.369 197.194 103.543 194.204Z" fill="#CBE5F1"/>
<path d="M103.543 194.204C102.717 191.215 104.369 188.096 107.292 187.187C110.215 186.342 113.266 188.031 114.155 191.02C114.981 194.01 113.329 197.129 110.406 198.038C107.483 198.883 104.369 197.194 103.543 194.204Z" stroke="#1C2D5A" stroke-width="2.25778" stroke-miterlimit="10"/>
<path d="M47.1157 180.818V185.172C47.1157 185.821 47.6876 186.471 48.3866 186.471C49.0856 186.471 49.6575 185.886 49.6575 185.172V180.818C49.6575 180.168 49.0856 179.518 48.3866 179.518C47.6876 179.583 47.1157 180.103 47.1157 180.818Z" fill="#1C2D5A"/>
<path d="M43.3671 191.67C42.6046 188.876 44.1296 185.952 46.862 185.172C49.5944 184.393 52.4539 185.952 53.2164 188.746C53.9789 191.54 52.4539 194.464 49.7215 195.244C46.9891 196.024 44.1296 194.399 43.3671 191.67Z" fill="#8FCCE1"/>
<path d="M43.3671 191.67C42.6046 188.876 44.1296 185.952 46.862 185.172C49.5944 184.393 52.4539 185.952 53.2164 188.746C53.9789 191.54 52.4539 194.464 49.7215 195.244C46.9891 196.024 44.1296 194.399 43.3671 191.67Z" stroke="#1C2D5A" stroke-width="2.25778" stroke-miterlimit="10"/>
<path d="M95.5364 278.29C94.3926 274.326 96.6167 270.232 100.493 269.063C104.369 267.893 108.372 270.167 109.516 274.131C110.66 278.095 108.436 282.189 104.56 283.358C100.683 284.463 96.6802 282.254 95.5364 278.29Z" fill="#B1DBD5"/>
<path d="M95.5364 278.29C94.3926 274.326 96.6167 270.232 100.493 269.063C104.369 267.893 108.372 270.167 109.516 274.131C110.66 278.095 108.436 282.189 104.56 283.358C100.683 284.463 96.6802 282.254 95.5364 278.29Z" stroke="#1C2D5A" stroke-width="2.25778" stroke-miterlimit="10"/>
<path d="M52.2007 229.684C51.1204 225.98 53.2174 222.146 56.8394 221.041C60.4614 219.937 64.2105 222.081 65.2907 225.785C66.371 229.489 64.274 233.323 60.652 234.427C57.0936 235.532 53.2809 233.388 52.2007 229.684Z" fill="#B1DBD5"/>
<path d="M52.2007 229.684C51.1204 225.98 53.2174 222.146 56.8394 221.041C60.4614 219.937 64.2105 222.081 65.2907 225.785C66.371 229.489 64.274 233.323 60.652 234.427C57.0936 235.532 53.2809 233.388 52.2007 229.684Z" stroke="#1C2D5A" stroke-width="2.25778" stroke-miterlimit="10"/>
<path d="M73.7408 253.141C72.597 249.178 74.821 245.084 78.6972 243.914C82.5734 242.745 86.5767 245.019 87.7205 248.983C88.8643 252.947 86.6402 257.04 82.764 258.21C78.8879 259.315 74.8846 257.04 73.7408 253.141Z" fill="#CBE5F1"/>
<path d="M73.7408 253.141C72.597 249.178 74.821 245.084 78.6972 243.914C82.5734 242.745 86.5767 245.019 87.7205 248.983C88.8643 252.947 86.6402 257.04 82.764 258.21C78.8879 259.315 74.8846 257.04 73.7408 253.141Z" stroke="#1C2D5A" stroke-width="2.25778" stroke-miterlimit="10"/>
<path d="M280.958 2.38196H2V178.48H280.958V2.38196Z" fill="#F7F3F5"/>
<path d="M280.958 2.38196H2V178.48H280.958V2.38196Z" stroke="#1C2D5A" stroke-width="4.00135" stroke-miterlimit="10" stroke-linecap="round" stroke-linejoin="round"/>
<path d="M261.895 22.8505H19.4756V157.36H261.895V22.8505Z" fill="#1C2D5A"/>
<path d="M261.895 22.8505H19.4756V157.36H261.895V22.8505Z" stroke="#1C2D5A" stroke-width="8.40627" stroke-miterlimit="10" stroke-linecap="round" stroke-linejoin="round"/>
<path d="M27.2279 151.122C54.1705 94.979 99.3501 54.951 162.068 30.5832C166.325 28.9587 165.118 22.5256 160.606 22.5256H23.9237C21.6996 22.5256 19.8569 24.4101 19.8569 26.6844L19.4756 149.238C19.4756 153.657 25.3216 155.086 27.2279 151.122Z" fill="#24406E"/>
<path d="M340.433 292.586L341.831 334.628C342.085 335.408 341.323 336.058 340.751 335.603L304.531 295.965L180.43 294.145C160.795 294.145 144.909 278.16 144.909 258.406V184.978C144.909 165.224 160.795 149.238 180.43 149.238H329.25C348.885 149.238 364.771 165.224 364.771 184.978V258.406C364.834 278.095 360.068 292.586 340.433 292.586Z" fill="#F7F3F5"/>
<path d="M340.433 292.586L341.831 334.628C342.085 335.408 341.323 336.058 340.751 335.603L304.531 295.965L180.43 294.145C160.795 294.145 144.909 278.16 144.909 258.406V184.978C144.909 165.224 160.795 149.238 180.43 149.238H329.25C348.885 149.238 364.771 165.224 364.771 184.978V258.406C364.834 278.095 360.068 292.586 340.433 292.586Z" stroke="#1C2D5A" stroke-width="3.95111" stroke-miterlimit="10" stroke-linecap="round" stroke-linejoin="round"/>
<path d="M263.166 177.18C263.166 195.829 238.129 210.97 207.247 210.97C176.365 210.97 151.328 195.829 151.328 177.18C151.328 158.53 176.365 143.39 207.247 143.39C238.129 143.39 263.166 158.53 263.166 177.18Z" fill="#F7F3F5"/>
<path d="M342.659 170.162C338.401 170.877 335.351 172.046 333.381 173.606C331.475 175.165 330.522 178.544 330.522 183.873V234.428C330.522 236.442 330.395 238.586 330.204 240.796C330.013 243.005 329.696 245.279 329.251 247.619C328.615 250.933 327.726 254.117 326.518 257.301C325.311 260.485 323.723 263.149 321.753 265.228C319.465 267.698 316.796 269.712 313.81 271.272C310.823 272.831 307.709 274.066 304.469 274.911C302.054 275.56 299.766 276.015 297.479 276.275C295.191 276.535 293.094 276.665 291.124 276.665C288.964 276.665 286.105 276.535 282.673 276.21C279.178 275.885 275.62 275.041 271.871 273.676C269.774 273.026 267.677 272.181 265.58 271.077C263.483 269.972 261.449 268.542 259.607 266.853C259.48 266.723 259.353 266.658 259.225 266.528C259.098 266.398 258.908 266.333 258.844 266.203C255.731 263.214 253.316 259.9 251.537 256.131C249.757 252.362 248.868 246.319 248.868 238.067V184.782C248.868 178.544 247.915 174.71 246.072 173.281C244.229 171.851 241.306 170.942 237.366 170.487C237.176 170.487 236.922 170.487 236.731 170.422C236.54 170.357 236.286 170.357 236.095 170.357V166.198H288.646V170.162C288.519 170.292 288.456 170.292 288.329 170.292H288.011C283.054 170.487 279.369 171.266 277.018 172.566C274.667 173.866 273.523 178.024 273.523 184.912V237.872C273.523 239.691 273.586 241.77 273.65 244.175C273.777 246.579 274.095 249.048 274.603 251.582C275.62 256.066 277.717 260.095 280.767 263.669C283.817 267.243 288.9 269.062 295.954 269.062C304.532 269.062 310.76 267.048 314.636 263.019C318.448 258.99 320.99 254.507 322.261 249.633C322.896 246.774 323.278 244.045 323.405 241.381C323.532 238.716 323.659 236.442 323.659 234.558V185.887C323.659 181.143 322.833 177.375 321.117 174.775C319.402 172.111 315.208 170.617 308.472 170.292V166.133H342.659V170.162Z" fill="#1C2D5A"/>
<path d="M49.7204 111.549V53.5859H29.45V41.7594H83.7164V53.5859H63.5094V111.549H49.7204Z" fill="#F7F3F5"/>
<path d="M49.7204 111.549V53.5859H29.45V41.7594H83.7164V53.5859H63.5094V111.549H49.7204Z" stroke="#F7F3F5" stroke-width="0.951653" stroke-miterlimit="10" stroke-linecap="round" stroke-linejoin="round"/>
<path d="M92.7412 111.55V57.4207H134.998V68.4674H106.149V77.6297H132.964V88.6764H106.149V100.438H136.015V111.55H92.7412Z" fill="#F7F3F5"/>
<path d="M92.7412 111.55V57.4207H134.998V68.4674H106.149V77.6296H132.964V88.6764H106.149V100.438H136.015V111.55H92.7412Z" stroke="#F7F3F5" stroke-width="0.951653" stroke-miterlimit="10" stroke-linecap="round" stroke-linejoin="round"/>
<path d="M193.204 93.8092C191.425 100.112 188.566 104.791 184.562 107.845C180.559 110.899 175.539 112.394 169.439 112.394C165.626 112.394 162.195 111.744 159.081 110.444C155.968 109.145 153.235 107.325 151.011 104.921C148.724 102.517 147.008 99.6575 145.737 96.2135C144.466 92.8345 143.831 89.0006 143.831 84.8419C143.831 80.4232 144.466 76.3944 145.737 72.8854C147.008 69.3765 148.787 66.3874 151.075 63.9181C153.362 61.4489 156.158 59.6294 159.399 58.3298C162.64 57.0302 166.198 56.3804 170.138 56.3804C175.92 56.3804 180.813 57.8099 184.817 60.6041C188.82 63.3983 191.552 67.687 193.077 73.5353L179.606 75.7446C178.78 72.8205 177.509 70.7411 175.793 69.5714C174.078 68.3368 171.981 67.752 169.503 67.752C167.787 67.752 166.135 68.0119 164.673 68.5967C163.212 69.1815 161.941 70.0913 160.861 71.3259C159.78 72.6255 158.954 74.25 158.382 76.3944C157.81 78.4738 157.493 81.073 157.493 84.1271C157.493 87.3112 157.81 90.0403 158.382 92.1847C158.954 94.3291 159.78 96.0835 160.861 97.4481C161.941 98.7477 163.148 99.7225 164.61 100.307C166.071 100.892 167.596 101.152 169.312 101.152C171.727 101.152 173.823 100.372 175.666 98.7477C177.509 97.1882 178.907 94.654 179.86 91.21L193.204 93.8092Z" fill="#F7F3F5"/>
<path d="M193.204 93.8092C191.425 100.112 188.566 104.791 184.562 107.845C180.559 110.899 175.539 112.394 169.439 112.394C165.626 112.394 162.195 111.744 159.081 110.444C155.968 109.145 153.235 107.325 151.011 104.921C148.724 102.517 147.008 99.6575 145.737 96.2135C144.466 92.8345 143.831 89.0006 143.831 84.8419C143.831 80.4232 144.466 76.3944 145.737 72.8854C147.008 69.3765 148.787 66.3874 151.075 63.9181C153.362 61.4489 156.158 59.6294 159.399 58.3298C162.64 57.0302 166.198 56.3804 170.138 56.3804C175.92 56.3804 180.813 57.8099 184.817 60.6041C188.82 63.3983 191.552 67.687 193.077 73.5353L179.606 75.7446C178.78 72.8205 177.509 70.7411 175.793 69.5714C174.078 68.3368 171.981 67.752 169.503 67.752C167.787 67.752 166.135 68.0119 164.673 68.5967C163.212 69.1815 161.941 70.0913 160.861 71.3259C159.78 72.6255 158.954 74.25 158.382 76.3944C157.81 78.4738 157.493 81.073 157.493 84.1271C157.493 87.3112 157.81 90.0403 158.382 92.1847C158.954 94.3291 159.78 96.0835 160.861 97.4481C161.941 98.7477 163.148 99.7225 164.61 100.307C166.071 100.892 167.596 101.152 169.312 101.152C171.727 101.152 173.823 100.372 175.666 98.7477C177.509 97.1882 178.907 94.654 179.86 91.21L193.204 93.8092Z" stroke="#F7F3F5" stroke-width="0.951653" stroke-miterlimit="10" stroke-linecap="round" stroke-linejoin="round"/>
<path d="M203.497 111.55V57.4207H216.905V77.7596H236.413V57.4207H249.821V111.55H236.413V88.8713H216.905V111.55H203.497Z" fill="#F7F3F5"/>
<path d="M203.497 111.55V57.4207H216.905V77.7596H236.413V57.4207H249.821V111.55H236.413V88.8713H216.905V111.55H203.497Z" stroke="#F7F3F5" stroke-width="0.951653" stroke-miterlimit="10" stroke-linecap="round" stroke-linejoin="round"/>
<path d="M199.304 253.597C200.321 251.778 201.719 249.893 203.371 247.944C205.023 245.994 209.026 242.095 215.317 236.182C221.608 230.269 225.929 225.785 228.344 222.601C231.966 217.858 234.635 213.309 236.35 209.02C238.002 204.666 238.892 200.118 238.892 195.374C238.892 186.927 235.969 179.909 230.123 174.256C224.277 168.602 216.207 165.743 205.913 165.743C196.572 165.743 188.756 168.212 182.529 173.086C176.301 177.959 172.552 186.017 171.409 197.259L191.298 199.273C191.679 193.295 193.077 189.071 195.555 186.537C198.033 184.003 201.338 182.703 205.468 182.703C209.662 182.703 212.966 183.938 215.381 186.342C217.795 188.811 218.939 192.255 218.939 196.804C218.939 200.898 217.541 205.056 214.809 209.28C212.776 212.334 207.247 218.118 198.288 226.695C187.104 237.287 179.669 245.799 175.857 252.167C172.044 258.6 169.82 265.358 169.057 272.506H238.956V253.597H199.304Z" fill="#0581C1" stroke="#1C2D5A" stroke-width="2.25778" stroke-miterlimit="10" stroke-linecap="round" stroke-linejoin="round"/>
<path d="M264.373 263.474L237.748 243.59V283.358L264.373 263.474Z" fill="#0581C1"/>
<path d="M264.373 263.474L237.748 243.59V283.358L264.373 263.474Z" stroke="#1C2D5A" stroke-width="2.25778" stroke-miterlimit="10" stroke-linecap="round" stroke-linejoin="round"/>
<path d="M153.999 170.162C152.473 168.992 150.758 168.862 148.915 168.537C147.072 168.212 145.357 167.368 143.641 166.718C141.862 166.068 139.828 167.498 139.32 169.187C138.812 171.201 140.019 172.891 141.735 173.606C143.323 174.19 144.912 174.97 146.627 175.36C147.898 175.62 149.296 175.555 150.44 176.335C151.965 177.504 154.316 176.595 155.206 175.035C156.286 173.216 155.524 171.266 153.999 170.162Z" fill="#F7F3F5"/>
<path d="M144.085 171.721C148.089 171.331 151.393 173.086 155.269 173.346C159.781 173.606 159.717 166.458 155.269 166.198C153.49 166.068 151.838 165.223 150.122 164.898C148.152 164.508 146.119 164.378 144.085 164.573C142.179 164.768 140.59 166.068 140.59 168.147C140.59 169.902 142.179 171.916 144.085 171.721Z" fill="#F7F3F5"/>
<path d="M147.961 166.848C151.392 167.043 154.823 167.108 158.255 167.043L147.961 166.848Z" fill="#F7F3F5"/>
<path d="M143.323 174.905H148.406C150.885 174.905 150.885 171.007 148.406 171.007H143.323C140.845 171.007 140.845 174.905 143.323 174.905Z" fill="#F7F3F5"/>
<path d="M151.203 182.638V175.815C151.203 173.281 147.39 173.281 147.39 175.815V182.638C147.39 185.172 151.203 185.172 151.203 182.638Z" fill="#F7F3F5"/>
<path d="M151.074 183.158V174.97C151.074 172.436 147.262 172.436 147.262 174.97V183.158C147.262 185.692 151.074 185.692 151.074 183.158Z" fill="#F7F3F5"/>
<path d="M149.106 183.352C149.614 173.345 140.21 174.255 140.21 174.255" stroke="#F7F3F5" stroke-width="3.27378" stroke-miterlimit="10"/>
<path d="M148.152 164.248H162.132" stroke="#F7F3F5" stroke-width="3.556" stroke-miterlimit="10"/>
<path d="M266.724 146.704V151.838C266.724 152.357 267.169 152.812 267.677 152.812C268.185 152.812 268.63 152.357 268.63 151.838V146.574C268.63 146.054 268.185 145.599 267.677 145.599C267.169 145.599 266.724 146.054 266.724 146.574V147.484C266.724 148.004 267.169 148.459 267.677 148.459C268.185 148.459 268.63 148.004 268.63 147.484V146.574C268.63 146.054 268.185 145.599 267.677 145.599C267.169 145.599 266.724 146.054 266.724 146.574V151.838C266.724 152.357 267.169 152.812 267.677 152.812C268.185 152.812 268.63 152.357 268.63 151.838V146.704C268.63 146.184 268.185 145.729 267.677 145.729C267.169 145.729 266.724 146.119 266.724 146.704Z" fill="#F7F3F5"/>
<path d="M266.662 146.899V152.747C266.662 153.267 267.106 153.722 267.615 153.722C268.123 153.722 268.568 153.267 268.568 152.747V146.899C268.568 146.379 268.123 145.924 267.615 145.924C267.043 145.924 266.662 146.314 266.662 146.899Z" fill="#F7F3F5"/>
<path d="M267.804 146.638C267.804 147.613 267.804 148.523 267.804 149.498C267.804 150.407 267.74 151.382 267.995 152.227C268.249 153.007 269.329 153.266 269.71 152.487C270.155 151.577 270.663 150.667 270.854 149.692C271.108 148.653 270.918 147.613 271.172 146.573C270.536 146.508 269.901 146.378 269.329 146.313C269.393 147.353 269.837 148.328 270.092 149.303C270.282 150.277 270.409 151.252 270.536 152.227C270.663 153.461 272.316 153.461 272.443 152.227C272.506 151.447 272.379 150.147 271.49 149.887C270.473 149.563 270.028 150.732 269.583 151.447L271.299 152.227C271.68 150.602 272.379 149.108 273.078 147.613C273.65 146.443 275.239 143.779 273.269 143.064C272.633 142.869 272.125 143.389 272.061 143.974C271.934 145.664 271.744 147.418 271.617 149.108C271.49 150.797 271.553 152.487 272.379 154.046C272.633 154.436 273.142 154.631 273.587 154.436C274.031 154.241 274.222 153.786 274.158 153.266C273.968 152.032 273.968 150.732 274.095 149.433C274.158 148.848 274.222 148.198 274.413 147.613C274.54 147.028 274.667 146.443 274.984 145.989C274.413 145.924 273.841 145.859 273.269 145.729C273.714 148.133 274.095 150.537 274.857 152.877C275.175 153.916 276.764 153.786 276.7 152.617C276.7 151.512 276.954 150.472 277.145 149.368C277.272 148.848 277.526 148.198 277.336 147.613C277.145 146.963 276.446 146.703 275.874 146.898C273.459 147.678 273.777 150.797 273.841 152.877C274.413 152.682 275.048 152.552 275.62 152.357C275.175 151.252 275.175 149.952 275.429 148.783C275.556 148.133 275.811 147.483 276.001 146.898C276.128 146.508 276.319 145.729 276.7 145.534C276.255 145.339 275.747 145.144 275.302 144.949C275.683 147.483 276.192 150.017 276.891 152.552C277.018 153.007 277.463 153.331 277.908 153.266C278.352 153.201 278.797 152.812 278.734 152.292C278.607 151.252 278.606 150.147 278.606 149.108C278.606 148.653 278.606 148.133 278.606 147.678C278.606 147.418 278.543 147.158 278.416 146.898C278.352 146.768 278.289 146.573 278.352 146.443C278.543 145.924 278.162 145.404 277.717 145.274C277.209 145.144 276.7 145.469 276.573 145.924C276.382 146.443 276.51 146.963 276.7 147.483C276.827 147.938 276.827 148.458 276.827 148.913C276.827 150.017 276.764 151.187 276.954 152.292C277.59 152.227 278.225 152.097 278.797 152.032C278.098 149.563 277.59 147.028 277.209 144.429C277.081 143.714 276.319 143.649 275.811 143.844C275.048 144.169 274.73 145.079 274.476 145.794C274.158 146.573 273.841 147.418 273.65 148.198C273.269 149.887 273.332 151.642 274.031 153.266C274.413 154.176 275.874 153.721 275.811 152.747C275.747 151.837 275.747 150.862 275.811 149.952C275.811 149.692 275.874 149.368 276.001 149.108C276.065 148.978 276.192 148.848 276.319 148.718C276.446 148.653 276.573 148.653 276.446 148.653C276.255 148.588 276.128 148.588 275.938 148.523C275.938 148.523 276.001 148.523 276.001 148.588C275.874 148.393 275.683 148.198 275.556 148.003C275.556 147.808 275.556 147.808 275.493 148.003C275.493 148.133 275.429 148.263 275.429 148.328C275.366 148.523 275.366 148.653 275.302 148.848C275.239 149.238 275.112 149.627 275.048 149.952C274.921 150.732 274.794 151.577 274.794 152.422C275.429 152.357 276.065 152.227 276.637 152.162C275.874 149.822 275.493 147.418 275.048 145.014C274.857 144.104 273.714 144.104 273.332 144.754C272.57 145.989 272.379 147.613 272.252 149.043C272.125 150.537 272.189 152.097 272.379 153.591C272.951 153.331 273.523 153.071 274.095 152.812C273.396 151.512 273.523 149.952 273.65 148.523C273.777 146.898 273.904 145.339 274.031 143.714L272.824 144.624H272.887C272.76 144.559 272.633 144.429 272.443 144.364C272.188 144.169 272.443 144.169 272.316 144.169C272.252 144.169 272.252 144.494 272.189 144.559C272.061 144.884 271.934 145.209 271.807 145.469C271.49 146.119 271.172 146.768 270.918 147.418C270.346 148.718 269.774 150.017 269.456 151.382C269.202 152.422 270.6 153.136 271.172 152.162C271.362 151.837 271.553 151.447 271.807 151.122C271.68 151.252 271.553 151.382 271.49 151.447L271.553 151.382C271.299 151.447 271.045 151.447 270.791 151.512C270.854 151.512 270.854 151.512 270.918 151.512C270.791 151.447 270.663 151.317 270.473 151.252C270.346 151.122 270.473 151.317 270.473 151.447C270.473 151.642 270.473 151.772 270.473 151.967H272.379C272.252 150.927 272.125 149.887 271.934 148.913C271.871 148.458 271.744 148.003 271.617 147.548C271.49 147.093 271.235 146.573 271.235 146.119C271.172 145.079 269.583 144.754 269.393 145.859C269.202 146.833 269.329 147.808 269.138 148.783C268.948 149.692 268.566 150.472 268.122 151.252L269.837 151.512C269.583 150.732 269.71 149.887 269.71 149.108C269.71 148.198 269.71 147.353 269.71 146.443C269.71 145.404 267.804 145.404 267.804 146.638Z" fill="#F7F3F5"/>
<path d="M276.829 146.574V152.552C276.829 153.072 277.274 153.527 277.782 153.527C278.291 153.527 278.735 153.072 278.735 152.552V146.574C278.735 146.054 278.291 145.599 277.782 145.599C277.21 145.599 276.829 145.989 276.829 146.574Z" fill="#F7F3F5"/>
<path d="M263.992 152.877C266.216 152.162 267.804 150.408 268.059 148.004" stroke="#F7F3F5" stroke-width="2.25778" stroke-miterlimit="10"/>
<path d="M281.593 153.137C279.306 152.357 277.654 150.408 277.399 147.808" stroke="#F7F3F5" stroke-width="2.38026" stroke-miterlimit="10"/>
<path d="M235.652 257.561C235.588 259.445 235.525 261.329 235.525 263.214C235.461 264.643 235.397 266.593 236.795 267.373C237.812 267.957 238.511 266.853 238.638 265.943C238.765 265.033 238.702 264.059 238.702 263.149C238.702 262.239 238.702 261.394 238.702 260.485C238.702 259.77 238.575 258.86 238.892 258.275H237.24C237.939 259.51 238.003 260.94 237.939 262.304C237.876 263.929 237.622 265.553 237.24 267.113C236.923 268.347 238.765 268.867 239.083 267.632C239.528 265.813 239.782 263.994 239.846 262.174C239.909 260.485 239.718 258.795 238.829 257.301C238.448 256.716 237.558 256.651 237.177 257.301C236.478 258.6 236.732 260.225 236.732 261.654C236.732 262.434 236.732 263.149 236.732 263.929C236.732 264.318 236.732 264.708 236.732 265.098C236.732 265.423 236.795 265.813 236.605 266.073C236.732 265.943 236.859 265.813 236.923 265.748C236.859 265.748 236.859 265.813 236.795 265.813C237.05 265.813 237.304 265.748 237.558 265.683C237.812 265.748 237.685 265.878 237.621 265.683C237.558 265.553 237.494 265.488 237.494 265.358C237.431 265.098 237.367 264.903 237.367 264.643C237.367 263.929 237.367 263.214 237.431 262.434C237.494 260.81 237.494 259.185 237.558 257.561C237.622 256.326 235.715 256.326 235.652 257.561Z" fill="#0581C1"/>
<path d="M234.763 271.206H238.321C239.846 271.206 241.18 269.841 241.18 268.282C241.18 266.722 239.846 265.358 238.321 265.358H233.174C231.649 265.358 230.314 266.722 230.314 268.282C230.314 269.841 231.649 271.206 233.174 271.206H238.321V265.358H234.763C233.237 265.358 231.903 266.722 231.903 268.282C231.903 269.841 233.237 271.206 234.763 271.206Z" fill="#0581C1"/>
<path d="M234.698 260.745H237.684C239.209 260.745 240.607 259.38 240.544 257.821C240.48 256.261 239.273 254.897 237.684 254.897H233.49C231.965 254.897 230.567 256.261 230.631 257.821C230.695 259.38 231.902 260.745 233.49 260.745H237.684V254.897H234.698C233.173 254.897 231.775 256.261 231.838 257.821C231.902 259.445 233.109 260.745 234.698 260.745Z" fill="#0581C1"/>
<path d="M235.97 260.745H238.829C240.354 260.745 241.752 259.38 241.689 257.821C241.625 256.261 240.418 254.896 238.829 254.896H234.826C233.301 254.896 231.903 256.261 231.967 257.821C232.03 259.38 233.238 260.745 234.826 260.745H238.829V254.896H235.97C234.445 254.896 233.047 256.261 233.11 257.821C233.238 259.38 234.381 260.745 235.97 260.745Z" fill="#0581C1"/>
<path d="M234.255 271.141C237.941 271.141 237.941 265.293 234.255 265.293C230.57 265.293 230.57 271.141 234.255 271.141Z" fill="#0581C1"/>
<path d="M235.525 271.206H239.21C240.736 271.206 242.133 269.841 242.07 268.282C242.006 266.722 240.799 265.358 239.21 265.358H234.889C233.364 265.358 231.966 266.722 232.03 268.282C232.093 269.841 233.301 271.206 234.889 271.206H239.21V265.358H235.525C234 265.358 232.602 266.722 232.665 268.282C232.729 269.841 233.936 271.206 235.525 271.206Z" fill="#0581C1"/>
<path d="M170.366 301.078H172.583V308.236H170.366V301.078ZM174.189 301.078H176.255L178.95 305.038V301.078H181.035V308.236H178.95L176.27 304.305V308.236H174.189V301.078ZM182.515 301.078H187.983V302.616H184.736V303.866H187.51V305.311H184.736V308.236H182.515V301.078ZM188.896 304.662C188.896 303.493 189.222 302.583 189.873 301.932C190.524 301.281 191.431 300.956 192.593 300.956C193.784 300.956 194.702 301.276 195.347 301.918C195.991 302.556 196.313 303.451 196.313 304.603C196.313 305.44 196.172 306.127 195.889 306.664C195.609 307.198 195.202 307.614 194.668 307.914C194.137 308.21 193.475 308.358 192.681 308.358C191.873 308.358 191.204 308.229 190.674 307.972C190.146 307.715 189.718 307.308 189.39 306.752C189.061 306.195 188.896 305.498 188.896 304.662ZM191.108 304.672C191.108 305.394 191.242 305.913 191.509 306.229C191.779 306.545 192.145 306.703 192.607 306.703C193.083 306.703 193.451 306.548 193.711 306.239C193.971 305.93 194.102 305.375 194.102 304.574C194.102 303.9 193.965 303.408 193.691 303.099C193.421 302.787 193.053 302.63 192.588 302.63C192.142 302.63 191.784 302.788 191.514 303.104C191.243 303.42 191.108 303.942 191.108 304.672ZM197.534 308.236V301.078H201.221C201.904 301.078 202.427 301.136 202.788 301.254C203.149 301.371 203.441 301.589 203.662 301.908C203.883 302.224 203.994 302.609 203.994 303.065C203.994 303.462 203.91 303.806 203.74 304.095C203.571 304.382 203.338 304.615 203.042 304.794C202.853 304.908 202.594 305.002 202.266 305.077C202.529 305.165 202.721 305.253 202.842 305.34C202.923 305.399 203.04 305.524 203.193 305.716C203.35 305.908 203.454 306.057 203.506 306.161L204.575 308.236H202.075L200.894 306.048C200.744 305.765 200.61 305.581 200.493 305.497C200.334 305.386 200.153 305.331 199.951 305.331H199.756V308.236H197.534ZM199.756 303.978H200.688C200.789 303.978 200.985 303.946 201.274 303.88C201.421 303.851 201.54 303.776 201.631 303.656C201.725 303.535 201.772 303.397 201.772 303.241C201.772 303.01 201.699 302.832 201.553 302.709C201.406 302.585 201.131 302.523 200.728 302.523H199.756V303.978ZM205.264 301.078H208.174L209.297 305.433L210.415 301.078H213.315V308.236H211.509V302.777L210.107 308.236H208.472L207.075 302.777V308.236H205.264V301.078ZM214.727 301.078H220.654V302.606H216.943V303.744H220.386V305.204H216.943V306.615H220.762V308.236H214.727V301.078ZM221.987 301.078H225.273C225.921 301.078 226.444 301.166 226.841 301.341C227.241 301.517 227.572 301.769 227.832 302.098C228.092 302.427 228.281 302.81 228.398 303.246C228.516 303.682 228.574 304.144 228.574 304.632C228.574 305.397 228.486 305.991 228.311 306.415C228.138 306.835 227.897 307.188 227.588 307.474C227.279 307.757 226.947 307.946 226.592 308.041C226.107 308.171 225.667 308.236 225.273 308.236H221.987V301.078ZM224.199 302.699V306.61H224.741C225.203 306.61 225.532 306.56 225.728 306.459C225.923 306.354 226.076 306.175 226.187 305.922C226.297 305.664 226.353 305.249 226.353 304.676C226.353 303.918 226.229 303.399 225.981 303.119C225.734 302.839 225.324 302.699 224.751 302.699H224.199ZM233.086 301.078H237.227C237.917 301.078 238.446 301.249 238.813 301.59C239.185 301.932 239.37 302.355 239.37 302.86C239.37 303.283 239.238 303.646 238.975 303.949C238.799 304.151 238.542 304.31 238.203 304.427C238.717 304.551 239.095 304.764 239.336 305.067C239.58 305.366 239.702 305.744 239.702 306.2C239.702 306.571 239.616 306.905 239.443 307.201C239.271 307.497 239.035 307.731 238.735 307.904C238.55 308.011 238.27 308.089 237.896 308.138C237.397 308.203 237.067 308.236 236.904 308.236H233.086V301.078ZM235.317 303.885H236.279C236.624 303.885 236.864 303.827 236.997 303.71C237.134 303.589 237.202 303.417 237.202 303.192C237.202 302.984 237.134 302.821 236.997 302.704C236.864 302.587 236.629 302.528 236.294 302.528H235.317V303.885ZM235.317 306.698H236.445C236.826 306.698 237.095 306.631 237.251 306.498C237.407 306.361 237.485 306.179 237.485 305.951C237.485 305.739 237.407 305.57 237.251 305.443C237.098 305.313 236.828 305.248 236.44 305.248H235.317V306.698ZM240.142 301.078H242.598L244.043 303.495L245.488 301.078H247.93L245.146 305.238V308.236H242.93V305.238L240.142 301.078ZM251.484 301.078H258.208V302.845H255.952V308.236H253.74V302.845H251.484V301.078ZM259.302 301.078H261.519V308.236H259.302V301.078ZM263.11 301.078H265.322V306.473H268.774V308.236H263.11V301.078Z" fill="#1C2D5A"/>
</svg>
