<svg width="200" height="200" viewBox="0 0 200 200" fill="none" xmlns="http://www.w3.org/2000/svg">
<path d="M16.1296 173.259V60.7777L16.2037 60.7037C16.7222 59.1111 17.7037 58.3888 19.3704 58.3888H90.463C90.1111 57.3518 89.7593 56.3703 89.4445 55.3703C89.3519 55.0925 89.2407 55.0185 88.9445 55.0185H77.6667C76.8338 55.0259 76.0077 54.8671 75.237 54.5512C74.4663 54.2353 73.7664 53.7688 73.1782 53.1789C72.5901 52.5891 72.1256 51.8878 71.812 51.1162C71.4984 50.3445 71.342 49.518 71.3519 48.6851V23.0925C71.3295 21.8528 71.6918 20.6365 72.3889 19.6111C73.4815 18.0185 74.963 17.037 76.9259 16.8518H122.852C125.759 17.2592 128.111 19.9629 128.111 22.9259V48.7962C128.101 50.4435 127.443 52.0205 126.278 53.1853C125.113 54.3501 123.536 55.0088 121.889 55.0185H110.5C110.333 55.0185 110.148 54.9444 110.074 55.2222C109.741 56.2777 109.37 57.3148 109 58.3888H180.037C180.266 58.3734 180.496 58.3858 180.722 58.4259C182.241 58.7407 183.167 59.9074 183.167 61.4814V172.685C183.167 174.407 181.852 175.704 180.111 175.704H19.2408C18.7727 175.718 18.3075 175.626 17.8806 175.433C17.4538 175.241 17.0766 174.953 16.7778 174.593C16.4445 174.204 16.2963 173.722 16.1296 173.259ZM99.6667 146.056H168.685C169.019 146.056 169.167 146.018 169.167 145.611V73.2222C169.167 72.8888 169.111 72.7777 168.759 72.7777C147.352 72.8024 125.944 72.8024 104.537 72.7777C104.204 72.7777 104.074 72.8888 103.981 73.2037C103.537 74.5555 103.074 75.9259 102.611 77.2777C102.417 77.89 102.032 78.4242 101.513 78.8026C100.993 79.1811 100.367 79.384 99.7247 79.3819C99.0823 79.3799 98.4573 79.1729 97.9406 78.7911C97.4239 78.4094 97.0425 77.8727 96.8519 77.2592C96.3889 75.9259 95.9445 74.5925 95.5 73.2592C95.3889 72.9259 95.2593 72.7777 94.8704 72.7777C73.463 72.8024 52.0556 72.8024 30.6482 72.7777C30.2222 72.7777 30.1296 72.8888 30.1296 73.3148V145.5C30.1296 146.13 30.0556 146.056 30.6852 146.056H99.6667ZM99.6296 169.667H176.426C176.549 169.657 176.673 169.657 176.796 169.667C177.074 169.704 177.148 169.611 177.148 169.333C177.136 166.481 177.136 163.63 177.148 160.778C177.148 160.537 177.093 160.426 176.833 160.463C176.698 160.472 176.562 160.472 176.426 160.463H22.6667C22.2593 160.463 22.1296 160.537 22.1296 160.981C22.1667 163.315 22.1482 165.63 22.1482 167.963C22.1482 168.426 22.1667 168.907 22.1482 169.37C22.1296 169.833 22.2222 169.722 22.463 169.685H99.6296V169.667ZM99.6852 66.7592H99.7778C99.8333 66.5925 99.9074 66.4444 99.9445 66.2962L105.056 51.2407C105.574 49.7222 106.574 49 108.204 49H121.407C122.056 49 122.093 48.9629 122.093 48.3148V23.5C122.093 22.8333 122.074 22.8148 121.444 22.8148H78.037C77.3889 22.8148 77.3889 22.8333 77.3889 23.4629V48.3518C77.3889 48.9814 77.4074 49 78.037 49H91.2407C92.9074 49 93.9074 49.7222 94.4445 51.2962L99.1667 65.2592C99.3333 65.7592 99.5 66.2592 99.6852 66.7592ZM93.2963 66.7777C93.0926 66.1481 92.8519 65.574 92.7037 64.9629C92.5556 64.3518 92.3519 64.4074 91.9074 64.4074H22.7037C22.0556 64.4074 22.1482 64.3333 22.1482 64.9814V153.87C22.1482 154.426 22.1482 154.426 22.6852 154.426H176.63C177.037 154.426 177.148 154.333 177.148 153.907V64.9629C177.148 64.4074 177.148 64.4074 176.574 64.4074H107.296C107.246 64.3967 107.195 64.3965 107.144 64.4069C107.094 64.4172 107.047 64.4378 107.005 64.4674C106.963 64.497 106.928 64.5349 106.902 64.5787C106.875 64.6226 106.858 64.6714 106.852 64.7222C106.722 65.2037 106.537 65.7037 106.37 66.1851C106.204 66.6666 106.167 66.7777 106.778 66.7777H172.074C173.889 66.7777 175.185 68.037 175.185 69.8148C175.185 96.2222 175.179 122.63 175.167 149.037C175.173 149.26 175.16 149.483 175.13 149.704C174.796 151.185 173.593 152.093 172.019 152.093H27.0556C26.2664 152.078 25.5147 151.753 24.9636 151.188C24.4124 150.623 24.1061 149.863 24.1111 149.074V69.7962C24.105 69.6226 24.1174 69.4488 24.1482 69.2777C24.463 67.7222 25.6296 66.7777 27.2408 66.7777H93.2963Z" fill="#1B325E"/>
<path d="M76.9259 16.8519C76.9251 16.8418 76.9263 16.8317 76.9295 16.8222C76.9326 16.8126 76.9377 16.8038 76.9444 16.7963C76.9444 16.7778 76.9259 16.7778 76.9259 16.7593H122.519C122.5 16.7963 122.519 16.8148 122.537 16.8334H76.9259V16.8519Z" fill="#1D335F"/>
<path d="M99.6667 146.056H30.6852C30.0556 146.056 30.1296 146.13 30.1296 145.5V73.3149C30.1296 72.8889 30.2222 72.7778 30.6482 72.7778C52.0556 72.8025 73.463 72.8025 94.8704 72.7778C95.2593 72.7778 95.3889 72.926 95.5 73.2593C95.9445 74.5926 96.3889 75.926 96.8519 77.2593C97.0425 77.8728 97.4239 78.4095 97.9406 78.7912C98.4573 79.173 99.0823 79.38 99.7247 79.382C100.367 79.3841 100.993 79.1812 101.513 78.8027C102.032 78.4243 102.417 77.8901 102.611 77.2778C103.074 75.926 103.537 74.5556 103.981 73.2038C104.074 72.8889 104.204 72.7778 104.537 72.7778C125.944 72.8025 147.352 72.8025 168.759 72.7778C169.111 72.7778 169.167 72.8889 169.167 73.2223V145.611C169.167 146.019 169.019 146.056 168.685 146.056H99.6667ZM99.6296 137.722H138.093C139.278 137.722 139.944 137.037 139.944 135.852V87.7778C139.944 86.6112 139.259 85.9075 138.093 85.9075C136.926 85.9075 136.315 85.8889 135.426 85.926C135.056 85.926 135 85.8149 135 85.4815C135.037 84.5556 135.019 83.6482 135.019 82.7223C135.019 81.4815 134.333 80.8149 133.074 80.8149H66.1667C64.9815 80.8149 64.2778 81.5186 64.2778 82.7038C64.2778 83.8889 64.2593 84.6112 64.2778 85.5741C64.2778 85.8519 64.2037 85.926 63.9259 85.9075H61.1296C60.0556 85.926 59.3333 86.6482 59.3333 87.7223V135.926C59.3272 136.075 59.3396 136.224 59.3704 136.37C59.5741 137.278 60.2408 137.722 61.3519 137.722H99.6296Z" fill="white"/>
<path d="M99.6296 169.667H22.463C22.2222 169.704 22.1296 169.611 22.1482 169.352C22.1667 169.093 22.1482 168.407 22.1482 167.944C22.1482 165.611 22.1667 163.296 22.1296 160.963C22.1296 160.519 22.2593 160.444 22.6667 160.444H176.426C176.562 160.454 176.698 160.454 176.833 160.444C177.093 160.407 177.148 160.519 177.148 160.759C177.136 163.611 177.136 166.463 177.148 169.315C177.148 169.593 177.074 169.685 176.796 169.648C176.673 169.639 176.549 169.639 176.426 169.648L99.6296 169.667Z" fill="#A1D9D3"/>
<path d="M99.6852 66.7591C99.5 66.2591 99.3334 65.7591 99.1667 65.2591L94.4445 51.2962C93.9074 49.7221 92.9074 48.9999 91.2408 48.9999H78.0371C77.4074 48.9999 77.3889 48.9814 77.3889 48.3517V23.4628C77.3889 22.8332 77.3889 22.8147 78.0371 22.8147H121.444C122.074 22.8147 122.093 22.8332 122.093 23.4999V48.3147C122.093 48.9628 122.056 48.9999 121.407 48.9999H108.204C106.574 48.9999 105.574 49.7221 105.056 51.2406L99.9445 66.2962C99.9074 66.4443 99.8334 66.5925 99.7778 66.7591H99.6852Z" fill="white"/>
<path d="M93.2963 66.7778H27.2407C25.6296 66.7778 24.4629 67.7222 24.1481 69.2778C24.1174 69.4488 24.105 69.6226 24.1111 69.7963V149.074C24.1061 149.863 24.4124 150.623 24.9635 151.188C25.5147 151.753 26.2663 152.078 27.0555 152.093H172.018C173.593 152.093 174.796 151.185 175.13 149.704C175.16 149.483 175.173 149.26 175.167 149.037C175.179 122.63 175.185 96.2222 175.185 69.8148C175.185 68.037 173.889 66.7778 172.074 66.7778H106.778C106.167 66.7778 106.167 66.7778 106.37 66.1852C106.574 65.5926 106.722 65.2037 106.852 64.7222C106.858 64.6715 106.875 64.6226 106.902 64.5788C106.928 64.5349 106.963 64.497 107.005 64.4674C107.047 64.4379 107.094 64.4172 107.144 64.4069C107.194 64.3966 107.246 64.3968 107.296 64.4074H176.574C177.148 64.4074 177.148 64.4074 177.148 64.963V153.907C177.148 154.333 177.037 154.426 176.63 154.426H22.6852C22.1481 154.426 22.1481 154.426 22.1481 153.87V64.9815C22.1481 64.3333 22.0555 64.4074 22.7037 64.4074H91.9074C92.3518 64.4074 92.5926 64.5 92.7037 64.963C92.8148 65.4259 93.0926 66.1482 93.2963 66.7778Z" fill="#A1D9D3"/>
<path d="M99.6296 137.722H61.3518C60.2407 137.722 59.5741 137.278 59.3704 136.37C59.3396 136.224 59.3272 136.075 59.3333 135.926V87.7222C59.3333 86.6482 60.0555 85.9259 61.1296 85.9074H63.9259C64.2037 85.9259 64.2778 85.8519 64.2778 85.5741C64.2592 84.6111 64.2592 83.6482 64.2778 82.7037C64.2963 81.7593 64.9815 80.8148 66.1667 80.8148H133.074C134.333 80.8148 135.019 81.4815 135.019 82.7222C135.019 83.6482 135.037 84.5556 135 85.4815C135 85.8148 135.056 85.9259 135.426 85.9259C136.315 85.8889 137.204 85.9074 138.093 85.9074C138.981 85.9074 139.944 86.6111 139.944 87.7778V135.852C139.944 137.037 139.278 137.722 138.093 137.722H99.6296ZM131.574 106.704V84.7037C131.574 84.3333 131.481 84.2407 131.111 84.2407C121.346 84.2654 111.586 84.2654 101.833 84.2407C101.444 84.2407 101.352 84.3333 101.352 84.7037C101.377 99.3704 101.377 114.037 101.352 128.704C101.352 129.093 101.463 129.167 101.833 129.167H131.111C131.463 129.167 131.574 129.093 131.574 128.704V106.704ZM67.7222 106.704C67.7222 114.037 67.716 121.37 67.7037 128.704C67.7037 129.074 67.7963 129.167 68.1667 129.167H97.4444C97.8148 129.167 97.9259 129.111 97.9259 128.722V84.7037C97.9259 84.3333 97.8333 84.2407 97.4629 84.2407C87.7099 84.2654 77.9506 84.2654 68.1852 84.2407C67.8148 84.2407 67.7037 84.3148 67.7037 84.7037C67.7284 92.037 67.7346 99.3704 67.7222 106.704ZM99.6481 134.278H135.926C136.5 134.278 136.5 134.278 136.5 133.685V90.463C136.5 90.1111 136.648 89.6482 136.444 89.4259C136.241 89.2037 135.741 89.3889 135.37 89.3333C135 89.2778 134.963 89.4074 135.019 89.7037V130.704C135.019 131.889 134.333 132.611 133.222 132.611H66.0555C65.893 132.621 65.73 132.603 65.5741 132.556C64.7222 132.315 64.2592 131.667 64.2592 130.648V90.3519C64.2592 89.3519 64.2592 89.3704 63.2778 89.3333C62.8333 89.3148 62.7778 89.463 62.7778 89.8519V133.741C62.7778 134.278 62.7778 134.278 63.3333 134.278H99.6481Z" fill="#1B325E"/>
<path d="M131.574 106.704V128.704C131.574 129.093 131.463 129.167 131.111 129.167H101.833C101.463 129.167 101.352 129.093 101.352 128.704C101.376 114.037 101.376 99.3703 101.352 84.7037C101.352 84.3333 101.444 84.2407 101.833 84.2407C111.599 84.2654 121.358 84.2654 131.111 84.2407C131.481 84.2407 131.574 84.3333 131.574 84.7037V106.704ZM116.426 105.148H127.889C128.685 105.148 129.241 104.815 129.556 104.111C130.018 103 129.296 101.685 127.741 101.704H105.167C104.923 101.698 104.679 101.729 104.444 101.796C104.057 101.923 103.726 102.181 103.51 102.526C103.293 102.871 103.204 103.281 103.259 103.685C103.318 104.097 103.526 104.474 103.843 104.743C104.16 105.013 104.565 105.157 104.981 105.148H116.426ZM116.463 114.815H105.018C104.646 114.798 104.279 114.905 103.974 115.12C103.669 115.334 103.444 115.644 103.333 116C102.963 117.185 103.815 118.259 105.167 118.259H127.796C128.04 118.265 128.284 118.234 128.518 118.167C128.911 118.028 129.242 117.755 129.452 117.396C129.663 117.036 129.739 116.614 129.667 116.204C129.593 115.811 129.384 115.458 129.076 115.204C128.768 114.95 128.381 114.812 127.981 114.815H116.463ZM116.463 92.0741H128.185C128.567 92.0258 128.922 91.8493 129.191 91.5735C129.46 91.2977 129.628 90.9389 129.667 90.5555C129.778 89.4444 129 88.6481 127.833 88.6481H105.056C104.463 88.6481 103.963 88.8333 103.611 89.3148C103.407 89.5666 103.281 89.8723 103.248 90.1946C103.215 90.5169 103.277 90.8418 103.426 91.1296C103.759 91.7963 104.333 92.0926 105.074 92.0926L116.463 92.0741ZM116.5 95.1667H105.111C104.711 95.1504 104.316 95.2605 103.981 95.4815C103.678 95.6952 103.451 96.0014 103.335 96.3545C103.22 96.7075 103.222 97.0885 103.34 97.4405C103.459 97.7925 103.688 98.0967 103.994 98.3076C104.3 98.5186 104.666 98.625 105.037 98.6111H127.87C128.13 98.6252 128.39 98.581 128.63 98.4817C128.87 98.3823 129.085 98.2304 129.259 98.037C129.482 97.7933 129.627 97.4889 129.677 97.1625C129.726 96.8362 129.677 96.5024 129.537 96.2037C129.413 95.886 129.193 95.615 128.908 95.429C128.622 95.2429 128.285 95.1512 127.944 95.1667H116.5ZM116.463 108.259H104.981C104.755 108.254 104.531 108.295 104.321 108.378C104.111 108.462 103.92 108.587 103.759 108.746C103.598 108.905 103.471 109.095 103.386 109.304C103.3 109.513 103.257 109.737 103.259 109.963C103.259 110.981 104 111.704 105.093 111.704H127.87C128.944 111.704 129.704 110.963 129.685 109.963C129.667 108.963 128.907 108.259 127.852 108.259H116.463ZM116.463 124.796H127.944C128.401 124.796 128.839 124.615 129.162 124.292C129.485 123.969 129.667 123.531 129.667 123.074C129.667 122.617 129.485 122.179 129.162 121.856C128.839 121.533 128.401 121.352 127.944 121.352H105C104.729 121.349 104.462 121.41 104.219 121.529C103.977 121.649 103.766 121.824 103.604 122.041C103.441 122.257 103.332 122.509 103.285 122.775C103.238 123.041 103.255 123.315 103.333 123.574C103.436 123.934 103.655 124.249 103.957 124.471C104.259 124.692 104.626 124.807 105 124.796H116.463Z" fill="white"/>
<path d="M67.7223 106.704C67.7223 99.3704 67.7161 92.037 67.7037 84.7037C67.7037 84.3148 67.8148 84.2407 68.1852 84.2407C77.9507 84.2654 87.7099 84.2654 97.463 84.2407C97.8334 84.2407 97.926 84.3333 97.926 84.7037V128.722C97.926 129.111 97.8148 129.167 97.4445 129.167H68.1667C67.7963 129.167 67.7037 129.074 67.7037 128.704C67.7284 121.37 67.7346 114.037 67.7223 106.704ZM82.7408 92.0741H94.0556C94.2978 92.0924 94.5413 92.0736 94.7778 92.0185C95.1673 91.8953 95.5003 91.6378 95.7174 91.2918C95.9345 90.9458 96.0215 90.5339 95.963 90.1296C95.8148 89.2037 95.1297 88.6481 94.1482 88.6481H71.4074C71.3275 88.6388 71.2467 88.6388 71.1667 88.6481C70.802 88.6665 70.4531 88.8028 70.1725 89.0366C69.892 89.2704 69.695 89.589 69.6111 89.9444C69.3334 91.1111 70.1482 92.0741 71.3889 92.0741H82.7408ZM82.7593 105.148H94.2037C94.5542 105.166 94.9013 105.073 95.1968 104.884C95.4922 104.695 95.7212 104.418 95.8519 104.093C96.2778 103.093 95.6482 101.685 94.0371 101.704H71.5C71.2241 101.694 70.9484 101.731 70.6852 101.815C70.3023 101.953 69.9806 102.222 69.7772 102.574C69.5738 102.927 69.5019 103.34 69.5741 103.741C69.6413 104.144 69.8531 104.51 70.1701 104.769C70.487 105.028 70.8873 105.163 71.2963 105.148H82.7593ZM82.7593 114.815H71.3334C70.463 114.815 69.7963 115.315 69.6111 116.111C69.3334 117.296 70.1667 118.259 71.463 118.259H94.0926C94.3367 118.265 94.5801 118.234 94.8148 118.167C95.1939 118.037 95.5159 117.779 95.7254 117.438C95.935 117.097 96.019 116.693 95.963 116.296C95.917 115.884 95.7187 115.503 95.407 115.229C95.0954 114.955 94.6927 114.808 94.2778 114.815H82.7593ZM82.8148 108.259H71.3889C70.3148 108.259 69.5741 108.963 69.5556 109.963C69.5371 110.963 70.2963 111.704 71.3704 111.704H94.1482C95.2408 111.704 96 110.963 95.9815 109.963C95.963 108.963 95.2037 108.259 94.1297 108.259H82.8148ZM82.7593 124.796H94.1852C95.2223 124.796 95.9815 124.056 95.9815 123.074C95.9841 122.844 95.9401 122.616 95.8522 122.403C95.7642 122.191 95.6341 121.998 95.4697 121.837C95.3053 121.676 95.1101 121.55 94.8957 121.467C94.6813 121.383 94.4522 121.344 94.2223 121.352H71.3148C71.0264 121.347 70.7408 121.411 70.4815 121.537C70.137 121.714 69.8631 122.003 69.7049 122.356C69.5467 122.71 69.5136 123.107 69.6111 123.481C69.6928 123.86 69.9039 124.199 70.2081 124.439C70.5122 124.678 70.8905 124.805 71.2778 124.796H82.7593ZM82.7778 95.1667H71.3519C70.3148 95.1667 69.5556 95.9074 69.5556 96.9074C69.5555 97.1359 69.6013 97.362 69.6904 97.5725C69.7794 97.7829 69.9099 97.9732 70.0741 98.1322C70.2382 98.2911 70.4326 98.4154 70.6458 98.4977C70.859 98.58 71.0865 98.6185 71.3148 98.6111H94.2223C94.525 98.6184 94.8246 98.5483 95.0926 98.4074C95.4327 98.2255 95.702 97.9346 95.8571 97.5815C96.0123 97.2284 96.0444 96.8334 95.9483 96.4598C95.8523 96.0863 95.6336 95.7558 95.3273 95.5213C95.0211 95.2868 94.645 95.1619 94.2593 95.1667H82.7778Z" fill="white"/>
<path d="M99.6482 134.278H63.3334C62.7778 134.278 62.7778 134.278 62.7778 133.741V89.8518C62.7778 89.4629 62.8334 89.3148 63.2778 89.3333C64.2593 89.3703 64.2593 89.3518 64.2593 90.3518V130.648C64.2593 131.667 64.7223 132.315 65.5741 132.555C65.73 132.602 65.8931 132.621 66.0556 132.611H133.222C134.333 132.611 135.019 131.889 135.019 130.704V89.7036C134.963 89.4074 135.093 89.3148 135.37 89.3333C135.648 89.3518 136.204 89.1851 136.445 89.4259C136.685 89.6666 136.5 90.1111 136.5 90.4629V133.685C136.5 134.278 136.5 134.278 135.926 134.278H99.6482Z" fill="#5BBCB0"/>
<path d="M116.426 105.148H104.981C104.565 105.157 104.16 105.013 103.843 104.743C103.526 104.474 103.318 104.097 103.259 103.685C103.204 103.281 103.293 102.871 103.51 102.526C103.726 102.181 104.057 101.923 104.444 101.796C104.679 101.729 104.923 101.698 105.167 101.704H127.741C129.296 101.685 130.018 103 129.556 104.111C129.241 104.815 128.685 105.148 127.889 105.148H116.426Z" fill="#1D335F"/>
<path d="M116.463 114.815H127.982C128.381 114.812 128.768 114.95 129.076 115.204C129.384 115.458 129.593 115.811 129.667 116.204C129.739 116.614 129.663 117.036 129.453 117.396C129.242 117.755 128.911 118.028 128.519 118.167C128.284 118.234 128.04 118.265 127.796 118.259H105.167C103.815 118.259 102.963 117.185 103.333 116C103.444 115.644 103.669 115.334 103.974 115.12C104.279 114.905 104.646 114.798 105.019 114.815H116.463Z" fill="#1D335F"/>
<path d="M116.463 92.0741H105.074C104.333 92.0741 103.759 91.7778 103.426 91.1111C103.277 90.8234 103.215 90.4984 103.248 90.1761C103.281 89.8538 103.407 89.5481 103.611 89.2963C103.963 88.8148 104.463 88.6296 105.055 88.6296H127.833C129 88.6296 129.778 89.4259 129.667 90.537C129.628 90.9204 129.46 91.2792 129.191 91.555C128.922 91.8308 128.567 92.0073 128.185 92.0556H116.463V92.0741Z" fill="#1D335F"/>
<path d="M116.5 95.1667H127.945C128.285 95.1513 128.622 95.243 128.908 95.429C129.193 95.6151 129.414 95.886 129.537 96.2038C129.678 96.5025 129.726 96.8362 129.677 97.1626C129.627 97.489 129.482 97.7934 129.259 98.0371C129.085 98.2305 128.87 98.3824 128.63 98.4817C128.39 98.5811 128.13 98.6253 127.87 98.6112H105.037C104.666 98.6251 104.3 98.5187 103.994 98.3077C103.689 98.0967 103.459 97.7926 103.341 97.4406C103.222 97.0886 103.22 96.7076 103.336 96.3546C103.451 96.0015 103.678 95.6953 103.982 95.4815C104.316 95.2606 104.711 95.1504 105.111 95.1667H116.5Z" fill="#1B325E"/>
<path d="M116.463 108.259H127.852C128.908 108.259 129.667 108.963 129.685 109.963C129.704 110.963 128.945 111.704 127.87 111.704H105.093C104 111.704 103.259 110.981 103.259 109.963C103.257 109.737 103.3 109.513 103.386 109.304C103.472 109.095 103.599 108.905 103.759 108.746C103.92 108.587 104.111 108.462 104.321 108.378C104.531 108.295 104.756 108.254 104.982 108.259H116.463Z" fill="#1B325E"/>
<path d="M116.463 124.796H105C104.626 124.807 104.259 124.692 103.957 124.471C103.656 124.249 103.436 123.934 103.333 123.574C103.255 123.315 103.238 123.042 103.285 122.775C103.332 122.509 103.441 122.257 103.604 122.041C103.766 121.824 103.977 121.649 104.22 121.529C104.462 121.41 104.73 121.349 105 121.352H127.945C128.401 121.352 128.839 121.533 129.162 121.856C129.485 122.179 129.667 122.617 129.667 123.074C129.667 123.531 129.485 123.969 129.162 124.292C128.839 124.615 128.401 124.796 127.945 124.796H116.463Z" fill="#1B325E"/>
<path d="M82.7407 92.074H71.3888C70.1481 92.074 69.3333 91.1111 69.6111 89.9444C69.6949 89.589 69.8919 89.2704 70.1724 89.0366C70.453 88.8028 70.8019 88.6665 71.1666 88.6481C71.2466 88.6388 71.3274 88.6388 71.4074 88.6481H94.1481C95.1296 88.6481 95.8148 89.2037 95.9629 90.1296C96.0215 90.5339 95.9344 90.9458 95.7173 91.2918C95.5002 91.6378 95.1672 91.8953 94.7777 92.0185C94.5412 92.0736 94.2977 92.0923 94.0555 92.074H82.7407Z" fill="#1D335F"/>
<path d="M82.7593 105.148H71.2963C70.8873 105.163 70.487 105.028 70.17 104.769C69.8531 104.51 69.6413 104.144 69.5741 103.741C69.5019 103.34 69.5738 102.927 69.7772 102.574C69.9806 102.222 70.3023 101.953 70.6852 101.815C70.9484 101.731 71.2241 101.694 71.5 101.704H94.0371C95.6482 101.685 96.2778 103.093 95.8519 104.093C95.7212 104.418 95.4922 104.695 95.1968 104.884C94.9013 105.073 94.5542 105.166 94.2037 105.148H82.7593Z" fill="#1D335F"/>
<path d="M82.7593 114.815H94.2778C94.6927 114.808 95.0954 114.956 95.4071 115.229C95.7187 115.503 95.917 115.884 95.963 116.296C96.019 116.693 95.935 117.097 95.7254 117.438C95.5159 117.779 95.1939 118.037 94.8149 118.167C94.5801 118.234 94.3367 118.265 94.0926 118.259H71.463C70.1667 118.259 69.3334 117.296 69.6112 116.111C69.7963 115.315 70.463 114.815 71.3334 114.815H82.7593Z" fill="#1D335F"/>
<path d="M82.8148 108.259H94.1296C95.2037 108.259 95.9814 108.963 95.9814 109.963C95.9814 110.963 95.2407 111.704 94.1481 111.704H71.3703C70.2962 111.704 69.537 110.963 69.5555 109.963C69.574 108.963 70.3148 108.259 71.3888 108.259H82.8148Z" fill="#1B325E"/>
<path d="M82.7593 124.796H71.2778C70.8905 124.805 70.5123 124.679 70.2081 124.439C69.9039 124.199 69.6929 123.86 69.6112 123.482C69.5137 123.107 69.5467 122.71 69.705 122.356C69.8632 122.003 70.1371 121.714 70.4815 121.537C70.7409 121.411 71.0264 121.347 71.3149 121.352H94.2223C94.4522 121.344 94.6813 121.383 94.8957 121.467C95.1101 121.55 95.3054 121.676 95.4698 121.837C95.6342 121.998 95.7642 122.191 95.8522 122.403C95.9402 122.616 95.9841 122.844 95.9815 123.074C95.9815 124.056 95.2223 124.796 94.1852 124.796H82.7593Z" fill="#1B325E"/>
<path d="M82.7778 95.1666H94.2592C94.6449 95.1619 95.021 95.2868 95.3273 95.5213C95.6336 95.7557 95.8522 96.0863 95.9483 96.4598C96.0443 96.8334 96.0122 97.2284 95.8571 97.5815C95.7019 97.9346 95.4327 98.2254 95.0926 98.4073C94.8245 98.5483 94.5249 98.6184 94.2222 98.611H71.3148C71.0864 98.6185 70.8589 98.5799 70.6457 98.4977C70.4326 98.4154 70.2382 98.2911 70.074 98.1321C69.9099 97.9732 69.7794 97.7828 69.6903 97.5724C69.6013 97.362 69.5554 97.1358 69.5555 96.9074C69.5555 95.9074 70.3148 95.1666 71.3518 95.1666H82.7778Z" fill="#1B325E"/>
</svg>
