<svg width="144" height="144" viewBox="0 0 144 144" fill="none" xmlns="http://www.w3.org/2000/svg">
<rect width="144" height="144" rx="72" fill="#012A5D"/>
<path d="M87.7985 69.6083C101.26 69.8201 112.075 77.1042 112.075 86.059V115H32V86.059C32 76.9709 43.1388 69.6035 56.8791 69.6035" fill="white"/>
<path d="M87.7985 69.6083C101.26 69.8201 112.075 77.1042 112.075 86.059V115H32V86.059C32 76.9709 43.1388 69.6035 56.8791 69.6035" stroke="#1B2E5B" stroke-width="4" stroke-linecap="round" stroke-linejoin="round"/>
<path d="M72.195 74.9627C86.5591 74.9627 98.2035 63.1066 98.2035 48.4813C98.2035 33.8561 86.5591 22 72.195 22C57.8309 22 46.1865 33.8561 46.1865 48.4813C46.1865 63.1066 57.8309 74.9627 72.195 74.9627Z" fill="white" stroke="#1B2E5B" stroke-width="4" stroke-linecap="round" stroke-linejoin="round"/>
</svg>
