<svg width="144" height="109" viewBox="0 0 144 109" fill="none" xmlns="http://www.w3.org/2000/svg">
<path d="M138.961 20.5709C140.493 20.5709 141.735 19.3291 141.735 17.7972C141.735 16.2653 140.493 15.0235 138.961 15.0235C137.43 15.0235 136.188 16.2653 136.188 17.7972C136.188 19.3291 137.43 20.5709 138.961 20.5709Z" fill="#FDF8C1"/>
<path d="M136.113 15.0235C137.645 15.0235 138.887 13.7817 138.887 12.2498C138.887 10.7179 137.645 9.47607 136.113 9.47607C134.581 9.47607 133.339 10.7179 133.339 12.2498C133.339 13.7817 134.581 15.0235 136.113 15.0235Z" fill="#FDF8C1"/>
<path d="M136.113 25.3688C137.645 25.3688 138.887 24.127 138.887 22.5951C138.887 21.0632 137.645 19.8214 136.113 19.8214C134.581 19.8214 133.339 21.0632 133.339 22.5951C133.339 24.127 134.581 25.3688 136.113 25.3688Z" fill="#FDF8C1"/>
<path d="M133.219 21.7838C133.431 22.4811 133.361 23.2335 133.024 23.8798C133.141 23.1869 133.206 22.4863 133.219 21.7838Z" fill="#FDF8C1"/>
<path d="M133.219 21.784C133.206 22.4865 133.141 23.1871 133.024 23.88C132.727 24.4492 132.24 24.8973 131.649 25.1478C131.057 25.3984 130.397 25.4358 129.781 25.2538C129.165 25.0717 128.632 24.6814 128.271 24.1495C127.911 23.6177 127.747 22.9773 127.806 22.3377C127.866 21.6981 128.145 21.0989 128.597 20.6426C129.05 20.1863 129.646 19.9011 130.285 19.8357C130.924 19.7704 131.566 19.9289 132.101 20.2842C132.636 20.6395 133.031 21.1696 133.219 21.784Z" fill="#FDF8C1"/>
<path d="M130.416 15.0235C131.947 15.0235 133.189 13.7817 133.189 12.2498C133.189 10.7179 131.947 9.47607 130.416 9.47607C128.884 9.47607 127.642 10.7179 127.642 12.2498C127.642 13.7817 128.884 15.0235 130.416 15.0235Z" fill="#FDF8C1"/>
<path d="M127.567 19.8213C129.099 19.8213 130.341 18.5795 130.341 17.0476C130.341 15.5158 129.099 14.2739 127.567 14.2739C126.035 14.2739 124.793 15.5158 124.793 17.0476C124.793 18.5795 126.035 19.8213 127.567 19.8213Z" fill="#FDF8C1"/>
<path d="M129.441 70.4978V99.9592C129.441 101.768 128.722 103.504 127.443 104.783C126.164 106.062 124.428 106.781 122.619 106.781C120.81 106.781 119.075 106.062 117.795 104.783C116.516 103.504 115.797 101.768 115.797 99.9592V45.1595H129.441V70.4978Z" fill="#BFE7F2"/>
<path d="M99.5867 24.7871C109.977 35.1757 79.2322 45.1416 79.2322 45.1416C79.2322 45.1416 79.2382 45.1251 79.2487 45.0906C80.919 41.7061 82.3645 38.2152 83.5757 34.6405C87.4499 26.8801 93.4441 18.6444 99.5867 24.7871Z" fill="#5BBCB0"/>
<path d="M86.1799 63.646H86.1814C91.1797 65.2854 95.43 68.6528 98.1691 73.1437C100.908 77.6346 101.957 82.9548 101.127 88.1492C100.297 93.3435 97.6422 98.0719 93.6398 101.485C89.6375 104.899 84.5494 106.774 79.2891 106.774C74.0288 106.774 68.9408 104.899 64.9384 101.485C60.9361 98.0719 58.2816 93.3435 57.4515 88.1492C56.6213 82.9548 57.67 77.6346 60.4091 73.1437C63.1483 68.6528 67.3985 65.2854 72.3968 63.646L72.3983 63.6475V45.1595H86.1799V63.646Z" fill="#90CCE1"/>
<path d="M79.2141 16.3729C87.8935 16.3729 86.3193 26.4183 83.5755 34.6405C81.9046 38.0248 80.4592 41.5157 79.2486 45.0906L79.2141 45.1596C79.2141 45.1596 79.0132 44.7668 78.6818 44.0711C78.7238 44.0846 78.7463 44.0921 78.7463 44.0921C77.6075 40.7201 76.2601 37.4223 74.7117 34.2177C72.0579 26.0779 70.683 16.3729 79.2141 16.3729Z" fill="#5BBCB0"/>
<path d="M74.7117 34.2176C75.8307 37.5808 77.1567 40.8715 78.6819 44.0711C77.1316 43.5583 48.2789 33.8488 58.3918 23.7375C64.6993 17.4284 70.8525 26.2863 74.7117 34.2176Z" fill="#5BBCB0"/>
<path d="M31.1555 69.1485L46.5294 105.432H24.2647H2L17.3739 69.1485V43.8102H24.1897H24.2647H31.1555V69.1485Z" fill="#BFE7F2"/>
<path d="M30.2619 15.7732C33.6155 15.7732 36.3341 14.5314 36.3341 12.9995C36.3341 11.4676 33.6155 10.2258 30.2619 10.2258C26.9083 10.2258 24.1897 11.4676 24.1897 12.9995C24.1897 14.5314 26.9083 15.7732 30.2619 15.7732Z" fill="#ADDDD7"/>
<path d="M30.2619 26.5682C33.6155 26.5682 36.3341 25.3264 36.3341 23.7945C36.3341 22.2626 33.6155 21.0208 30.2619 21.0208C26.9083 21.0208 24.1897 22.2626 24.1897 23.7945C24.1897 25.3264 26.9083 26.5682 30.2619 26.5682Z" fill="#ADDDD7"/>
<path d="M30.2619 39.762C33.6155 39.762 36.3341 38.5202 36.3341 36.9883C36.3341 35.4564 33.6155 34.2146 30.2619 34.2146C26.9083 34.2146 24.1897 35.4564 24.1897 36.9883C24.1897 38.5202 26.9083 39.762 30.2619 39.762Z" fill="#ADDDD7"/>
<path d="M18.1176 7.07721C21.4712 7.07721 24.1898 5.83538 24.1898 4.3035C24.1898 2.77162 21.4712 1.52979 18.1176 1.52979C14.764 1.52979 12.0454 2.77162 12.0454 4.3035C12.0454 5.83538 14.764 7.07721 18.1176 7.07721Z" fill="#ADDDD7"/>
<path d="M18.1176 22.67C21.4712 22.67 24.1898 21.4282 24.1898 19.8963C24.1898 18.3644 21.4712 17.1226 18.1176 17.1226C14.764 17.1226 12.0454 18.3644 12.0454 19.8963C12.0454 21.4282 14.764 22.67 18.1176 22.67Z" fill="#ADDDD7"/>
<path d="M18.1176 34.2147C21.4712 34.2147 24.1898 32.9728 24.1898 31.441C24.1898 29.9091 21.4712 28.6672 18.1176 28.6672C14.764 28.6672 12.0454 29.9091 12.0454 31.441C12.0454 32.9728 14.764 34.2147 18.1176 34.2147Z" fill="#ADDDD7"/>
<path d="M24.2647 43.8102H31.1555V69.1485L46.5294 105.432H24.2647H2L17.3739 69.1485V43.8102H24.1897H24.2647Z" stroke="#1B2E5B" stroke-width="3" stroke-linecap="round" stroke-linejoin="round"/>
<path d="M86.1799 63.6475V45.1595H72.3983V63.6475L72.3968 63.646C67.3985 65.2854 63.1483 68.6528 60.4091 73.1437C57.67 77.6346 56.6213 82.9548 57.4515 88.1491C58.2816 93.3435 60.9361 98.0719 64.9384 101.485C68.9408 104.899 74.0288 106.774 79.2891 106.774C84.5494 106.774 89.6375 104.899 93.6398 101.485C97.6422 98.0719 100.297 93.3435 101.127 88.1491C101.957 82.9548 100.908 77.6346 98.1691 73.1437C95.43 68.6528 91.1797 65.2854 86.1814 63.646" stroke="#1B2E5B" stroke-width="3" stroke-linecap="round" stroke-linejoin="round"/>
<path d="M129.441 70.4978V99.9592C129.441 101.768 128.722 103.504 127.443 104.783C126.164 106.062 124.428 106.781 122.619 106.781C120.81 106.781 119.075 106.062 117.795 104.783C116.516 103.504 115.797 101.768 115.797 99.9592V45.1595H129.441V70.4978Z" stroke="#1B2E5B" stroke-width="3" stroke-linecap="round" stroke-linejoin="round"/>
<path d="M24.1897 43.8102V36.9884V31.4409V23.7945V19.8963V12.9995V4.3035V3.77875" stroke="#1B2E5B" stroke-width="3" stroke-linecap="round" stroke-linejoin="round"/>
<path d="M74.7117 34.2176C76.2601 37.4222 77.6076 40.7201 78.7463 44.0921C78.7463 44.0921 78.7238 44.0846 78.6819 44.0711C77.1316 43.5583 48.2789 33.8488 58.3918 23.7375C64.6993 17.4284 70.8525 26.2863 74.7117 34.2176Z" stroke="#1B2E5B" stroke-width="3" stroke-linecap="round" stroke-linejoin="round"/>
<path d="M79.2141 45.1596C79.2141 45.1596 79.0132 44.7668 78.6818 44.0711C77.1566 40.8716 75.8307 37.5808 74.7117 34.2177C72.0579 26.0779 70.683 16.3729 79.2141 16.3729C87.8935 16.3729 86.3193 26.4183 83.5755 34.6405C82.3644 38.2151 80.9189 41.7061 79.2486 45.0906L79.2141 45.1596Z" stroke="#1B2E5B" stroke-width="3" stroke-linecap="round" stroke-linejoin="round"/>
<path d="M83.5757 34.6405C87.4499 26.8801 93.4441 18.6444 99.5867 24.7871C109.977 35.1757 79.2322 45.1416 79.2322 45.1416C79.2322 45.1416 79.2382 45.1251 79.2487 45.0906C80.4593 41.5158 81.9048 38.0248 83.5757 34.6405V34.6405Z" stroke="#1B2E5B" stroke-width="3" stroke-linecap="round" stroke-linejoin="round"/>
<path d="M122.619 45.1595C122.619 45.1595 117.409 37.0258 122.619 31.8157C127.234 27.2009 131.996 29.6447 133.024 23.8799C133.141 23.187 133.206 22.4864 133.219 21.7839C133.224 21.5979 133.227 21.406 133.227 21.2081" stroke="#1B2E5B" stroke-width="3" stroke-linecap="round" stroke-linejoin="round"/>
<path d="M130.416 15.0235C131.947 15.0235 133.189 13.7817 133.189 12.2498C133.189 10.7179 131.947 9.47607 130.416 9.47607C128.884 9.47607 127.642 10.7179 127.642 12.2498C127.642 13.7817 128.884 15.0235 130.416 15.0235Z" stroke="#1B2E5B" stroke-width="3" stroke-linecap="round" stroke-linejoin="round"/>
<path d="M136.113 15.0235C137.645 15.0235 138.887 13.7817 138.887 12.2498C138.887 10.7179 137.645 9.47607 136.113 9.47607C134.581 9.47607 133.339 10.7179 133.339 12.2498C133.339 13.7817 134.581 15.0235 136.113 15.0235Z" stroke="#1B2E5B" stroke-width="3" stroke-linecap="round" stroke-linejoin="round"/>
<path d="M138.961 20.5709C140.493 20.5709 141.735 19.3291 141.735 17.7972C141.735 16.2653 140.493 15.0235 138.961 15.0235C137.43 15.0235 136.188 16.2653 136.188 17.7972C136.188 19.3291 137.43 20.5709 138.961 20.5709Z" stroke="#1B2E5B" stroke-width="3" stroke-linecap="round" stroke-linejoin="round"/>
<path d="M136.113 25.3688C137.645 25.3688 138.887 24.127 138.887 22.5951C138.887 21.0632 137.645 19.8214 136.113 19.8214C134.581 19.8214 133.339 21.0632 133.339 22.5951C133.339 24.127 134.581 25.3688 136.113 25.3688Z" stroke="#1B2E5B" stroke-width="3" stroke-linecap="round" stroke-linejoin="round"/>
<path d="M133.339 22.5951C133.338 23.2938 133.072 23.9662 132.596 24.4774C132.12 24.9887 131.468 25.3009 130.771 25.3515C130.074 25.4021 129.384 25.1874 128.838 24.7503C128.293 24.3133 127.934 23.6863 127.831 22.9951C127.729 22.3039 127.892 21.5996 128.287 21.0235C128.683 20.4473 129.281 20.042 129.963 19.8888C130.645 19.7355 131.359 19.8457 131.963 20.1972C132.567 20.5487 133.016 21.1155 133.219 21.784C133.299 22.0469 133.339 22.3202 133.339 22.5951V22.5951Z" stroke="#1B2E5B" stroke-width="3" stroke-linecap="round" stroke-linejoin="round"/>
<path d="M127.567 19.8213C129.099 19.8213 130.341 18.5795 130.341 17.0476C130.341 15.5158 129.099 14.2739 127.567 14.2739C126.035 14.2739 124.793 15.5158 124.793 17.0476C124.793 18.5795 126.035 19.8213 127.567 19.8213Z" stroke="#1B2E5B" stroke-width="3" stroke-linecap="round" stroke-linejoin="round"/>
<path d="M30.2619 39.762C33.6155 39.762 36.3341 38.5202 36.3341 36.9883C36.3341 35.4564 33.6155 34.2146 30.2619 34.2146C26.9083 34.2146 24.1897 35.4564 24.1897 36.9883C24.1897 38.5202 26.9083 39.762 30.2619 39.762Z" stroke="#1B2E5B" stroke-width="3" stroke-linecap="round" stroke-linejoin="round"/>
<path d="M18.1176 34.2147C21.4712 34.2147 24.1898 32.9728 24.1898 31.441C24.1898 29.9091 21.4712 28.6672 18.1176 28.6672C14.764 28.6672 12.0454 29.9091 12.0454 31.441C12.0454 32.9728 14.764 34.2147 18.1176 34.2147Z" stroke="#1B2E5B" stroke-width="3" stroke-linecap="round" stroke-linejoin="round"/>
<path d="M30.2619 26.5682C33.6155 26.5682 36.3341 25.3264 36.3341 23.7945C36.3341 22.2626 33.6155 21.0208 30.2619 21.0208C26.9083 21.0208 24.1897 22.2626 24.1897 23.7945C24.1897 25.3264 26.9083 26.5682 30.2619 26.5682Z" stroke="#1B2E5B" stroke-width="3" stroke-linecap="round" stroke-linejoin="round"/>
<path d="M18.1176 22.67C21.4712 22.67 24.1898 21.4282 24.1898 19.8963C24.1898 18.3644 21.4712 17.1226 18.1176 17.1226C14.764 17.1226 12.0454 18.3644 12.0454 19.8963C12.0454 21.4282 14.764 22.67 18.1176 22.67Z" stroke="#1B2E5B" stroke-width="3" stroke-linecap="round" stroke-linejoin="round"/>
<path d="M30.2619 15.7732C33.6155 15.7732 36.3341 14.5314 36.3341 12.9995C36.3341 11.4676 33.6155 10.2258 30.2619 10.2258C26.9083 10.2258 24.1897 11.4676 24.1897 12.9995C24.1897 14.5314 26.9083 15.7732 30.2619 15.7732Z" stroke="#1B2E5B" stroke-width="3" stroke-linecap="round" stroke-linejoin="round"/>
<path d="M18.1176 7.07721C21.4712 7.07721 24.1898 5.83538 24.1898 4.3035C24.1898 2.77162 21.4712 1.52979 18.1176 1.52979C14.764 1.52979 12.0454 2.77162 12.0454 4.3035C12.0454 5.83538 14.764 7.07721 18.1176 7.07721Z" stroke="#1B2E5B" stroke-width="3" stroke-linecap="round" stroke-linejoin="round"/>
</svg>
