<svg width="200" height="207" viewBox="0 0 200 207" fill="none" xmlns="http://www.w3.org/2000/svg">
<path d="M136.022 119.078L191.848 175.135C194.896 178.214 196.601 182.373 196.592 186.705C196.584 191.037 194.861 195.19 191.8 198.255L191.8 198.255C188.722 201.303 184.562 203.009 180.23 203C175.898 202.991 171.746 201.268 168.68 198.207L111.405 140.695" fill="#C7E4EF"/>
<path d="M136.022 119.078L191.848 175.135C194.896 178.214 196.601 182.373 196.592 186.705C196.584 191.037 194.861 195.19 191.8 198.255L191.8 198.255C188.722 201.303 184.562 203.009 180.23 203C175.898 202.991 171.746 201.268 168.68 198.207L111.405 140.695" stroke="#1B2E5B" stroke-width="6.06372" stroke-linecap="round" stroke-linejoin="round"/>
<path d="M76.7625 149.525C116.948 149.525 149.525 116.948 149.525 76.7624C149.525 36.5769 116.948 4 76.7625 4C36.5769 4 4 36.5769 4 76.7624C4 116.948 36.5769 149.525 76.7625 149.525Z" fill="#90CCE1" stroke="#1B2E5B" stroke-width="6.06372" stroke-linecap="round" stroke-linejoin="round"/>
<path d="M76.7626 132.025C107.283 132.025 132.025 107.283 132.025 76.7625C132.025 46.2418 107.283 21.4999 76.7626 21.4999C46.2419 21.4999 21.5 46.2418 21.5 76.7625C21.5 107.283 46.2419 132.025 76.7626 132.025Z" fill="white" stroke="#1B2E5B" stroke-width="6.06372" stroke-linecap="round" stroke-linejoin="round"/>
<path d="M94.7995 89.51L104.586 79.7239C105.77 78.5395 106.709 77.1335 107.35 75.5861C107.991 74.0387 108.321 72.3802 108.321 70.7053C108.321 69.0304 107.991 67.3719 107.35 65.8245C106.709 64.2771 105.77 62.8711 104.586 61.6868L104.586 61.6868C102.194 59.2949 98.9496 57.9512 95.567 57.9512C92.1844 57.9512 88.9404 59.2949 86.5485 61.6868L76.7624 71.4729L66.9763 61.6868C64.5845 59.2949 61.3404 57.9512 57.9578 57.9512C54.5752 57.9512 51.3311 59.2949 48.9392 61.6868L48.9392 61.6868C46.5474 64.0787 45.2036 67.3227 45.2036 70.7053C45.2036 74.0879 46.5474 77.332 48.9392 79.7239L76.7624 107.547L94.7995 89.51Z" fill="#5BBCB0" stroke="#1B2E5B" stroke-width="6.06372" stroke-linecap="round" stroke-linejoin="round"/>
</svg>
