<svg width="175" height="156" viewBox="0 0 175 156" fill="none" xmlns="http://www.w3.org/2000/svg">
<path d="M24.9291 101.145L16.4368 132.831L53.7236 101.145H121.628C134.354 101.145 144.67 90.1956 144.67 76.6892V26.4556C144.67 12.9491 134.354 2 121.628 2H25.0422C12.3163 2 2 12.9491 2 26.4555V76.6892C2 90.1956 12.3163 101.145 25.0422 101.145" fill="#5BBCB0"/>
<path d="M24.9291 101.145L16.4368 132.831L53.7236 101.145H121.628C134.354 101.145 144.67 90.1956 144.67 76.6892V26.4556C144.67 12.9491 134.354 2 121.628 2H25.0422C12.3163 2 2 12.9491 2 26.4555V76.6892C2 90.1956 12.3163 101.145 25.0422 101.145" stroke="#1B2E5B" stroke-width="4" stroke-linecap="round" stroke-linejoin="round"/>
<path d="M154.595 128.253L161.141 154L132.399 128.253H80.0566C70.2471 128.253 62.2949 118.64 62.2949 106.782V62.6787C62.2949 50.8205 70.2471 41.2075 80.0566 41.2075H154.508C164.318 41.2075 172.27 50.8205 172.27 62.6787V106.782C172.27 118.64 164.318 128.253 154.508 128.253" fill="#ADDDD7"/>
<path d="M154.595 128.253L161.141 154L132.399 128.253H80.0566C70.2471 128.253 62.2949 118.64 62.2949 106.782V62.6787C62.2949 50.8205 70.2471 41.2075 80.0566 41.2075H154.508C164.318 41.2075 172.27 50.8205 172.27 62.6787V106.782C172.27 118.64 164.318 128.253 154.508 128.253" stroke="#1B2E5B" stroke-width="4" stroke-linecap="round" stroke-linejoin="round"/>
<path d="M24.9618 102.188L16.4696 133.874L53.7563 102.188H121.661C134.386 102.188 144.703 91.2386 144.703 77.7322V27.4985C144.703 13.9921 134.386 3.04297 121.661 3.04297H25.0749C12.3491 3.04297 2.03271 13.9921 2.03271 27.4985V77.7322C2.03271 91.2386 12.3491 102.188 25.0749 102.188" stroke="#1B2E5B" stroke-width="4" stroke-linecap="round" stroke-linejoin="round"/>
<path d="M96.0232 76.7984C93.6488 75.3127 91.8165 73.1013 90.798 70.4922C89.7795 67.8831 89.6291 65.0151 90.3691 62.3138C91.109 59.6124 92.6999 57.2215 94.9059 55.4955C97.1118 53.7696 99.8153 52.8007 102.615 52.7324C105.415 52.6641 108.163 53.5001 110.45 55.1164C112.738 56.7327 114.443 59.0433 115.314 61.7053C116.185 64.3674 116.175 67.2393 115.284 69.895C114.394 72.5506 112.672 74.8487 110.373 76.4484L110.206 76.5627L110.346 86.1955C110.354 86.7458 110.254 87.2923 110.051 87.8038C109.848 88.3153 109.546 88.7817 109.162 89.1765C108.779 89.5713 108.321 89.8867 107.816 90.1047C107.311 90.3227 106.767 90.439 106.217 90.447L100.433 90.5312C99.3221 90.5474 98.2498 90.1214 97.4525 89.347C96.6551 88.5726 96.1981 87.5131 96.182 86.4017L96.0417 76.7689" fill="#F4F5CD"/>
<path d="M96.0232 76.7984C93.6488 75.3127 91.8165 73.1013 90.798 70.4922C89.7795 67.8831 89.6291 65.0151 90.3691 62.3138C91.109 59.6124 92.6999 57.2215 94.9059 55.4955C97.1118 53.7696 99.8153 52.8007 102.615 52.7324C105.415 52.6641 108.163 53.5001 110.45 55.1164C112.738 56.7327 114.443 59.0433 115.314 61.7053C116.185 64.3674 116.175 67.2393 115.284 69.895C114.394 72.5506 112.672 74.8487 110.373 76.4484L110.206 76.5627L110.346 86.1955C110.354 86.7458 110.254 87.2923 110.051 87.8038C109.848 88.3153 109.546 88.7817 109.162 89.1765C108.779 89.5713 108.321 89.8867 107.816 90.1047C107.311 90.3227 106.767 90.439 106.217 90.447L100.433 90.5312C99.3221 90.5474 98.2498 90.1214 97.4525 89.347C96.6551 88.5726 96.1981 87.5131 96.182 86.4017L96.0417 76.7689" stroke="#1B2E5B" stroke-width="4" stroke-linecap="round" stroke-linejoin="round"/>
<path d="M100.115 85.6354L106.329 85.5449" stroke="#1B2E5B" stroke-width="2" stroke-linecap="round" stroke-linejoin="round"/>
<path d="M100.078 82.1842L106.292 82.0938" stroke="#1B2E5B" stroke-width="2" stroke-linecap="round" stroke-linejoin="round"/>
<path d="M101.318 76.7896L101.184 67.5884" stroke="#1B2E5B" stroke-width="2" stroke-linecap="round" stroke-linejoin="round"/>
<path d="M105.185 76.7447L105.051 67.5435" stroke="#1B2E5B" stroke-width="2" stroke-linecap="round" stroke-linejoin="round"/>
</svg>
