<svg width="112" height="140" viewBox="0 0 112 140" fill="none" xmlns="http://www.w3.org/2000/svg">
<path d="M105.565 13.4031H6.40156C3.97064 13.4031 2 15.3737 2 17.8046V133.207C2 135.638 3.97064 137.609 6.40156 137.609H105.565C107.996 137.609 109.967 135.638 109.967 133.207V17.8046C109.967 15.3737 107.996 13.4031 105.565 13.4031Z" fill="white" stroke="#1A2D59" stroke-width="4" stroke-linecap="round" stroke-linejoin="round"/>
<path d="M50.291 46.3945H94.9965" stroke="#1A2D59" stroke-width="4" stroke-linecap="round" stroke-linejoin="round"/>
<path d="M50.291 110.959H94.9965" stroke="#1A2D59" stroke-width="4" stroke-linecap="round" stroke-linejoin="round"/>
<path d="M50.291 78.6771H94.9965" stroke="#1A2D59" stroke-width="4" stroke-linecap="round" stroke-linejoin="round"/>
<path d="M38.1517 69.4229H19.7407V87.9298H38.1517V69.4229Z" fill="white" stroke="#1A2D59" stroke-width="4" stroke-linecap="round" stroke-linejoin="round"/>
<path d="M38.1517 101.706H19.7407V120.212H38.1517V101.706Z" fill="white" stroke="#1A2D59" stroke-width="4" stroke-linecap="round" stroke-linejoin="round"/>
<path d="M38.1517 37.1403H19.7407V55.6472H38.1517V37.1403Z" fill="white" stroke="#1A2D59" stroke-width="4" stroke-linecap="round" stroke-linejoin="round"/>
<path d="M79.077 2.52979H32.8901C30.712 2.52979 28.9463 4.29548 28.9463 6.47357V20.3321C28.9463 22.5102 30.712 24.2759 32.8901 24.2759H79.077C81.2551 24.2759 83.0208 22.5102 83.0208 20.3321V6.47357C83.0208 4.29548 81.2551 2.52979 79.077 2.52979Z" fill="#5BBCB0" stroke="#1A2D59" stroke-width="5" stroke-linecap="round" stroke-linejoin="round"/>
</svg>
