<svg width="123" height="113" viewBox="0 0 123 113" fill="none" xmlns="http://www.w3.org/2000/svg">
<path d="M61.5937 45.6543C73.4778 45.6543 83.1118 35.8819 83.1118 23.8271C83.1118 11.7723 73.4778 2 61.5937 2C49.7096 2 40.0757 11.7723 40.0757 23.8271C40.0757 35.8819 49.7096 45.6543 61.5937 45.6543Z" fill="#C7E4EF" stroke="#1B2E5B" stroke-width="3" stroke-linecap="round" stroke-linejoin="round"/>
<path d="M23.1069 111.053C34.991 111.053 44.6249 101.281 44.6249 89.2259C44.6249 77.1711 34.991 67.3987 23.1069 67.3987C11.2228 67.3987 1.58887 77.1711 1.58887 89.2259C1.58887 101.281 11.2228 111.053 23.1069 111.053Z" fill="#C7E4EF" stroke="#1B2E5B" stroke-width="3" stroke-linecap="round" stroke-linejoin="round"/>
<path d="M99.8154 111.053C111.699 111.053 121.333 101.281 121.333 89.2259C121.333 77.1711 111.699 67.3987 99.8154 67.3987C87.9313 67.3987 78.2974 77.1711 78.2974 89.2259C78.2974 101.281 87.9313 111.053 99.8154 111.053Z" fill="#C7E4EF" stroke="#1B2E5B" stroke-width="3" stroke-linecap="round" stroke-linejoin="round"/>
<path d="M18.5673 67.886C18.5657 67.7326 18.5649 67.579 18.5649 67.4252C18.5649 51.0091 27.5271 36.7162 40.7591 29.3064" stroke="#1B2E5B" stroke-width="3" stroke-linecap="round" stroke-linejoin="round"/>
<path d="M84.2495 104.296C77.4401 108.634 69.5345 110.937 61.4612 110.937C53.3879 110.937 45.4822 108.634 38.6729 104.296" stroke="#1B2E5B" stroke-width="3" stroke-linecap="round" stroke-linejoin="round"/>
<path d="M82.394 29.4367C95.4992 36.883 104.357 51.1048 104.357 67.4252C104.357 67.579 104.356 67.7326 104.355 67.886" stroke="#1B2E5B" stroke-width="3" stroke-linecap="round" stroke-linejoin="round"/>
<path d="M64.9306 22.7084C67.7807 22.7531 70.0704 24.2893 70.0704 26.1778V32.2813H53.1167V26.1778C53.1167 24.2611 55.475 22.7074 58.3842 22.7074" fill="#29ABE2"/>
<path d="M64.9306 22.7084C67.7807 22.7531 70.0704 24.2893 70.0704 26.1778V32.2813H53.1167V26.1778C53.1167 24.2611 55.475 22.7074 58.3842 22.7074" stroke="#1B2E5B" stroke-width="3" stroke-linecap="round" stroke-linejoin="round"/>
<path d="M26.4438 89.4621C29.2939 89.5068 31.5836 91.043 31.5836 92.9315V99.035H14.6299V92.9315C14.6299 91.0149 16.9882 89.4611 19.8974 89.4611" fill="#5BBCB0"/>
<path d="M26.4438 89.4621C29.2939 89.5068 31.5836 91.043 31.5836 92.9315V99.035H14.6299V92.9315C14.6299 91.0149 16.9882 89.4611 19.8974 89.4611" stroke="#1B2E5B" stroke-width="3" stroke-linecap="round" stroke-linejoin="round"/>
<path d="M23.1625 90.5638C26.197 90.5638 28.657 88.0684 28.657 84.9903C28.657 81.9122 26.197 79.4169 23.1625 79.4169C20.1279 79.4169 17.668 81.9122 17.668 84.9903C17.668 88.0684 20.1279 90.5638 23.1625 90.5638Z" fill="#5BBCB0" stroke="#1B2E5B" stroke-width="3" stroke-linecap="round" stroke-linejoin="round"/>
<path d="M61.6493 23.81C64.6838 23.81 67.1438 21.3147 67.1438 18.2366C67.1438 15.1585 64.6838 12.6631 61.6493 12.6631C58.6148 12.6631 56.1548 15.1585 56.1548 18.2366C56.1548 21.3147 58.6148 23.81 61.6493 23.81Z" fill="#29ABE2" stroke="#1B2E5B" stroke-width="3" stroke-linecap="round" stroke-linejoin="round"/>
<path d="M103.061 88.071C105.912 88.1157 108.201 89.6519 108.201 91.5404V97.6439H91.2476V91.5404C91.2476 89.6237 93.6059 88.07 96.5151 88.07" fill="#90CCE1"/>
<path d="M103.061 88.071C105.912 88.1157 108.201 89.6519 108.201 91.5404V97.6439H91.2476V91.5404C91.2476 89.6237 93.6059 88.07 96.5151 88.07" stroke="#1B2E5B" stroke-width="3" stroke-linecap="round" stroke-linejoin="round"/>
<path d="M99.7802 89.1726C102.815 89.1726 105.275 86.6773 105.275 83.5992C105.275 80.5211 102.815 78.0258 99.7802 78.0258C96.7456 78.0258 94.2856 80.5211 94.2856 83.5992C94.2856 86.6773 96.7456 89.1726 99.7802 89.1726Z" fill="#90CCE1" stroke="#1B2E5B" stroke-width="3" stroke-linecap="round" stroke-linejoin="round"/>
<path d="M56.8232 70.9006C55.0299 69.7785 53.6459 68.1083 52.8767 66.1377C52.1074 64.167 51.9938 62.0009 52.5527 59.9606C53.1116 57.9203 54.3132 56.1145 55.9793 54.8109C57.6454 53.5074 59.6873 52.7755 61.8021 52.7239C63.9169 52.6724 65.9921 53.3038 67.7198 54.5245C69.4475 55.7453 70.7357 57.4904 71.3934 59.5011C72.051 61.5117 72.0432 63.6808 71.3709 65.6866C70.6986 67.6924 69.3978 69.4281 67.6613 70.6363L67.5353 70.7226L67.6413 77.9982C67.6535 78.8376 67.3318 79.6475 66.7469 80.2497C66.1619 80.8519 65.3618 81.197 64.5224 81.2092L60.1542 81.2728C59.7385 81.2789 59.3258 81.203 58.9395 81.0496C58.5531 80.8961 58.2008 80.668 57.9027 80.3784C57.6045 80.0888 57.3663 79.7433 57.2016 79.3616C57.037 78.9799 56.9491 78.5696 56.9431 78.1539L56.8372 70.8783" fill="#F4F5CD"/>
<path d="M56.8232 70.9006C55.0299 69.7785 53.6459 68.1083 52.8767 66.1377C52.1074 64.167 51.9938 62.0009 52.5527 59.9606C53.1116 57.9203 54.3132 56.1145 55.9793 54.8109C57.6454 53.5074 59.6873 52.7755 61.8021 52.7239C63.9169 52.6724 65.9921 53.3038 67.7198 54.5245C69.4475 55.7453 70.7357 57.4904 71.3933 59.5011C72.051 61.5117 72.0432 63.6808 71.3709 65.6866C70.6986 67.6924 69.3978 69.4281 67.6613 70.6363L67.5353 70.7226L67.6413 77.9982C67.6535 78.8376 67.3318 79.6475 66.7469 80.2497C66.1619 80.8519 65.3618 81.197 64.5224 81.2092L60.1542 81.2728C59.7385 81.2789 59.3258 81.203 58.9395 81.0496C58.5531 80.8961 58.2008 80.668 57.9027 80.3784C57.6045 80.0888 57.3663 79.7433 57.2016 79.3616C57.037 78.9799 56.9491 78.5696 56.9431 78.1539L56.8372 70.8783" stroke="#1B2E5B" stroke-width="2" stroke-linecap="round" stroke-linejoin="round"/>
<path d="M59.9136 77.5751L64.6068 77.5068" stroke="#1B2E5B" stroke-linecap="round" stroke-linejoin="round"/>
<path d="M59.8857 74.9682L64.5789 74.8999" stroke="#1B2E5B" stroke-linecap="round" stroke-linejoin="round"/>
<path d="M60.8214 70.8938L60.7202 63.9442" stroke="#1B2E5B" stroke-linecap="round" stroke-linejoin="round"/>
<path d="M63.7428 70.8596L63.6416 63.91" stroke="#1B2E5B" stroke-linecap="round" stroke-linejoin="round"/>
</svg>
