<svg width="143" height="131" viewBox="0 0 143 131" fill="none" xmlns="http://www.w3.org/2000/svg">
<path d="M141.018 118.027V128.699H111.374V118.027C111.374 114.681 115.483 111.969 120.555 111.959C122.206 113.21 124.221 113.887 126.292 113.887C128.364 113.887 130.379 113.211 132.03 111.96C137.014 112.039 141.018 114.725 141.018 118.027Z" fill="#5BBCB0"/>
<path d="M120.311 96.516C122.002 95.1432 124.115 94.3948 126.293 94.3966C131.599 94.3966 135.901 98.7592 135.901 104.141C135.905 105.655 135.557 107.149 134.886 108.506C134.214 109.863 133.237 111.045 132.03 111.96C130.379 113.211 128.364 113.887 126.292 113.887C124.221 113.887 122.206 113.21 120.555 111.959C119.373 111.057 118.411 109.899 117.741 108.572C117.071 107.245 116.711 105.783 116.687 104.297C116.664 102.81 116.978 101.338 117.605 99.9901C118.233 98.6425 119.158 97.4547 120.311 96.516Z" fill="#5BBCB0"/>
<path d="M88.6123 53.7932C84.3158 56.9672 79.2226 58.8865 73.8999 59.3372C68.5772 59.7879 63.2338 58.7525 58.4647 56.3461C53.6957 53.9397 49.6881 50.2569 46.8882 45.7077C44.0884 41.1585 42.6061 35.9214 42.6064 30.5797C42.6064 14.6405 55.5263 1.7207 71.4654 1.7207C87.4031 1.7207 100.324 14.6405 100.324 30.5797C100.328 35.0961 99.2697 39.5502 97.2353 43.5825C95.2008 47.6148 92.2471 51.1124 88.6123 53.7932ZM86.5739 35.9644C86.5739 34.6681 86.1895 33.4009 85.4693 32.3231C84.7491 31.2453 83.7255 30.4052 82.5279 29.9091C81.3302 29.4131 80.0124 29.2833 78.741 29.5362C77.4697 29.7891 76.3018 30.4133 75.3852 31.3299C74.4686 32.2465 73.8444 33.4144 73.5915 34.6857C73.3386 35.9571 73.4684 37.275 73.9644 38.4726C74.4605 39.6702 75.3006 40.6938 76.3784 41.414C77.4562 42.1342 78.7234 42.5186 80.0197 42.5186C80.8804 42.5187 81.7327 42.3492 82.528 42.0198C83.3232 41.6905 84.0458 41.2077 84.6544 40.5991C85.263 39.9905 85.7458 39.2679 86.0751 38.4727C86.4045 37.6774 86.5739 36.8251 86.5739 35.9644ZM78.2523 21.1623C78.2523 19.866 77.8679 18.5988 77.1477 17.521C76.4275 16.4432 75.4039 15.6031 74.2063 15.107C73.0087 14.611 71.6908 14.4812 70.4195 14.7341C69.1481 14.9869 67.9802 15.6112 67.0636 16.5278C66.147 17.4444 65.5228 18.6122 65.2699 19.8836C65.017 21.155 65.1468 22.4728 65.6429 23.6705C66.1389 24.8681 66.979 25.8917 68.0568 26.6119C69.1346 27.3321 70.4018 27.7165 71.6981 27.7165C72.5588 27.7165 73.4112 27.5471 74.2064 27.2177C75.0016 26.8884 75.7242 26.4056 76.3328 25.797C76.9414 25.1883 77.4242 24.4658 77.7535 23.6706C78.0829 22.8753 78.2524 22.023 78.2523 21.1623ZM69.3416 35.9644C69.3416 34.6681 68.9572 33.4009 68.237 32.3231C67.5168 31.2453 66.4932 30.4052 65.2956 29.9091C64.0979 29.4131 62.7801 29.2833 61.5087 29.5362C60.2374 29.7891 59.0695 30.4133 58.1529 31.3299C57.2363 32.2465 56.6121 33.4144 56.3592 34.6857C56.1063 35.9571 56.2361 37.275 56.7321 38.4726C57.2282 39.6702 58.0683 40.6938 59.1461 41.414C60.2239 42.1342 61.4911 42.5186 62.7874 42.5186C63.6481 42.5187 64.5004 42.3492 65.2957 42.0198C66.0909 41.6905 66.8134 41.2077 67.4221 40.5991C68.0307 39.9905 68.5135 39.2679 68.8428 38.4727C69.1722 37.6774 69.3416 36.8251 69.3416 35.9644Z" fill="white"/>
<path d="M86.2866 118.027V128.699H56.6426V118.027C56.6426 114.681 60.7503 111.969 65.8243 111.959C67.4755 113.21 69.4901 113.887 71.5615 113.887C73.6329 113.887 75.6477 113.211 77.2992 111.96C82.2834 112.039 86.2866 114.725 86.2866 118.027Z" fill="#90CCE1"/>
<path d="M80.0195 42.5186C83.6392 42.5186 86.5736 39.5842 86.5736 35.9644C86.5736 32.3447 83.6392 29.4102 80.0195 29.4102C76.3997 29.4102 73.4653 32.3447 73.4653 35.9644C73.4653 39.5842 76.3997 42.5186 80.0195 42.5186Z" fill="#5BBCB0"/>
<path d="M65.8243 111.959C64.6181 111.044 63.6408 109.862 62.9694 108.505C62.298 107.149 61.9508 105.655 61.9551 104.141C61.9551 98.7592 66.2558 94.3966 71.5625 94.3966C76.8677 94.3966 81.1699 98.7592 81.1699 104.141C81.174 105.655 80.8265 107.149 80.1548 108.506C79.4832 109.863 78.5056 111.045 77.2992 111.96C75.6477 113.211 73.6329 113.887 71.5615 113.887C69.4901 113.887 67.4755 113.21 65.8243 111.959Z" fill="#90CCE1"/>
<path d="M71.6982 27.7164C75.318 27.7164 78.2524 24.782 78.2524 21.1623C78.2524 17.5425 75.318 14.6081 71.6982 14.6081C68.0784 14.6081 65.144 17.5425 65.144 21.1623C65.144 24.782 68.0784 27.7164 71.6982 27.7164Z" fill="#C7E4EF"/>
<path d="M62.7871 42.5186C66.4069 42.5186 69.3413 39.5842 69.3413 35.9644C69.3413 32.3447 66.4069 29.4102 62.7871 29.4102C59.1673 29.4102 56.2329 32.3447 56.2329 35.9644C56.2329 39.5842 59.1673 42.5186 62.7871 42.5186Z" fill="#90CCE1"/>
<path d="M31.5556 118.027V128.699H1.91162V118.027C1.91162 114.681 6.01939 111.969 11.0933 111.959C12.7446 113.21 14.7592 113.887 16.8306 113.887C18.902 113.887 20.9168 113.211 22.5683 111.96C27.5524 112.039 31.5556 114.725 31.5556 118.027Z" fill="#C7E4EF"/>
<path d="M11.0933 111.959C9.88741 111.044 8.91029 109.862 8.23888 108.505C7.56748 107.149 7.22012 105.655 7.22416 104.141C7.22416 98.7592 11.5263 94.3966 16.8315 94.3966C18.9341 94.3949 20.9776 95.0923 22.6404 96.3791C23.8291 97.3029 24.7898 98.4874 25.4484 99.8412C26.1069 101.195 26.4458 102.682 26.4388 104.187C26.4318 105.693 26.0792 107.177 25.4082 108.524C24.7371 109.872 23.7655 111.048 22.5683 111.96C20.9167 113.211 18.902 113.887 16.8306 113.887C14.7591 113.887 12.7445 113.21 11.0933 111.959Z" fill="#C7E4EF"/>
<path d="M54.2361 53.7328C50.6246 51.0494 47.6918 47.5576 45.6723 43.537C43.6528 39.5165 42.6028 35.0789 42.6065 30.5797C42.6065 14.6405 55.5263 1.7207 71.4654 1.7207C87.4031 1.7207 100.324 14.6405 100.324 30.5797C100.324 35.9299 98.8365 41.1747 96.0279 45.7284C93.2193 50.2822 89.2002 53.9656 84.4193 56.3673C79.6385 58.769 74.2841 59.7945 68.9542 59.3293C63.6242 58.8641 58.5285 56.9265 54.2361 53.7328V53.7328Z" stroke="#1B2E5B" stroke-width="3" stroke-linecap="round" stroke-linejoin="round"/>
<path d="M11.0933 111.959C9.88741 111.044 8.91029 109.862 8.23888 108.505C7.56748 107.149 7.22012 105.655 7.22416 104.141C7.22416 98.7592 11.5263 94.3966 16.8315 94.3966C18.9341 94.3949 20.9776 95.0923 22.6404 96.3791C23.8291 97.3029 24.7898 98.4874 25.4484 99.8412C26.1069 101.195 26.4458 102.682 26.4388 104.187C26.4318 105.693 26.0792 107.177 25.4082 108.524C24.7371 109.872 23.7655 111.048 22.5683 111.96C20.9167 113.211 18.902 113.887 16.8306 113.887C14.7591 113.887 12.7445 113.21 11.0933 111.959Z" stroke="#1B2E5B" stroke-width="3" stroke-linecap="round" stroke-linejoin="round"/>
<path d="M22.5683 111.96C27.5524 112.039 31.5556 114.725 31.5556 118.027V128.699H1.91162V118.027C1.91162 114.681 6.01939 111.969 11.0933 111.959H11.1228" stroke="#1B2E5B" stroke-width="3" stroke-linecap="round" stroke-linejoin="round"/>
<path d="M65.8243 111.959C64.6181 111.044 63.6408 109.862 62.9694 108.505C62.298 107.149 61.9508 105.655 61.9551 104.141C61.9551 98.7592 66.2558 94.3966 71.5625 94.3966C76.8677 94.3966 81.1699 98.7592 81.1699 104.141C81.174 105.655 80.8265 107.149 80.1548 108.506C79.4832 109.863 78.5056 111.045 77.2992 111.96C75.6477 113.211 73.6329 113.887 71.5615 113.887C69.4901 113.887 67.4755 113.21 65.8243 111.959Z" stroke="#1B2E5B" stroke-width="3" stroke-linecap="round" stroke-linejoin="round"/>
<path d="M77.2992 111.96C82.2834 112.039 86.2866 114.725 86.2866 118.027V128.699H56.6426V118.027C56.6426 114.681 60.7503 111.969 65.8243 111.959H65.8538" stroke="#1B2E5B" stroke-width="3" stroke-linecap="round" stroke-linejoin="round"/>
<path d="M120.555 111.959C119.373 111.057 118.411 109.899 117.741 108.572C117.071 107.245 116.711 105.783 116.687 104.297C116.664 102.81 116.978 101.338 117.605 99.9901C118.233 98.6425 119.158 97.4547 120.311 96.516C122.002 95.1432 124.115 94.3948 126.293 94.3966C131.599 94.3966 135.901 98.7592 135.901 104.141C135.905 105.655 135.557 107.149 134.886 108.506C134.214 109.863 133.237 111.045 132.03 111.96C130.379 113.211 128.364 113.887 126.292 113.887C124.221 113.887 122.206 113.21 120.555 111.959V111.959Z" stroke="#1B2E5B" stroke-width="3" stroke-linecap="round" stroke-linejoin="round"/>
<path d="M132.03 111.96C137.014 112.039 141.018 114.725 141.018 118.027V128.699H111.374V118.027C111.374 114.681 115.483 111.969 120.555 111.959H120.583" stroke="#1B2E5B" stroke-width="3" stroke-linecap="round" stroke-linejoin="round"/>
<path d="M54.2361 53.7328L22.6406 96.3791" stroke="#1B2E5B" stroke-width="3" stroke-linecap="round" stroke-linejoin="round"/>
<path d="M120.312 96.5176L120.311 96.5161L88.6123 53.7932V53.7917" stroke="#1B2E5B" stroke-width="3" stroke-linecap="round" stroke-linejoin="round"/>
<path d="M71.5391 94.2479V60.0336" stroke="#1B2E5B" stroke-width="3" stroke-linecap="round" stroke-linejoin="round"/>
<path d="M71.6982 27.7164C75.318 27.7164 78.2524 24.782 78.2524 21.1623C78.2524 17.5425 75.318 14.6081 71.6982 14.6081C68.0784 14.6081 65.144 17.5425 65.144 21.1623C65.144 24.782 68.0784 27.7164 71.6982 27.7164Z" stroke="#1B2E5B" stroke-width="3" stroke-linecap="round" stroke-linejoin="round"/>
<path d="M62.7871 42.5186C66.4069 42.5186 69.3413 39.5842 69.3413 35.9644C69.3413 32.3447 66.4069 29.4102 62.7871 29.4102C59.1673 29.4102 56.2329 32.3447 56.2329 35.9644C56.2329 39.5842 59.1673 42.5186 62.7871 42.5186Z" stroke="#1B2E5B" stroke-width="3" stroke-linecap="round" stroke-linejoin="round"/>
<path d="M80.0195 42.5186C83.6392 42.5186 86.5736 39.5842 86.5736 35.9644C86.5736 32.3447 83.6392 29.4102 80.0195 29.4102C76.3997 29.4102 73.4653 32.3447 73.4653 35.9644C73.4653 39.5842 76.3997 42.5186 80.0195 42.5186Z" stroke="#1B2E5B" stroke-width="3" stroke-linecap="round" stroke-linejoin="round"/>
</svg>
