<svg width="126" height="107" viewBox="0 0 126 107" fill="none" xmlns="http://www.w3.org/2000/svg">
<path d="M113.174 21.8005C118.616 21.8005 123.029 17.3884 123.029 11.9457C123.029 6.50299 118.616 2.09082 113.174 2.09082C107.731 2.09082 103.319 6.50299 103.319 11.9457C103.319 17.3884 107.731 21.8005 113.174 21.8005Z" fill="#ADDDD7"/>
<path d="M113.174 59.4886C118.616 59.4886 123.029 55.0765 123.029 49.6338C123.029 44.1911 118.616 39.7789 113.174 39.7789C107.731 39.7789 103.319 44.1911 103.319 49.6338C103.319 55.0765 107.731 59.4886 113.174 59.4886Z" fill="#5BBCB0"/>
<path d="M113.174 99.0412C118.616 99.0412 123.029 94.6291 123.029 89.1864C123.029 83.7437 118.616 79.3315 113.174 79.3315C107.731 79.3315 103.319 83.7437 103.319 89.1864C103.319 94.6291 107.731 99.0412 113.174 99.0412Z" fill="#C7E4EF"/>
<path d="M12.4945 21.8005C17.9372 21.8005 22.3493 17.3884 22.3493 11.9457C22.3493 6.50299 17.9372 2.09082 12.4945 2.09082C7.05181 2.09082 2.63965 6.50299 2.63965 11.9457C2.63965 17.3884 7.05181 21.8005 12.4945 21.8005Z" fill="#C7E4EF"/>
<path d="M12.4945 59.4886C17.9372 59.4886 22.3493 55.0765 22.3493 49.6338C22.3493 44.1911 17.9372 39.7789 12.4945 39.7789C7.05181 39.7789 2.63965 44.1911 2.63965 49.6338C2.63965 55.0765 7.05181 59.4886 12.4945 59.4886Z" fill="#90CCE1"/>
<path d="M12.4945 99.0412C17.9372 99.0412 22.3493 94.6291 22.3493 89.1864C22.3493 83.7437 17.9372 79.3315 12.4945 79.3315C7.05181 79.3315 2.63965 83.7437 2.63965 89.1864C2.63965 94.6291 7.05181 99.0412 12.4945 99.0412Z" fill="#5BBCB0"/>
<path d="M12.4945 21.8005C17.9372 21.8005 22.3493 17.3884 22.3493 11.9457C22.3493 6.50299 17.9372 2.09082 12.4945 2.09082C7.05181 2.09082 2.63965 6.50299 2.63965 11.9457C2.63965 17.3884 7.05181 21.8005 12.4945 21.8005Z" stroke="#1B2E5B" stroke-width="4" stroke-linecap="round" stroke-linejoin="round"/>
<path d="M12.4945 59.4886C17.9372 59.4886 22.3493 55.0765 22.3493 49.6338C22.3493 44.1911 17.9372 39.7789 12.4945 39.7789C7.05181 39.7789 2.63965 44.1911 2.63965 49.6338C2.63965 55.0765 7.05181 59.4886 12.4945 59.4886Z" stroke="#1B2E5B" stroke-width="4" stroke-linecap="round" stroke-linejoin="round"/>
<path d="M12.4945 99.0412C17.9372 99.0412 22.3493 94.6291 22.3493 89.1864C22.3493 83.7437 17.9372 79.3315 12.4945 79.3315C7.05181 79.3315 2.63965 83.7437 2.63965 89.1864C2.63965 94.6291 7.05181 99.0412 12.4945 99.0412Z" stroke="#1B2E5B" stroke-width="4" stroke-linecap="round" stroke-linejoin="round"/>
<path d="M113.174 21.8005C118.616 21.8005 123.029 17.3884 123.029 11.9457C123.029 6.50299 118.616 2.09082 113.174 2.09082C107.731 2.09082 103.319 6.50299 103.319 11.9457C103.319 17.3884 107.731 21.8005 113.174 21.8005Z" stroke="#1B2E5B" stroke-width="4" stroke-linecap="round" stroke-linejoin="round"/>
<path d="M113.174 59.4886C118.616 59.4886 123.029 55.0765 123.029 49.6338C123.029 44.1911 118.616 39.7789 113.174 39.7789C107.731 39.7789 103.319 44.1911 103.319 49.6338C103.319 55.0765 107.731 59.4886 113.174 59.4886Z" stroke="#1B2E5B" stroke-width="4" stroke-linecap="round" stroke-linejoin="round"/>
<path d="M113.174 99.0412C118.616 99.0412 123.029 94.6291 123.029 89.1864C123.029 83.7437 118.616 79.3315 113.174 79.3315C107.731 79.3315 103.319 83.7437 103.319 89.1864C103.319 94.6291 107.731 99.0412 113.174 99.0412Z" stroke="#1B2E5B" stroke-width="4" stroke-linecap="round" stroke-linejoin="round"/>
<path d="M22.3491 11.9457H103.319" stroke="#1B2E5B" stroke-width="4" stroke-linecap="round" stroke-linejoin="round"/>
<path d="M22.3491 49.6338H38.1968V30.3236H52.0468V61.0867H68.5604V49.6338H82.1441V36.8491H93.8634V49.6338H103.319" stroke="#1B2E5B" stroke-width="4" stroke-linecap="round" stroke-linejoin="round"/>
<path d="M22.3491 89.1864C23.2427 79.9348 27.1394 73.4945 31.8045 72.806C33.5077 72.5543 35.5866 73.0298 37.198 74.3375C43.9912 79.8522 35.1618 94.239 42.0588 101.172C44.6384 103.765 48.8107 104.704 51.7805 103.702C56.8264 102 58.7628 94.5786 60.1704 89.1864C62.3851 80.7006 61.2398 75.7239 64.5652 74.0046C66.2032 73.1576 68.3739 73.4346 69.8921 74.2709C76.8371 78.0957 73.8221 95.7798 75.3549 95.9329C76.5894 96.0541 76.6853 84.4201 83.2095 81.3291C85.0153 80.4728 88.0836 79.9082 90.2677 81.3291C95.0033 84.4108 92.4105 94.6984 96.0767 95.7971C96.5781 95.9304 97.109 95.9006 97.5922 95.7119C101.328 94.4308 103.054 90.0254 103.319 89.1864" stroke="#1B2E5B" stroke-width="4" stroke-linecap="round" stroke-linejoin="round"/>
</svg>
