<svg width="138" height="143" viewBox="0 0 138 143" fill="none" xmlns="http://www.w3.org/2000/svg">
<path d="M66.1626 92.9424C76.7725 92.9424 85.3735 84.3414 85.3735 73.7315C85.3735 63.1215 76.7725 54.5205 66.1626 54.5205C55.5527 54.5205 46.9517 63.1215 46.9517 73.7315C46.9517 84.3414 55.5527 92.9424 66.1626 92.9424Z" stroke="#1B2E5B" stroke-width="4" stroke-linecap="round" stroke-linejoin="round"/>
<path d="M15.3907 140.97C22.4008 140.97 28.0836 135.287 28.0836 128.277C28.0836 121.267 22.4008 115.584 15.3907 115.584C8.38058 115.584 2.69775 121.267 2.69775 128.277C2.69775 135.287 8.38058 140.97 15.3907 140.97Z" fill="#5BBCB0" stroke="#1B2E5B" stroke-width="4" stroke-linecap="round" stroke-linejoin="round"/>
<path d="M122.423 128.277C129.433 128.277 135.116 122.594 135.116 115.584C135.116 108.574 129.433 102.891 122.423 102.891C115.413 102.891 109.73 108.574 109.73 115.584C109.73 122.594 115.413 128.277 122.423 128.277Z" fill="#C7E4EF" stroke="#1B2E5B" stroke-width="4" stroke-linecap="round" stroke-linejoin="round"/>
<path d="M109.559 48.0025C114.579 48.0025 118.65 43.9323 118.65 38.9116C118.65 33.8908 114.579 29.8207 109.559 29.8207C104.538 29.8207 100.468 33.8908 100.468 38.9116C100.468 43.9323 104.538 48.0025 109.559 48.0025Z" fill="#5BBCB0" stroke="#1B2E5B" stroke-width="4" stroke-linecap="round" stroke-linejoin="round"/>
<path d="M65.9908 137.196C71.0116 137.196 75.0817 133.126 75.0817 128.105C75.0817 123.084 71.0116 119.014 65.9908 119.014C60.97 119.014 56.8999 123.084 56.8999 128.105C56.8999 133.126 60.97 137.196 65.9908 137.196Z" fill="#90CCE1" stroke="#1B2E5B" stroke-width="4" stroke-linecap="round" stroke-linejoin="round"/>
<path d="M11.7886 70.9869C16.8094 70.9869 20.8795 66.9168 20.8795 61.896C20.8795 56.8753 16.8094 52.8051 11.7886 52.8051C6.76788 52.8051 2.69775 56.8753 2.69775 61.896C2.69775 66.9168 6.76788 70.9869 11.7886 70.9869Z" fill="#C7E4EF" stroke="#1B2E5B" stroke-width="4" stroke-linecap="round" stroke-linejoin="round"/>
<path d="M57.2432 27.7623C64.2534 27.7623 69.9362 22.0795 69.9362 15.0694C69.9362 8.05929 64.2534 2.37646 57.2432 2.37646C50.2331 2.37646 44.5503 8.05929 44.5503 15.0694C44.5503 22.0795 50.2331 27.7623 57.2432 27.7623Z" fill="#90CCE1" stroke="#1B2E5B" stroke-width="4" stroke-linecap="round" stroke-linejoin="round"/>
<path d="M63.2747 54.7365L59.1733 27.7624" stroke="#1B2E5B" stroke-width="4" stroke-linecap="round" stroke-linejoin="round"/>
<path d="M112.239 108.008L81.5771 85.1983" stroke="#1B2E5B" stroke-width="4" stroke-linecap="round" stroke-linejoin="round"/>
<path d="M47.3783 69.6894L20.8794 63.9871" stroke="#1B2E5B" stroke-width="4" stroke-linecap="round" stroke-linejoin="round"/>
<path d="M102.597 44.7559L81.1987 61.7737" stroke="#1B2E5B" stroke-width="4" stroke-linecap="round" stroke-linejoin="round"/>
<path d="M53.0741 87.7925L24.0386 118.986" stroke="#1B2E5B" stroke-width="4" stroke-linecap="round" stroke-linejoin="round"/>
<path d="M66.1626 119.014V92.9424" stroke="#1B2E5B" stroke-width="4" stroke-linecap="round" stroke-linejoin="round"/>
</svg>
