<svg width="687" height="563" viewBox="0 0 687 563" fill="none" xmlns="http://www.w3.org/2000/svg">
<path d="M685.407 552.03L2.18904 550.229H2" stroke="#1D6B63" stroke-width="3" stroke-linecap="round" stroke-linejoin="round"/>
<path d="M685.407 552.03L2 550.229" stroke="#1D6B63" stroke-width="3" stroke-linecap="round" stroke-linejoin="round"/>
<path d="M102.291 551.985L88.0407 550.146L87.8877 550.128" stroke="#1D6B63" stroke-width="3" stroke-linecap="round" stroke-linejoin="round"/>
<path d="M237.323 357.912C237.323 357.912 192.501 440.704 210.857 551.13L179.728 550.675C179.728 550.675 179.728 550.498 179.8 550.136C180.394 545.382 184.724 509.13 184.4 455.904C184.4 455.877 199.514 368.126 237.323 357.912Z" fill="#5BBBAF"/>
<path d="M242.724 289.198C242.724 289.198 199.964 316.591 184.418 435.198H184.039C183.715 423.507 183.139 411.176 182.239 398.333C182.239 398.278 182.239 398.222 182.239 398.166C180.916 375.008 183.76 352.118 188.369 331.485C188.91 330.52 205.509 300.165 242.724 289.198Z" fill="#5BBBAF"/>
<path d="M218.418 249.27C218.418 249.27 198.866 284.555 188.397 331.476C183.788 352.109 180.943 374.998 182.266 398.157C180.09 365.813 176.056 333.631 170.186 301.78C170.186 301.78 187.812 255.77 218.418 249.27Z" fill="#5BBBAF"/>
<path d="M204.015 157.341C204.015 157.341 162.605 219.954 167.106 286.152C162.668 264.795 157.204 243.132 150.398 221.44C150.389 221.44 177.909 161.984 204.015 157.341Z" fill="#5BBBAF"/>
<path d="M182.267 398.306C183.167 411.148 183.716 423.479 184.067 435.17C184.277 442.32 184.397 449.219 184.427 455.868C184.752 509.094 180.422 545.345 179.827 550.1H179.737L143.054 551.957C162.589 446.099 154.118 343.622 138.193 261.406C138.189 261.388 138.189 261.369 138.193 261.351C137.456 254.737 136.12 248.208 134.205 241.851C113.185 144.685 83.3887 80.2695 83.3887 80.2695C113.726 124.479 135.249 172.941 150.391 221.413C157.16 243.104 162.661 264.796 167.099 286.125C168.185 291.362 169.211 296.577 170.177 301.771C176.048 333.622 180.082 365.804 182.258 398.148C182.258 398.231 182.267 398.306 182.267 398.306Z" fill="#5BBBAF"/>
<path d="M138.165 261.481C154.089 343.697 162.56 446.137 143.026 552.031H142.801H102.679C107.774 538.242 111.546 519.086 114.336 496.661C118.468 463.473 120.44 423.136 121.358 382.446C121.943 356.195 122.096 329.796 122.096 305.04C122.096 215.897 76.1855 175.04 76.1855 175.04C112.887 188.857 128.037 221.032 134.168 242.018C135.536 248.369 136.865 254.869 138.156 261.518C138.16 261.506 138.163 261.494 138.165 261.481Z" fill="#5BBBAF"/>
<path d="M134.167 241.962C136.082 248.32 137.417 254.848 138.155 261.462C136.871 254.82 135.541 248.32 134.167 241.962Z" fill="#5BBBAF"/>
<path d="M121.359 382.39C120.459 423.127 118.469 463.464 114.337 496.605C115.122 482.419 115.153 468.2 114.428 454.011C109.575 362.166 72.316 325.051 71.6948 324.438C112.645 347.448 121.17 381.592 121.359 382.39Z" fill="#5BBBAF"/>
<path d="M114.444 454.067C115.169 468.255 115.139 482.475 114.354 496.66C111.564 519.085 107.792 538.242 102.697 552.031H102.31L88.0595 550.174C96.0084 518.831 96.092 485.916 88.3025 454.531C75.9337 404.388 47.9644 373.401 47.4062 372.816C101.391 402.494 114.444 454.067 114.444 454.067Z" fill="#5BBBAF"/>
<path d="M88.0421 550.146C88.0421 550.248 87.9971 550.35 87.9701 550.452L33.2107 550.313L16.7729 538.056C16.7729 538.056 29.3758 534.342 32.9766 534.342C36.0103 534.342 32.0134 522.484 27.4584 520.413H44.6793C44.6793 520.413 35.6772 490.699 24.8748 487.913C24.8748 487.913 35.6772 483.27 52.7811 496.27L43.7791 461.913L56.3819 473.056L63.5835 454.484C63.5835 454.484 64.4838 461.913 80.6874 473.056L88.2851 454.484C96.0777 485.876 95.9941 518.797 88.0421 550.146Z" fill="#ACDCD6"/>
<path d="M150.391 221.441C150.391 221.441 177.91 162.012 204.016 157.369C204.016 157.369 162.606 219.983 167.107 286.181" stroke="#1D6B63" stroke-width="3" stroke-linecap="round" stroke-linejoin="round"/>
<path d="M182.265 398.305V398.78" stroke="#1D6B63" stroke-width="3" stroke-linecap="round" stroke-linejoin="round"/>
<path d="M188.388 331.495C183.779 352.128 180.935 375.017 182.258 398.176" stroke="#1D6B63" stroke-width="3" stroke-linecap="round" stroke-linejoin="round"/>
<path d="M170.176 301.799C170.176 301.799 187.811 255.77 218.418 249.27C218.418 249.27 198.866 284.555 188.396 331.476" stroke="#1D6B63" stroke-width="3" stroke-linecap="round" stroke-linejoin="round"/>
<path d="M71.6948 324.493C72.316 325.106 109.575 362.221 114.428 454.066C115.153 468.255 115.122 482.474 114.338 496.66" stroke="#1D6B63" stroke-width="3" stroke-linecap="round" stroke-linejoin="round"/>
<path d="M121.359 382.39C121.17 381.619 112.636 347.448 71.6948 324.493" stroke="#1D6B63" stroke-width="3" stroke-linecap="round" stroke-linejoin="round"/>
<path d="M47.3784 372.77C101.391 402.484 114.417 454.057 114.417 454.057" stroke="#1D6B63" stroke-width="3" stroke-linecap="round" stroke-linejoin="round"/>
<path d="M27.4584 520.413C32.0134 522.484 36.0103 534.342 32.9766 534.342C29.3758 534.342 16.7729 538.056 16.7729 538.056L33.2107 550.313L87.9701 550.452C87.9701 550.35 88.0241 550.248 88.0421 550.146C95.991 518.803 96.0746 485.889 88.2852 454.503C75.9164 404.36 47.947 373.374 47.3889 372.789" stroke="#1D6B63" stroke-width="3" stroke-linecap="round" stroke-linejoin="round"/>
<path d="M27.4591 520.413H24.8755C25.2774 520.209 25.7194 520.103 26.1673 520.103C26.6152 520.103 27.0572 520.209 27.4591 520.413V520.413Z" stroke="#1D6B63" stroke-width="3" stroke-linecap="round" stroke-linejoin="round"/>
<path d="M88.2858 454.521L80.6881 473.092C64.4844 461.95 63.5842 454.521 63.5842 454.521L56.3826 473.092L43.7798 461.95L52.7818 496.307C35.6779 483.307 24.8755 487.95 24.8755 487.95C35.6779 490.735 44.68 520.45 44.68 520.45H27.4591" stroke="#1D6B63" stroke-width="3" stroke-linecap="round" stroke-linejoin="round"/>
<path d="M188.388 331.496C188.901 330.567 205.491 300.184 242.715 289.218C242.715 289.218 199.91 316.574 184.409 435.217" stroke="#1D6B63" stroke-width="3" stroke-linecap="round" stroke-linejoin="round"/>
<path d="M138.165 261.481C154.09 343.697 162.561 446.138 143.026 552.032L179.709 550.175" stroke="#1D6B63" stroke-width="3" stroke-linecap="round" stroke-linejoin="round"/>
<path d="M184.399 455.878C184.399 455.878 199.514 368.128 237.322 357.914C237.322 357.914 192.501 440.705 210.856 551.131L179.727 550.676C179.727 550.676 179.727 550.5 179.799 550.138C180.393 545.383 184.723 509.132 184.399 455.906C184.363 449.27 184.243 442.37 184.039 435.208C183.715 423.517 183.139 411.186 182.239 398.344C182.239 398.288 182.239 398.232 182.239 398.177C180.063 365.833 176.029 333.651 170.158 301.8C169.192 296.612 168.166 291.397 167.079 286.154C162.641 264.796 157.177 243.133 150.372 221.441C135.23 172.942 113.706 124.48 83.3696 80.2983C83.3696 80.2983 113.166 144.713 134.15 241.991C135.518 248.342 136.848 254.842 138.138 261.491" stroke="#1D6B63" stroke-width="3" stroke-linecap="round" stroke-linejoin="round"/>
<path d="M142.801 551.985H102.679C107.774 538.196 111.546 519.039 114.336 496.614C118.468 463.427 120.44 423.09 121.358 382.4C121.943 356.149 122.096 329.75 122.096 304.994C122.096 215.851 76.1855 174.994 76.1855 174.994C112.887 188.811 128.037 220.986 134.168 241.972C136.083 248.329 137.418 254.858 138.156 261.472C138.151 261.49 138.151 261.509 138.156 261.527V261.574" stroke="#1D6B63" stroke-width="3" stroke-linecap="round" stroke-linejoin="round"/>
<path d="M297.025 552.031C297.025 552.031 299.437 476.816 286.834 446.173C274.231 415.531 254.427 368.173 254.427 339.388C254.427 310.602 259.828 285.53 259.828 264.173C259.828 242.816 241.824 216.816 217.519 210.316" stroke="#1D6B63" stroke-width="3" stroke-linecap="round" stroke-linejoin="round"/>
<path d="M505.782 552.031C505.782 552.031 555.095 482.388 560.496 408.102C565.897 333.816 500.182 357.03 505.584 178.744" stroke="#1D6B63" stroke-width="3" stroke-linecap="round" stroke-linejoin="round"/>
<path d="M590.437 2.42714C590.437 2.42714 614.373 84.2159 588.636 132.669C568.967 171.26 530.186 190.157 502.019 174.872C473.851 159.588 466.965 115.927 486.634 77.3723C512.398 28.9101 589.636 2 589.636 2" fill="#5BBBAF"/>
<path d="M590.437 2.42714C590.437 2.42714 614.373 84.2159 588.636 132.669C568.967 171.26 530.186 190.157 502.019 174.872C473.851 159.588 466.965 115.927 486.634 77.3723C512.398 28.9101 589.636 2 589.636 2" stroke="#1D6B63" stroke-width="3" stroke-linecap="round" stroke-linejoin="round"/>
<path d="M439.266 206.713C439.266 206.713 489.83 215.228 508.942 243.169C524.389 264.935 524.02 292.309 508.131 304.297C492.243 316.285 466.848 308.364 451.419 286.599C432.316 258.648 438.816 207.057 438.816 207.057" fill="#5BBBAF"/>
<path d="M439.266 206.713C439.266 206.713 489.83 215.228 508.942 243.169C524.389 264.935 524.02 292.309 508.131 304.297C492.243 316.285 466.848 308.364 451.419 286.599C432.316 258.648 438.816 207.057 438.816 207.057" stroke="#1D6B63" stroke-width="3" stroke-linecap="round" stroke-linejoin="round"/>
<path d="M603.642 268.723C603.642 268.723 616.038 313.861 601.446 340.224C590.283 361.219 568.823 371.219 553.492 362.556C538.162 353.892 534.786 329.842 545.948 308.847C560.532 282.494 603.192 268.463 603.192 268.463" fill="#5BBBAF"/>
<path d="M603.642 268.723C603.642 268.723 616.038 313.861 601.446 340.224C590.283 361.219 568.823 371.219 553.492 362.556C538.162 353.892 534.786 329.842 545.948 308.847C560.532 282.494 603.192 268.463 603.192 268.463" stroke="#1D6B63" stroke-width="3" stroke-linecap="round" stroke-linejoin="round"/>
<path d="M463.895 391.703C463.895 391.703 508.131 380.774 533.058 396.894C552.934 409.253 561.747 431.79 552.727 447.232C543.707 462.674 520.32 465.172 500.398 452.804C475.463 436.693 463.625 392.158 463.625 392.158" fill="#5BBBAF"/>
<path d="M463.895 391.703C463.895 391.703 508.131 380.774 533.058 396.894C552.934 409.253 561.747 431.79 552.727 447.232C543.707 462.674 520.32 465.172 500.398 452.804C475.463 436.693 463.625 392.158 463.625 392.158" stroke="#1D6B63" stroke-width="3" stroke-linecap="round" stroke-linejoin="round"/>
<path d="M352.601 550.23V331.913C352.601 331.913 298.535 344.913 294.034 258.556C289.533 172.198 323.741 186.127 323.741 186.127C323.741 186.127 344.446 183.341 340.845 242.77C340.845 242.77 339.945 265.056 352.547 266.913C365.15 268.77 355.248 187.984 357.949 163.841C360.649 139.698 374.152 129.484 392.156 129.484C410.16 129.484 430.865 124.841 428.164 262.27C428.164 262.27 426.364 293.841 436.266 296.627C446.169 299.413 451.57 271.556 460.572 269.698C469.574 267.841 480.376 265.984 480.376 296.627C480.376 327.27 474.975 347.699 450.67 353.27C426.364 358.841 426.364 359.77 426.364 392.27V551.325" fill="#ACDCD6"/>
<path d="M352.601 550.23V331.913C352.601 331.913 298.535 344.913 294.034 258.556C289.533 172.198 323.741 186.127 323.741 186.127C323.741 186.127 344.446 183.341 340.845 242.77C340.845 242.77 339.945 265.056 352.547 266.913C365.15 268.77 355.248 187.984 357.949 163.841C360.649 139.698 374.152 129.484 392.156 129.484C410.16 129.484 430.865 124.841 428.164 262.27C428.164 262.27 426.364 293.841 436.266 296.627C446.169 299.413 451.57 271.556 460.572 269.698C469.574 267.841 480.376 265.984 480.376 296.627C480.376 327.27 474.975 347.699 450.67 353.27C426.364 358.841 426.364 359.77 426.364 392.27V551.325" stroke="#1D6B63" stroke-width="3" stroke-linecap="round" stroke-linejoin="round"/>
<path d="M583.341 501.775C582.783 501.822 582.216 501.84 581.649 501.84C566.984 501.84 555.093 487.29 555.093 469.34C555.093 455.978 561.682 444.501 571.098 439.505L571.008 439.58C568.819 436.855 567.644 433.414 567.696 429.876C567.654 427.842 568.028 425.823 568.793 423.948C569.557 422.073 570.695 420.385 572.134 418.993C571.589 418.066 571.297 417.004 571.287 415.919C571.287 411.564 576.122 408.027 582.09 408.027C583.618 408.024 585.137 408.268 586.591 408.751C586.591 408.509 586.591 408.268 586.591 408.027C586.533 405.872 587.306 403.782 588.741 402.215C590.175 400.648 592.154 399.733 594.243 399.669C596.139 399.715 597.955 400.472 599.35 401.798C600.745 403.124 601.624 404.929 601.822 406.875H601.894C603.615 405.249 605.862 404.342 608.196 404.331C613.669 404.331 618.098 409.317 618.098 415.474C618.115 418.226 617.191 420.896 615.487 423.014C615.904 422.947 616.326 422.913 616.748 422.912C621.474 422.912 625.3 427.276 625.3 432.662C625.29 434.128 624.983 435.577 624.399 436.915C629.459 437.462 633.401 440.963 633.401 445.197C633.395 446.561 632.997 447.892 632.258 449.023C632.786 448.948 633.319 448.911 633.852 448.912C641.053 448.912 646.905 455.56 646.905 463.769C646.905 470.269 643.304 475.738 638.2 477.781" fill="#D6EEEB"/>
<path d="M583.341 501.775C582.783 501.822 582.216 501.84 581.649 501.84C566.984 501.84 555.093 487.29 555.093 469.34C555.093 455.978 561.682 444.501 571.098 439.505L571.008 439.58C568.819 436.855 567.644 433.414 567.696 429.876C567.654 427.842 568.028 425.823 568.793 423.948C569.557 422.073 570.695 420.385 572.134 418.993C571.589 418.066 571.297 417.004 571.287 415.919C571.287 411.564 576.122 408.027 582.09 408.027C583.618 408.024 585.137 408.268 586.591 408.751V408.751C586.591 408.509 586.591 408.268 586.591 408.027C586.533 405.872 587.306 403.782 588.741 402.215C590.175 400.648 592.154 399.733 594.243 399.669C596.139 399.715 597.955 400.472 599.35 401.798C600.745 403.124 601.624 404.929 601.822 406.875H601.894C603.615 405.249 605.862 404.342 608.196 404.331C613.669 404.331 618.098 409.317 618.098 415.474C618.115 418.226 617.191 420.896 615.487 423.014V423.014C615.904 422.947 616.326 422.913 616.748 422.912C621.474 422.912 625.3 427.276 625.3 432.662C625.29 434.128 624.983 435.577 624.399 436.915V436.915C629.459 437.462 633.401 440.963 633.401 445.197C633.395 446.561 632.997 447.892 632.258 449.023V449.023C632.786 448.948 633.319 448.911 633.852 448.912C641.053 448.912 646.905 455.56 646.905 463.769C646.905 470.269 643.304 475.738 638.2 477.781" stroke="#1D6B63" stroke-width="3" stroke-linecap="round" stroke-linejoin="round"/>
<path d="M658.068 517.219C660.047 518.592 661.638 520.48 662.679 522.692C663.721 524.905 664.177 527.362 663.999 529.815C663.822 532.267 663.018 534.628 661.669 536.656C660.321 538.684 658.476 540.308 656.322 541.362C656.322 541.362 667.862 548.243 661.894 551.976L583.774 551.772C583.774 551.772 585.701 546.423 588.401 545.494C590.298 544.78 592.11 543.846 593.802 542.709C591.217 542.71 588.685 541.945 586.509 540.505C584.332 539.065 582.602 537.011 581.524 534.587C580.446 532.163 580.065 529.47 580.428 526.829C580.79 524.188 581.879 521.71 583.567 519.689C581.757 518.18 580.446 516.128 579.813 513.818C579.181 511.507 579.258 509.052 580.035 506.788C580.812 504.525 582.251 502.567 584.152 501.182C586.053 499.797 588.324 499.054 590.652 499.056C591.163 499.058 591.674 499.092 592.182 499.159V499.056C592.055 498.29 591.992 497.513 591.993 496.735C591.993 494.132 592.724 491.585 594.098 489.402C595.472 487.219 597.43 485.493 599.735 484.434C602.04 483.375 604.593 483.027 607.085 483.434C609.578 483.841 611.902 484.984 613.778 486.725C614.894 480.039 621.241 474.914 628.901 474.914C637.354 474.914 644.205 481.154 644.205 488.842C644.205 489.332 644.178 489.822 644.124 490.309H643.944C646.123 488.991 648.694 488.541 651.173 489.042C653.652 489.544 655.867 490.963 657.402 493.033C658.937 495.102 659.686 497.679 659.506 500.279C659.327 502.878 658.233 505.32 656.43 507.144L656.132 506.921C657.755 508.051 658.896 509.778 659.323 511.748C659.75 513.718 659.43 515.782 658.428 517.517" fill="#D6EEEB"/>
<path d="M658.068 517.219C660.047 518.592 661.638 520.48 662.679 522.692C663.721 524.905 664.177 527.362 663.999 529.815C663.822 532.267 663.018 534.628 661.669 536.656C660.321 538.684 658.476 540.308 656.322 541.362C656.322 541.362 667.862 548.243 661.894 551.976L583.774 551.772C583.774 551.772 585.701 546.423 588.401 545.494C590.298 544.78 592.11 543.846 593.802 542.709C591.217 542.71 588.685 541.945 586.509 540.505C584.332 539.065 582.602 537.011 581.524 534.587C580.446 532.163 580.065 529.47 580.428 526.829C580.79 524.188 581.879 521.71 583.567 519.689C581.757 518.18 580.446 516.128 579.813 513.818C579.181 511.507 579.258 509.052 580.035 506.788C580.812 504.525 582.251 502.567 584.152 501.182C586.053 499.797 588.324 499.054 590.652 499.056C591.163 499.058 591.674 499.092 592.182 499.159V499.056C592.055 498.29 591.992 497.513 591.993 496.735C591.993 494.132 592.724 491.585 594.098 489.402C595.472 487.219 597.43 485.493 599.735 484.434C602.04 483.375 604.593 483.027 607.085 483.434C609.578 483.841 611.902 484.984 613.778 486.725V486.725C614.894 480.039 621.241 474.914 628.901 474.914C637.354 474.914 644.205 481.154 644.205 488.842C644.205 489.332 644.178 489.822 644.124 490.309H643.944C646.123 488.991 648.694 488.541 651.173 489.042C653.652 489.544 655.867 490.963 657.402 493.033C658.937 495.102 659.686 497.679 659.506 500.279C659.327 502.878 658.233 505.32 656.43 507.144L656.132 506.921C657.755 508.051 658.896 509.778 659.323 511.748C659.75 513.718 659.43 515.782 658.428 517.517" stroke="#1D6B63" stroke-width="3" stroke-linecap="round" stroke-linejoin="round"/>
<path d="M281.322 303.961C288.012 294.847 289.344 284.264 284.298 280.324C279.252 276.383 269.739 280.576 263.05 289.69C256.36 298.804 255.028 309.386 260.074 313.327C265.12 317.268 274.633 313.074 281.322 303.961Z" fill="#ACDCD6" stroke="#1D6B63" stroke-width="3" stroke-linecap="round" stroke-linejoin="round"/>
<path d="M286.606 372.207C290.232 361.405 288.324 350.917 282.343 348.781C276.363 346.645 268.575 353.67 264.949 364.471C261.322 375.273 263.231 385.762 269.212 387.898C275.192 390.034 282.98 383.009 286.606 372.207Z" fill="#ACDCD6" stroke="#1D6B63" stroke-width="3" stroke-linecap="round" stroke-linejoin="round"/>
<path d="M311.815 443.707C315.441 432.905 313.533 422.417 307.552 420.28C301.572 418.144 293.784 425.169 290.158 435.971C286.531 446.773 288.44 457.261 294.42 459.397C300.401 461.533 308.189 454.509 311.815 443.707Z" fill="#ACDCD6" stroke="#1D6B63" stroke-width="3" stroke-linecap="round" stroke-linejoin="round"/>
<path d="M322.137 502.266C328.426 492.854 329.301 482.221 324.09 478.516C318.879 474.81 309.556 479.436 303.267 488.848C296.977 498.26 296.103 508.893 301.313 512.598C306.524 516.303 315.847 511.677 322.137 502.266Z" fill="#ACDCD6" stroke="#1D6B63" stroke-width="3" stroke-linecap="round" stroke-linejoin="round"/>
<path d="M294.015 538.346C297.622 532.992 293.18 523.37 284.093 516.855C275.006 510.339 264.715 509.397 261.107 514.75C257.5 520.103 261.942 529.725 271.029 536.241C280.116 542.756 290.407 543.699 294.015 538.346Z" fill="#ACDCD6" stroke="#1D6B63" stroke-width="3" stroke-linecap="round" stroke-linejoin="round"/>
<path d="M273.645 418.975C276.056 412.939 269.706 404.515 259.46 400.159C249.214 395.803 238.953 397.164 236.542 403.2C234.13 409.236 240.481 417.66 250.726 422.016C260.972 426.372 271.233 425.011 273.645 418.975Z" fill="#ACDCD6" stroke="#1D6B63" stroke-width="3" stroke-linecap="round" stroke-linejoin="round"/>
<path d="M240.474 276.045C251.452 274.479 259.648 267.968 258.782 261.501C257.915 255.034 248.313 251.061 237.336 252.626C226.358 254.191 218.162 260.702 219.029 267.169C219.895 273.636 229.497 277.61 240.474 276.045Z" fill="#ACDCD6" stroke="#1D6B63" stroke-width="3" stroke-linecap="round" stroke-linejoin="round"/>
<path d="M250.689 348.856C255.809 345.019 254.679 334.411 248.165 325.163C241.652 315.915 232.22 311.529 227.1 315.366C221.98 319.203 223.11 329.811 229.623 339.059C236.137 348.307 245.568 352.693 250.689 348.856Z" fill="#ACDCD6" stroke="#1D6B63" stroke-width="3" stroke-linecap="round" stroke-linejoin="round"/>
<path d="M82.5146 537.396V430.453H252.59V537.396" fill="#BFE7F3"/>
<path d="M82.5146 537.396V430.453H252.59V537.396" stroke="#012A5D" stroke-width="4" stroke-linecap="round" stroke-linejoin="round"/>
<path d="M239.187 443.611H95.9282V523.905H239.187V443.611Z" fill="#BFE7F3" stroke="#012A5D" stroke-width="3" stroke-linecap="round" stroke-linejoin="round"/>
<path d="M69.4346 537.396H265.679L252.59 560.342H82.5145L69.4346 537.396Z" fill="#BFE7F3" stroke="#012A5D" stroke-width="4" stroke-linecap="round" stroke-linejoin="round"/>
<path d="M393.509 398.844H261.017V411.9H393.509V398.844Z" fill="#BFE7F3" stroke="#012A5D" stroke-width="3" stroke-linecap="round" stroke-linejoin="round"/>
<path d="M261.017 398.844L291.975 350.484H362.551L393.509 398.844" fill="#BFE7F3"/>
<path d="M261.017 398.844L291.975 350.484H362.551L393.509 398.844" stroke="#012A5D" stroke-width="3" stroke-linecap="round" stroke-linejoin="round"/>
<path d="M595.451 441.188H611.502V560.342H402.511V441.188H418.561" fill="#BFE7F3"/>
<path d="M595.451 441.188H611.502V560.342H402.511V441.188H418.561" stroke="#012A5D" stroke-width="4" stroke-linecap="round" stroke-linejoin="round"/>
<path d="M418.56 429.822H507.004H595.449V543.461H418.56V429.822Z" fill="#BFE7F3" stroke="#012A5D" stroke-width="3" stroke-linecap="round" stroke-linejoin="round"/>
<path d="M507.006 543.461V429.822" stroke="#012A5D" stroke-width="3" stroke-linecap="round" stroke-linejoin="round"/>
<path d="M555.769 455.171L548.027 481.283L573.332 473.297L617.658 427.583L600.086 409.458L555.769 455.171Z" fill="#BFE7F3" stroke="#012A5D" stroke-width="3" stroke-linecap="round" stroke-linejoin="round"/>
<path d="M176.451 497.013V505.565C176.451 506.275 176.178 506.955 175.691 507.456C175.205 507.958 174.546 508.24 173.858 508.24H161.255C160.568 508.24 159.908 507.958 159.422 507.456C158.936 506.955 158.663 506.275 158.663 505.565V497.013C155.541 495.018 153.134 492.027 151.808 488.494C150.482 484.962 150.309 481.079 151.314 477.435C152.32 473.792 154.449 470.585 157.38 468.303C160.312 466.02 163.884 464.785 167.557 464.785C171.229 464.785 174.802 466.02 177.733 468.303C180.664 470.585 182.794 473.792 183.799 477.435C184.805 481.079 184.632 484.962 183.305 488.494C181.979 492.027 179.573 495.018 176.451 497.013Z" fill="#FFFABF" stroke="#012A5D" stroke-width="3" stroke-linecap="round" stroke-linejoin="round"/>
<path d="M176.487 500.959H158.699" stroke="#012A5D" stroke-width="3" stroke-linecap="round" stroke-linejoin="round"/>
<path d="M164.505 500.941V487.245" stroke="#012A5D" stroke-width="3" stroke-linecap="round" stroke-linejoin="round"/>
<path d="M170.679 501.006V487.309" stroke="#012A5D" stroke-width="3" stroke-linecap="round" stroke-linejoin="round"/>
<path d="M318.575 541.919V411.909H336.444V541.919" fill="#BFE7F3"/>
<path d="M318.575 541.919V411.909H336.444V541.919" stroke="#012A5D" stroke-width="3" stroke-linecap="round" stroke-linejoin="round"/>
<path d="M283.844 541.918V560.341H371.173V541.918H283.844Z" fill="#BFE7F3" stroke="#012A5D" stroke-width="3" stroke-linecap="round" stroke-linejoin="round"/>
</svg>
