<svg width="124" height="129" viewBox="0 0 124 129" fill="none" xmlns="http://www.w3.org/2000/svg">
<path d="M109.152 55.8728L121.828 68.5482L107.333 68.7968V104.79H91.0288V126.53H29.2669V101.408V101.42C21.0639 96.7517 14.2436 89.994 9.49998 81.8343C4.75634 73.6745 2.25857 64.404 2.26074 54.9656C2.26074 25.4491 26.19 1.52979 55.6965 1.52979C85.203 1.52979 109.132 25.4591 109.132 54.9656" fill="#D6EEEB"/>
<path d="M109.152 55.8728L121.828 68.5482L107.333 68.7968V104.79H91.0288V126.53H29.2669V101.408V101.42C21.0639 96.7517 14.2436 89.994 9.49998 81.8343C4.75634 73.6745 2.25857 64.404 2.26074 54.9656C2.26074 25.4491 26.19 1.52979 55.6965 1.52979C85.203 1.52979 109.132 25.4591 109.132 54.9656" stroke="#012A5D" stroke-width="3" stroke-linecap="round" stroke-linejoin="round"/>
<path d="M29.9299 31.2135L49.9635 33.0774L64.8722 32.1456L66.7357 22.3615L84.2071 32.8444L75.821 40.2988L87.9341 46.3555L70.2301 50.0825L57.1849 51.4801L57.6508 40.2988L45.0715 47.2872L37.1513 39.8329L22.7084 45.4234L29.9299 31.2135Z" stroke="#012A5D" stroke-miterlimit="10"/>
<path d="M66.9685 22.1286H46.9352L30.1626 30.9806" stroke="#012A5D" stroke-miterlimit="10"/>
<path d="M48.3328 68.2527L37.617 71.9797L32.9583 68.2527L26.4357 60.3324L22.7083 45.4234L35.7535 54.7416L45.0714 47.2872L57.1848 51.4801L52.0598 60.3324L48.3328 68.2527ZM48.3328 68.2527L44.1396 73.8435L43.1985 74.6503L37.617 79.434V71.9797L44.1396 73.8435" stroke="#012A5D" stroke-miterlimit="10"/>
<path d="M57.1844 51.4802L67.4343 60.3325H52.0594L35.7531 54.7417L32.9578 68.2528L52.0594 60.3325" stroke="#012A5D" stroke-miterlimit="10"/>
<path d="M35.7534 54.7416L26.4354 60.3324" stroke="#012A5D" stroke-miterlimit="10"/>
<path d="M37.1516 39.8329L50.2098 33.0619L57.5489 40.401L65.1055 31.9126L75.8213 40.2987L71.4135 50.0962L65.1055 31.9126" stroke="#012A5D" stroke-miterlimit="10"/>
<path d="M57.4179 40.5316H75.5879" stroke="#012A5D" stroke-miterlimit="10"/>
<path d="M84.2071 32.8448L87.9341 46.3558L81.4118 53.8102L71.6278 50.0828L67.4349 60.3328" stroke="#012A5D" stroke-miterlimit="10"/>
<path d="M47.1677 21.8957L49.9631 33.0773" stroke="#012A5D" stroke-miterlimit="10"/>
<path d="M66.7366 25.1576C65.1927 25.1576 63.9412 23.9061 63.9412 22.3623C63.9412 20.8184 65.1927 19.5669 66.7366 19.5669C68.2804 19.5669 69.532 20.8184 69.532 22.3623C69.532 23.9061 68.2804 25.1576 66.7366 25.1576Z" fill="#012A5D" stroke="#012A5D" stroke-miterlimit="10"/>
<path d="M46.7036 24.6918C45.1598 24.6918 43.9082 23.4403 43.9082 21.8964C43.9082 20.3526 45.1598 19.101 46.7036 19.101C48.2475 19.101 49.499 20.3526 49.499 21.8964C49.499 23.4403 48.2475 24.6918 46.7036 24.6918Z" fill="#012A5D" stroke="#012A5D" stroke-miterlimit="10"/>
<path d="M30.3965 34.4758C28.8527 34.4758 27.6011 33.2243 27.6011 31.6804C27.6011 30.1366 28.8527 28.885 30.3965 28.885C31.9404 28.885 33.1919 30.1366 33.1919 31.6804C33.1919 33.2243 31.9404 34.4758 30.3965 34.4758Z" fill="#012A5D" stroke="#012A5D" stroke-miterlimit="10"/>
<path d="M23.4087 48.4524C21.8649 48.4524 20.6133 47.2009 20.6133 45.657C20.6133 44.1132 21.8649 42.8616 23.4087 42.8616C24.9526 42.8616 26.2041 44.1132 26.2041 45.657C26.2041 47.2009 24.9526 48.4524 23.4087 48.4524Z" fill="#012A5D" stroke="#012A5D" stroke-miterlimit="10"/>
<path d="M35.9873 57.3048C34.4435 57.3048 33.1919 56.0532 33.1919 54.5094C33.1919 52.9655 34.4435 51.714 35.9873 51.714C37.5312 51.714 38.7827 52.9655 38.7827 54.5094C38.7827 56.0532 37.5312 57.3048 35.9873 57.3048Z" fill="#012A5D" stroke="#012A5D" stroke-miterlimit="10"/>
<path d="M26.203 62.8952C24.9164 62.8952 23.8735 61.8522 23.8735 60.5657C23.8735 59.2792 24.9164 58.2362 26.203 58.2362C27.4895 58.2362 28.5325 59.2792 28.5325 60.5657C28.5325 61.8522 27.4895 62.8952 26.203 62.8952Z" fill="#012A5D" stroke="#012A5D" stroke-miterlimit="10"/>
<path d="M36.9193 42.3959C35.6327 42.3959 34.5898 41.353 34.5898 40.0664C34.5898 38.7799 35.6327 37.7369 36.9193 37.7369C38.2058 37.7369 39.2488 38.7799 39.2488 40.0664C39.2488 41.353 38.2058 42.3959 36.9193 42.3959Z" fill="#012A5D" stroke="#012A5D" stroke-miterlimit="10"/>
<path d="M44.8395 49.3845C43.5529 49.3845 42.51 48.3415 42.51 47.055C42.51 45.7684 43.5529 44.7255 44.8395 44.7255C46.126 44.7255 47.1689 45.7684 47.1689 47.055C47.1689 48.3415 46.126 49.3845 44.8395 49.3845Z" fill="#012A5D" stroke="#012A5D" stroke-miterlimit="10"/>
<path d="M57.4188 43.3276C56.1323 43.3276 55.0893 42.2846 55.0893 40.9981C55.0893 39.7116 56.1323 38.6686 57.4188 38.6686C58.7053 38.6686 59.7483 39.7116 59.7483 40.9981C59.7483 42.2846 58.7053 43.3276 57.4188 43.3276Z" fill="#012A5D" stroke="#012A5D" stroke-miterlimit="10"/>
<path d="M56.953 54.0433C55.6664 54.0433 54.6235 53.0004 54.6235 51.7138C54.6235 50.4273 55.6664 49.3843 56.953 49.3843C58.2395 49.3843 59.2825 50.4273 59.2825 51.7138C59.2825 53.0004 58.2395 54.0433 56.953 54.0433Z" fill="#012A5D" stroke="#012A5D" stroke-miterlimit="10"/>
<path d="M75.5885 42.3959C74.3019 42.3959 73.259 41.353 73.259 40.0664C73.259 38.7799 74.3019 37.7369 75.5885 37.7369C76.875 37.7369 77.918 38.7799 77.918 40.0664C77.918 41.353 76.875 42.3959 75.5885 42.3959Z" fill="#012A5D" stroke="#012A5D" stroke-miterlimit="10"/>
<path d="M64.6403 34.0094C63.4824 34.0094 62.5437 33.0707 62.5437 31.9128C62.5437 30.7549 63.4824 29.8163 64.6403 29.8163C65.7982 29.8163 66.7368 30.7549 66.7368 31.9128C66.7368 33.0707 65.7982 34.0094 64.6403 34.0094Z" fill="#012A5D" stroke="#012A5D" stroke-miterlimit="10"/>
<path d="M49.7316 34.9415C48.5737 34.9415 47.635 34.0028 47.635 32.845C47.635 31.6871 48.5737 30.7484 49.7316 30.7484C50.8895 30.7484 51.8281 31.6871 51.8281 32.845C51.8281 34.0028 50.8895 34.9415 49.7316 34.9415Z" fill="#012A5D" stroke="#012A5D" stroke-miterlimit="10"/>
<path d="M32.7267 70.35C31.4401 70.35 30.3972 69.3071 30.3972 68.0205C30.3972 66.734 31.4401 65.691 32.7267 65.691C34.0132 65.691 35.0562 66.734 35.0562 68.0205C35.0562 69.3071 34.0132 70.35 32.7267 70.35Z" fill="#012A5D" stroke="#012A5D" stroke-miterlimit="10"/>
<path d="M37.3852 74.0771C36.356 74.0771 35.5216 73.2427 35.5216 72.2135C35.5216 71.1843 36.356 70.3499 37.3852 70.3499C38.4144 70.3499 39.2488 71.1843 39.2488 72.2135C39.2488 73.2427 38.4144 74.0771 37.3852 74.0771Z" fill="#012A5D" stroke="#012A5D" stroke-miterlimit="10"/>
<path d="M49.0319 69.8841C48.0027 69.8841 47.1683 69.0497 47.1683 68.0205C47.1683 66.9912 48.0027 66.1569 49.0319 66.1569C50.0612 66.1569 50.8955 66.9912 50.8955 68.0205C50.8955 69.0497 50.0612 69.8841 49.0319 69.8841Z" fill="#012A5D" stroke="#012A5D" stroke-miterlimit="10"/>
<path d="M43.4411 75.4746C42.4119 75.4746 41.5775 74.6403 41.5775 73.611C41.5775 72.5818 42.4119 71.7474 43.4411 71.7474C44.4703 71.7474 45.3047 72.5818 45.3047 73.611C45.3047 74.6403 44.4703 75.4746 43.4411 75.4746Z" fill="#012A5D" stroke="#012A5D" stroke-miterlimit="10"/>
<path d="M37.3852 80.5998C36.356 80.5998 35.5216 79.7654 35.5216 78.7362C35.5216 77.7069 36.356 76.8726 37.3852 76.8726C38.4144 76.8726 39.2488 77.7069 39.2488 78.7362C39.2488 79.7654 38.4144 80.5998 37.3852 80.5998Z" fill="#012A5D" stroke="#012A5D" stroke-miterlimit="10"/>
<path d="M51.8279 63.3612C50.284 63.3612 49.0325 62.1096 49.0325 60.5658C49.0325 59.0219 50.284 57.7704 51.8279 57.7704C53.3717 57.7704 54.6233 59.0219 54.6233 60.5658C54.6233 62.1096 53.3717 63.3612 51.8279 63.3612Z" fill="#012A5D" stroke="#012A5D" stroke-miterlimit="10"/>
<path d="M66.7366 62.8953C65.1927 62.8953 63.9412 61.6438 63.9412 60.0999C63.9412 58.5561 65.1927 57.3045 66.7366 57.3045C68.2804 57.3045 69.532 58.5561 69.532 60.0999C69.532 61.6438 68.2804 62.8953 66.7366 62.8953Z" fill="#012A5D" stroke="#012A5D" stroke-miterlimit="10"/>
<path d="M81.1795 56.3726C79.6356 56.3726 78.3841 55.1211 78.3841 53.5772C78.3841 52.0334 79.6356 50.7819 81.1795 50.7819C82.7233 50.7819 83.9749 52.0334 83.9749 53.5772C83.9749 55.1211 82.7233 56.3726 81.1795 56.3726Z" fill="#012A5D" stroke="#012A5D" stroke-miterlimit="10"/>
<path d="M71.396 52.6459C69.8522 52.6459 68.6006 51.3944 68.6006 49.8505C68.6006 48.3067 69.8522 47.0551 71.396 47.0551C72.9399 47.0551 74.1914 48.3067 74.1914 49.8505C74.1914 51.3944 72.9399 52.6459 71.396 52.6459Z" fill="#012A5D" stroke="#012A5D" stroke-miterlimit="10"/>
<path d="M87.7022 49.3841C86.1583 49.3841 84.9068 48.1326 84.9068 46.5887C84.9068 45.0449 86.1583 43.7933 87.7022 43.7933C89.246 43.7933 90.4976 45.0449 90.4976 46.5887C90.4976 48.1326 89.246 49.3841 87.7022 49.3841Z" fill="#012A5D" stroke="#012A5D" stroke-miterlimit="10"/>
<path d="M83.9754 35.4071C82.4315 35.4071 81.18 34.1555 81.18 32.6117C81.18 31.0678 82.4315 29.8163 83.9754 29.8163C85.5192 29.8163 86.7708 31.0678 86.7708 32.6117C86.7708 34.1555 85.5192 35.4071 83.9754 35.4071Z" fill="#012A5D" stroke="#012A5D" stroke-miterlimit="10"/>
</svg>
