<svg width="240" height="163" viewBox="0 0 240 163" fill="none" xmlns="http://www.w3.org/2000/svg">
<path d="M83.386 71.4954C102.534 71.7922 117.928 82.1127 117.928 94.7981V135.812H4V94.8076C4 81.9213 19.8542 71.4858 39.4231 71.4858" fill="#5BBCB0"/>
<path d="M83.386 71.4954C102.534 71.7922 117.928 82.1127 117.928 94.7981V135.812H4V94.8076C4 81.9213 19.8542 71.4858 39.4231 71.4858" stroke="#1C2F5B" stroke-width="7" stroke-linecap="round" stroke-linejoin="round"/>
<path d="M24.4019 41.4528C24.4019 20.7637 40.9358 4 61.3281 4C81.7203 4 98.2638 20.7637 98.2638 41.4528C98.2638 62.1418 81.7203 78.8959 61.3281 78.8959C40.9358 78.8959 24.4019 62.1322 24.4019 41.4528Z" fill="#5BBCB0" stroke="#1C2F5B" stroke-width="7" stroke-linecap="round" stroke-linejoin="round"/>
<path d="M201.164 71.4954C220.311 71.7922 235.715 82.1127 235.715 94.7981V135.812H121.787V94.8076C121.787 81.9213 137.641 71.4858 157.21 71.4858" fill="#5BBCB0"/>
<path d="M201.164 71.4954C220.311 71.7922 235.715 82.1127 235.715 94.7981V135.812H121.787V94.8076C121.787 81.9213 137.641 71.4858 157.21 71.4858" stroke="#1C2F5B" stroke-width="7" stroke-linecap="round" stroke-linejoin="round"/>
<path d="M142.189 41.4528C142.189 20.7637 158.723 4 179.115 4C199.507 4 216.041 20.7637 216.041 41.4528C216.041 62.1418 199.507 78.8959 179.115 78.8959C158.723 78.8959 142.189 62.1322 142.189 41.4528Z" fill="#5BBCB0" stroke="#1C2F5B" stroke-width="7" stroke-linecap="round" stroke-linejoin="round"/>
<path d="M140.351 94.6829C159.498 94.9797 174.902 105.3 174.902 117.995V159H60.9741V117.995C60.9741 105.118 76.8284 94.6733 96.3972 94.6733" fill="#ADDDD7"/>
<path d="M140.351 94.6829C159.498 94.9797 174.902 105.3 174.902 117.995V159H60.9741V117.995C60.9741 105.118 76.8284 94.6733 96.3972 94.6733" stroke="#1C2F5B" stroke-width="7" stroke-linecap="round" stroke-linejoin="round"/>
<path d="M81.376 64.6404C81.376 43.961 97.9099 27.1973 118.302 27.1973C138.694 27.1973 155.228 43.961 155.228 64.6404C155.228 85.3199 138.656 102.084 118.302 102.084C97.9482 102.084 81.376 85.3199 81.376 64.6404Z" fill="#ADDDD7" stroke="#1C2F5B" stroke-width="7" stroke-linecap="round" stroke-linejoin="round"/>
</svg>
