<svg width="143" height="131" viewBox="0 0 143 131" fill="none" xmlns="http://www.w3.org/2000/svg">
<path d="M129.621 22.3425C135.092 22.3425 139.527 17.9072 139.527 12.4361C139.527 6.965 135.092 2.52979 129.621 2.52979C124.15 2.52979 119.714 6.965 119.714 12.4361C119.714 17.9072 124.15 22.3425 129.621 22.3425Z" fill="#C7E4EF" stroke="#012A5D" stroke-width="5" stroke-linecap="round" stroke-linejoin="round"/>
<path d="M12.9063 127.53C18.3775 127.53 22.8127 123.095 22.8127 117.623C22.8127 112.152 18.3775 107.717 12.9063 107.717C7.43522 107.717 3 112.152 3 117.623C3 123.095 7.43522 127.53 12.9063 127.53Z" fill="#ADDDD7" stroke="#012A5D" stroke-width="5" stroke-linecap="round" stroke-linejoin="round"/>
<path d="M12.7261 107.717V24.0505C12.7261 20.4447 14.1585 16.9866 16.7082 14.4369C19.2579 11.8872 22.716 10.4548 26.3218 10.4548H28.309C31.9148 10.4548 35.373 11.8872 37.9227 14.4369C40.4723 16.9866 41.9047 20.4447 41.9047 24.0505V75.0291C41.9047 78.6349 43.3372 82.093 45.8868 84.6427C48.4365 87.1924 51.8947 88.6248 55.5005 88.6248H81.0014C83.4496 88.6248 85.8523 87.9638 87.9559 86.7115C90.0596 85.4592 91.786 83.6621 92.953 81.51L125.519 21.4529" stroke="#012A5D" stroke-width="5" stroke-linecap="round" stroke-linejoin="round"/>
</svg>
