<svg width="122" height="106" viewBox="0 0 122 106" fill="none" xmlns="http://www.w3.org/2000/svg">
<path d="M81.6504 46.7125C94.1273 46.7125 104.242 36.598 104.242 24.1211C104.242 11.6443 94.1273 1.52979 81.6504 1.52979C69.1736 1.52979 59.0591 11.6443 59.0591 24.1211C59.0591 36.598 69.1736 46.7125 81.6504 46.7125Z" fill="#C7E4EF" stroke="#1B2E5B" stroke-width="3" stroke-linecap="round" stroke-linejoin="round"/>
<path d="M18.3753 70.5915H2V103.624H18.3753V70.5915Z" fill="#5BBCB0" stroke="#1B2E5B" stroke-width="4" stroke-linecap="round" stroke-linejoin="round"/>
<path d="M19.2583 76.5203C19.2583 76.5203 41.2802 64.38 59.3495 69.1797L73.7484 69.7443C73.7484 69.7443 81.6537 68.8973 81.6537 74.544C81.6537 80.1906 79.9598 82.1669 73.7484 82.1669H49.4679" stroke="#1B2E5B" stroke-width="4" stroke-linecap="round" stroke-linejoin="round"/>
<path d="M18.4111 98.8248C18.4111 98.8248 118.357 118.588 119.768 65.2273C119.768 65.2273 120.333 57.0397 110.734 57.0397C101.135 57.0397 103.111 63.5333 98.3112 68.6153C95.556 71.5326 81.4787 73.1971 81.4787 73.1971" stroke="#1B2E5B" stroke-width="4" stroke-linecap="round" stroke-linejoin="round"/>
<path d="M90.2304 29.4031L94.8858 24.7476C95.4492 24.1842 95.8961 23.5154 96.2011 22.7792C96.506 22.0431 96.6629 21.2541 96.6629 20.4573C96.6629 19.6606 96.506 18.8716 96.2011 18.1355C95.8961 17.3993 95.4492 16.7305 94.8858 16.1671L94.8858 16.167C93.748 15.0292 92.2047 14.39 90.5955 14.39C88.9864 14.39 87.4431 15.0292 86.3052 16.167L81.6498 20.8225L76.9944 16.167C75.8565 15.0292 74.3133 14.39 72.7041 14.39C71.0949 14.39 69.5517 15.0292 68.4138 16.167L68.4138 16.1671C67.8504 16.7305 67.4035 17.3993 67.0986 18.1355C66.7936 18.8716 66.6367 19.6606 66.6367 20.4573C66.6367 21.2541 66.7936 22.0431 67.0986 22.7792C67.4035 23.5154 67.8504 24.1842 68.4138 24.7476L81.6498 37.9836L90.2304 29.4031Z" fill="#5BBCB0" stroke="#1B2E5B" stroke-linecap="round" stroke-linejoin="round"/>
<path d="M37.5652 59.3636C45.6573 59.3636 52.2173 52.8037 52.2173 44.7115C52.2173 36.6194 45.6573 30.0594 37.5652 30.0594C29.4731 30.0594 22.9131 36.6194 22.9131 44.7115C22.9131 52.8037 29.4731 59.3636 37.5652 59.3636Z" fill="#90CCE1" stroke="#1B2E5B" stroke-width="3" stroke-linecap="round" stroke-linejoin="round"/>
<path d="M37.63 37.4179L39.9609 42.1409L45.173 42.8982L41.4014 46.5745L42.2918 51.7655L37.63 49.3146L32.9681 51.7655L33.8585 46.5745L30.0869 42.8982L35.299 42.1409L37.63 37.4179Z" fill="#F4F5CD" stroke="#1B2E5B" stroke-linecap="round" stroke-linejoin="round"/>
</svg>
