<svg width="138" height="143" viewBox="0 0 138 143" fill="none" xmlns="http://www.w3.org/2000/svg">
<path d="M66.1626 92.9424C76.7725 92.9424 85.3735 84.3414 85.3735 73.7315C85.3735 63.1215 76.7725 54.5205 66.1626 54.5205C55.5527 54.5205 46.9517 63.1215 46.9517 73.7315C46.9517 84.3414 55.5527 92.9424 66.1626 92.9424Z" stroke="#1B2E5B" stroke-width="4" stroke-linecap="round" stroke-linejoin="round"/>
<path d="M15.3907 140.969C22.4008 140.969 28.0836 135.287 28.0836 128.276C28.0836 121.266 22.4008 115.583 15.3907 115.583C8.38058 115.583 2.69775 121.266 2.69775 128.276C2.69775 135.287 8.38058 140.969 15.3907 140.969Z" fill="#5BBCB0" stroke="#1B2E5B" stroke-width="4" stroke-linecap="round" stroke-linejoin="round"/>
<path d="M122.423 128.277C129.433 128.277 135.116 122.594 135.116 115.584C135.116 108.574 129.433 102.891 122.423 102.891C115.413 102.891 109.73 108.574 109.73 115.584C109.73 122.594 115.413 128.277 122.423 128.277Z" fill="#C7E4EF" stroke="#1B2E5B" stroke-width="4" stroke-linecap="round" stroke-linejoin="round"/>
<path d="M109.559 48.0026C114.579 48.0026 118.65 43.9324 118.65 38.9117C118.65 33.8909 114.579 29.8208 109.559 29.8208C104.538 29.8208 100.468 33.8909 100.468 38.9117C100.468 43.9324 104.538 48.0026 109.559 48.0026Z" fill="#5BBCB0" stroke="#1B2E5B" stroke-width="4" stroke-linecap="round" stroke-linejoin="round"/>
<path d="M65.9908 137.196C71.0116 137.196 75.0817 133.126 75.0817 128.105C75.0817 123.084 71.0116 119.014 65.9908 119.014C60.97 119.014 56.8999 123.084 56.8999 128.105C56.8999 133.126 60.97 137.196 65.9908 137.196Z" fill="#90CCE1" stroke="#1B2E5B" stroke-width="4" stroke-linecap="round" stroke-linejoin="round"/>
<path d="M11.7886 70.987C16.8094 70.987 20.8795 66.9168 20.8795 61.8961C20.8795 56.8753 16.8094 52.8052 11.7886 52.8052C6.76788 52.8052 2.69775 56.8753 2.69775 61.8961C2.69775 66.9168 6.76788 70.987 11.7886 70.987Z" fill="#C7E4EF" stroke="#1B2E5B" stroke-width="4" stroke-linecap="round" stroke-linejoin="round"/>
<path d="M57.2432 27.7623C64.2534 27.7623 69.9362 22.0795 69.9362 15.0694C69.9362 8.05929 64.2534 2.37646 57.2432 2.37646C50.2331 2.37646 44.5503 8.05929 44.5503 15.0694C44.5503 22.0795 50.2331 27.7623 57.2432 27.7623Z" fill="#90CCE1" stroke="#1B2E5B" stroke-width="4" stroke-linecap="round" stroke-linejoin="round"/>
<path d="M63.2747 54.7363L59.1733 27.7622" stroke="#1B2E5B" stroke-width="4" stroke-linecap="round" stroke-linejoin="round"/>
<path d="M112.239 108.008L81.5771 85.1982" stroke="#1B2E5B" stroke-width="4" stroke-linecap="round" stroke-linejoin="round"/>
<path d="M47.3783 69.6891L20.8794 63.9868" stroke="#1B2E5B" stroke-width="4" stroke-linecap="round" stroke-linejoin="round"/>
<path d="M102.597 44.7559L81.1987 61.7737" stroke="#1B2E5B" stroke-width="4" stroke-linecap="round" stroke-linejoin="round"/>
<path d="M53.0741 87.7925L24.0386 118.986" stroke="#1B2E5B" stroke-width="4" stroke-linecap="round" stroke-linejoin="round"/>
<path d="M66.1626 119.014V92.9424" stroke="#1B2E5B" stroke-width="4" stroke-linecap="round" stroke-linejoin="round"/>
<path d="M61.759 76.7022C59.5313 75.4479 58.0373 73.2327 58.0007 70.6888C57.9433 66.6999 61.4913 63.4134 65.9253 63.3482C70.3592 63.283 74.0002 66.4638 74.0575 70.4527C74.0933 72.9458 72.7209 75.1645 70.604 76.4938L70.5011 76.5574L70.5779 81.8989C70.5963 83.1823 69.4549 84.2396 68.0284 84.2606L64.4635 84.313C63.037 84.334 61.8657 83.3106 61.8472 82.0273L61.7704 76.6858" fill="#F4F5CD"/>
<path d="M61.759 76.7022C59.5313 75.4479 58.0373 73.2327 58.0007 70.6888C57.9433 66.6999 61.4913 63.4134 65.9253 63.3482C70.3592 63.283 74.0002 66.4638 74.0575 70.4527C74.0933 72.9458 72.7209 75.1645 70.604 76.4938L70.5011 76.5574L70.5779 81.8989C70.5963 83.1823 69.4549 84.2396 68.0284 84.2606L64.4635 84.313C63.037 84.334 61.8657 83.3106 61.8472 82.0273L61.7704 76.6858" stroke="#1B2E5B" stroke-width="2" stroke-linecap="round" stroke-linejoin="round"/>
<path d="M64.585 81.5824L67.9922 81.5322" stroke="#1B2E5B" stroke-linecap="round" stroke-linejoin="round"/>
<path d="M64.5645 79.6688L67.9717 79.6187" stroke="#1B2E5B" stroke-linecap="round" stroke-linejoin="round"/>
<path d="M65.2439 76.6774L65.1704 71.5752" stroke="#1B2E5B" stroke-linecap="round" stroke-linejoin="round"/>
<path d="M67.365 76.652L67.2915 71.5498" stroke="#1B2E5B" stroke-linecap="round" stroke-linejoin="round"/>
</svg>
