<svg width="119" height="97" viewBox="0 0 119 97" fill="none" xmlns="http://www.w3.org/2000/svg">
<path d="M58.016 94.728C58.4185 94.9611 58.8753 95.0839 59.3403 95.0839C59.8054 95.0839 60.2622 94.9611 60.6647 94.728C60.6647 94.728 63.2563 93.0399 88.0105 74.8654C112.765 56.6909 116.681 42.6615 116.681 31.8206C116.681 20.9797 110.527 1.52979 90.6677 1.52979C70.8084 1.52979 60.0312 23.7032 60.0312 23.7032C59.6512 24.4851 59.0294 24.4851 58.6494 23.7032C58.6494 23.7032 47.8723 1.52979 28.0129 1.52979C8.15359 1.52979 2 20.9797 2 31.8206C2 42.6615 5.91591 56.6909 30.6701 74.8654C55.4244 93.0399 58.016 94.728 58.016 94.728Z" fill="#5BBCB0"/>
<path d="M58.016 94.728C58.4185 94.9611 58.8753 95.0839 59.3403 95.0839C59.8054 95.0839 60.2622 94.9611 60.6646 94.728C60.6646 94.728 63.2562 93.0399 88.0105 74.8654C112.765 56.6909 116.681 42.6615 116.681 31.8206C116.681 20.9797 110.527 1.52979 90.6677 1.52979C70.8084 1.52979 60.0312 23.7032 60.0312 23.7032C59.6512 24.4851 59.0294 24.4851 58.6494 23.7032C58.6494 23.7032 47.8723 1.52979 28.0129 1.52979C8.15359 1.52979 2 20.9797 2 31.8206C2 42.6615 5.91591 56.6909 30.6701 74.8654C55.4244 93.0399 58.016 94.728 58.016 94.728Z" stroke="#1A2D59" stroke-width="3" stroke-linejoin="round"/>
<path d="M59.3363 44.5592C65.7652 44.5592 70.9768 39.3476 70.9768 32.9187C70.9768 26.4898 65.7652 21.2782 59.3363 21.2782C52.9074 21.2782 47.6958 26.4898 47.6958 32.9187C47.6958 39.3476 52.9074 44.5592 59.3363 44.5592Z" fill="white" stroke="#1A2D59" stroke-width="3" stroke-linejoin="round"/>
<path d="M83.4245 68.4613C83.4245 68.4613 77.5701 50.0615 59.3366 50.0615C41.103 50.0615 35.1143 68.3483 35.1143 68.3483L59.3402 86.6352L83.4245 68.4613Z" fill="white" stroke="#1A2D59" stroke-width="3" stroke-linejoin="round"/>
</svg>
