<svg width="167" height="110" viewBox="0 0 167 110" fill="none" xmlns="http://www.w3.org/2000/svg">
<path d="M163.024 13.5255H3.97583C2.88461 13.5255 2 14.4101 2 15.5013V105.538C2 106.629 2.88461 107.514 3.97583 107.514H163.024C164.115 107.514 165 106.629 165 105.538V15.5013C165 14.4101 164.115 13.5255 163.024 13.5255Z" fill="#5BBCB0"/>
<path d="M163.024 13.5255H3.97583C2.88461 13.5255 2 14.4101 2 15.5013V105.538C2 106.629 2.88461 107.514 3.97583 107.514H163.024C164.115 107.514 165 106.629 165 105.538V15.5013C165 14.4101 164.115 13.5255 163.024 13.5255Z" stroke="#1A2D59" stroke-width="4" stroke-linejoin="round"/>
<path d="M151.621 6.48254H15.3782C14.287 6.48254 13.4023 7.36715 13.4023 8.45837V95.5415C13.4023 96.6328 14.287 97.5174 15.3782 97.5174H151.621C152.712 97.5174 153.596 96.6328 153.596 95.5415V8.45837C153.596 7.36715 152.712 6.48254 151.621 6.48254Z" fill="white"/>
<path d="M151.621 6.48254H15.3782C14.287 6.48254 13.4023 7.36715 13.4023 8.45837V95.5415C13.4023 96.6328 14.287 97.5174 15.3782 97.5174H151.621C152.712 97.5174 153.596 96.6328 153.596 95.5415V8.45837C153.596 7.36715 152.712 6.48254 151.621 6.48254Z" stroke="#1A2D59" stroke-width="4" stroke-linejoin="round"/>
<path d="M83.4995 6.4825V97.5173" stroke="#1A2D59" stroke-width="4" stroke-linejoin="round"/>
<path d="M123.204 2H140.265V54.6657L131.734 48.7303L123.204 54.6657V2Z" fill="#ADDDD7" stroke="#1A2D59" stroke-width="4" stroke-linejoin="round"/>
</svg>
