<svg width="232" height="232" viewBox="0 0 232 232" fill="none" xmlns="http://www.w3.org/2000/svg">
<path d="M105.178 179.938C69.1162 179.938 39.879 150.705 39.879 114.639C39.8679 105.683 41.7059 96.8206 45.278 88.6074" stroke="#1B2E5B" stroke-width="4" stroke-linecap="round" stroke-linejoin="round"/>
<path d="M70.2041 59.4902C80.6557 52.8413 92.7905 49.3196 105.178 49.3404C141.244 49.3404 170.476 78.5776 170.476 114.639" stroke="#1B2E5B" stroke-width="4" stroke-linecap="round" stroke-linejoin="round"/>
<path d="M105.178 114.639H126.8C126.8 117.564 127.962 120.369 130.031 122.438C132.099 124.506 134.904 125.668 137.829 125.668C140.754 125.668 143.56 124.506 145.628 122.438C147.696 120.369 148.858 117.564 148.858 114.639H170.476" stroke="#1B2E5B" stroke-width="4" stroke-linecap="round" stroke-linejoin="round"/>
<path d="M39.8789 114.639H61.5015C61.5015 111.714 62.6635 108.909 64.7318 106.841C66.8002 104.772 69.6054 103.61 72.5304 103.61C75.4555 103.61 78.2607 104.772 80.329 106.841C82.3973 108.909 83.5593 111.714 83.5593 114.639H105.178" stroke="#1B2E5B" stroke-width="4" stroke-linecap="round" stroke-linejoin="round"/>
<path d="M105.177 114.639V136.262C102.252 136.262 99.447 137.424 97.3787 139.492C95.3104 141.56 94.1484 144.366 94.1484 147.291C94.1484 150.216 95.3104 153.021 97.3787 155.089C99.447 157.158 102.252 158.32 105.177 158.32V179.938" stroke="#1B2E5B" stroke-width="4" stroke-linecap="round" stroke-linejoin="round"/>
<path d="M105.178 49.3403V70.963C106.626 70.9624 108.061 71.2472 109.4 71.8011C110.738 72.3551 111.955 73.1674 112.979 74.1916C114.004 75.2158 114.817 76.4318 115.371 77.7702C115.926 79.1086 116.211 80.5431 116.211 81.9919C116.211 83.4406 115.926 84.8751 115.371 86.2135C114.817 87.5519 114.004 88.7679 112.979 89.7921C111.955 90.8163 110.738 91.6286 109.4 92.1826C108.061 92.7366 106.626 93.0214 105.178 93.0207V114.639" stroke="#1B2E5B" stroke-width="4" stroke-linecap="round" stroke-linejoin="round"/>
<path d="M29.1831 88.6075H45.278L48.4082 82.356C53.9537 82.356 56.9773 71.8422 56.9773 71.8422H73.3031C74.9402 71.8409 76.5098 71.1896 77.6669 70.0315C78.8241 68.8734 79.4741 67.3033 79.4741 65.6662C79.4741 64.0291 78.8241 62.459 77.6669 61.3009C76.5098 60.1428 74.9402 59.4915 73.3031 59.4902H29.1831" stroke="#1B2E5B" stroke-width="4" stroke-linecap="round" stroke-linejoin="round"/>
<path d="M70.2051 59.4882C80.6583 52.842 92.7932 49.3215 105.18 49.3414" stroke="#1B2E5B" stroke-width="4" stroke-linecap="round" stroke-linejoin="round"/>
<path d="M29.1826 55.2979H15.064V93.2416H29.1826V55.2979Z" fill="#5BBCB0" stroke="#1B2E5B" stroke-width="3" stroke-linecap="round" stroke-linejoin="round"/>
<path d="M162.015 189.278C151.562 195.923 139.428 199.443 127.042 199.423V177.804C125.592 177.806 124.157 177.521 122.817 176.968C121.478 176.414 120.26 175.602 119.235 174.577C118.209 173.553 117.396 172.337 116.841 170.998C116.286 169.659 116 168.223 116 166.774C116 165.324 116.286 163.889 116.841 162.55C117.396 161.211 118.209 159.995 119.235 158.97C120.26 157.946 121.478 157.134 122.817 156.58C124.157 156.026 125.592 155.742 127.042 155.744V134.125H148.661C148.664 137.048 149.827 139.85 151.896 141.917C153.964 143.983 156.768 145.143 159.691 145.143C162.614 145.143 165.418 143.983 167.487 141.917C169.555 139.85 170.718 137.048 170.721 134.125H192.34C192.352 143.081 190.516 151.943 186.945 160.156" fill="#90CCE1"/>
<path d="M162.015 189.278C151.562 195.923 139.428 199.443 127.042 199.423V177.804C125.592 177.806 124.157 177.521 122.817 176.968C121.478 176.414 120.26 175.602 119.235 174.577C118.209 173.553 117.396 172.337 116.841 170.998C116.286 169.659 116 168.223 116 166.774C116 165.324 116.286 163.889 116.841 162.55C117.396 161.211 118.209 159.995 119.235 158.97C120.26 157.946 121.478 157.134 122.817 156.58C124.157 156.026 125.592 155.742 127.042 155.744V134.125H148.661C148.664 137.048 149.827 139.85 151.896 141.917C153.964 143.983 156.768 145.143 159.691 145.143C162.614 145.143 165.418 143.983 167.487 141.917C169.555 139.85 170.718 137.048 170.721 134.125H192.34C192.352 143.081 190.516 151.943 186.945 160.156" stroke="#1B2E5B" stroke-width="4" stroke-linecap="round" stroke-linejoin="round"/>
<path d="M183.279 159.5L180.149 165.751C174.601 165.751 171.579 176.265 171.579 176.265H155.254C154.443 176.265 153.64 176.425 152.89 176.736C152.141 177.046 151.46 177.501 150.886 178.075C150.313 178.648 149.858 179.329 149.547 180.078C149.237 180.828 149.077 181.631 149.077 182.442C149.077 183.253 149.237 184.057 149.547 184.806C149.858 185.555 150.313 186.236 150.886 186.81C151.46 187.384 152.141 187.839 152.89 188.149C153.64 188.459 154.443 188.619 155.254 188.619H199.375V159.5H183.279Z" fill="#C7E4EF" stroke="#1B2E5B" stroke-width="4" stroke-linecap="round" stroke-linejoin="round"/>
<path d="M199.728 193.062H213.847V155.118H199.728V193.062Z" fill="#5BBCB0" stroke="#1B2E5B" stroke-width="3" stroke-linecap="round" stroke-linejoin="round"/>
</svg>
