<svg width="132" height="134" viewBox="0 0 132 134" fill="none" xmlns="http://www.w3.org/2000/svg">
<g filter="url(#filter0_d_695_2)">
<path d="M105.582 43.9079C133.066 55.9884 113.67 80.6851 113.67 80.6851C113.67 105.252 90.8021 99.8286 90.8021 99.8286C70.0264 115.779 44.9246 97.0707 44.9246 97.0707C18.4014 101.333 15.8682 81.5768 15.8682 81.5768C1.34055 65.3646 14.966 52.7567 14.966 52.7567C14.7692 25.6468 36.7498 27.5665 36.7498 27.5665C51.2612 -2.13491 76.7785 17.0226 76.7785 17.0226C110.741 14.7525 105.582 43.9079 105.582 43.9079ZM94.6881 40.4259C94.6878 38.9051 94.0835 37.4468 93.008 36.3715C91.9326 35.2963 90.4741 34.6923 88.9534 34.6923H59.5582C58.0374 34.6923 56.5789 35.2965 55.5036 36.3718C54.4282 37.4472 53.8241 38.9057 53.8241 40.4264C53.8241 41.9472 54.4282 43.4057 55.5036 44.4811C56.5789 45.5564 58.0374 46.1605 59.5582 46.1605H88.9534C90.4743 46.1603 91.9328 45.5561 93.0082 44.4807C94.0836 43.4052 94.6879 41.9467 94.6881 40.4259ZM94.6881 60.6044C94.688 59.0834 94.0838 57.6248 93.0084 56.5494C91.9329 55.4739 90.4743 54.8697 88.9534 54.8697H59.5582C58.0374 54.8697 56.5789 55.4738 55.5036 56.5492C54.4282 57.6245 53.8241 59.083 53.8241 60.6038C53.8241 62.1246 54.4282 63.5831 55.5036 64.6584C56.5789 65.7338 58.0374 66.3379 59.5582 66.3379H88.9534C90.474 66.3377 91.9324 65.7336 93.0078 64.6584C94.0831 63.5832 94.6875 62.125 94.6881 60.6044ZM94.6881 82.1612C94.688 80.6403 94.0838 79.1817 93.0084 78.1062C91.9329 77.0308 90.4743 76.4266 88.9534 76.4266H59.5582C58.0374 76.4266 56.5789 77.0307 55.5036 78.106C54.4282 79.1814 53.8241 80.6399 53.8241 82.1607C53.8241 83.6814 54.4282 85.1399 55.5036 86.2153C56.5789 87.2906 58.0374 87.8948 59.5582 87.8948H88.9534C89.7064 87.8949 90.4521 87.7467 91.1479 87.4587C91.8436 87.1706 92.4758 86.7483 93.0083 86.2159C93.5409 85.6834 93.9633 85.0513 94.2515 84.3556C94.5397 83.6599 94.6881 82.9143 94.6881 82.1612ZM48.7431 40.0638C48.7432 39.0015 48.4283 37.963 47.8382 37.0797C47.248 36.1964 46.4092 35.5079 45.4278 35.1013C44.4464 34.6947 43.3664 34.5883 42.3245 34.7955C41.2826 35.0027 40.3256 35.5143 39.5744 36.2654C38.8232 37.0166 38.3117 37.9737 38.1045 39.0156C37.8973 40.0575 38.0037 41.1374 38.4103 42.1188C38.8168 43.1003 39.5053 43.9391 40.3887 44.5292C41.272 45.1193 42.3105 45.4342 43.3728 45.4341C44.797 45.434 46.1629 44.8681 47.17 43.861C48.1771 42.8539 48.7429 41.4881 48.7431 40.0638ZM48.7431 60.6044C48.7432 59.5421 48.4283 58.5036 47.8382 57.6202C47.248 56.7369 46.4092 56.0484 45.4278 55.6418C44.4464 55.2353 43.3664 55.1289 42.3245 55.3361C41.2826 55.5433 40.3256 56.0548 39.5744 56.806C38.8232 57.5572 38.3117 58.5142 38.1045 59.5561C37.8973 60.598 38.0037 61.678 38.4103 62.6594C38.8168 63.6408 39.5053 64.4796 40.3887 65.0698C41.272 65.6599 42.3105 65.9748 43.3728 65.9747C44.797 65.9745 46.1629 65.4087 47.17 64.4016C48.1771 63.3945 48.7429 62.0286 48.7431 60.6044ZM48.7431 82.1612C48.7432 81.0989 48.4283 80.0604 47.8382 79.1771C47.248 78.2938 46.4092 77.6053 45.4278 77.1987C44.4464 76.7921 43.3664 76.6857 42.3245 76.893C41.2826 77.1002 40.3256 77.6117 39.5744 78.3629C38.8232 79.114 38.3117 80.0711 38.1045 81.113C37.8973 82.1549 38.0037 83.2349 38.4103 84.2163C38.8168 85.1977 39.5053 86.0365 40.3887 86.6266C41.272 87.2168 42.3105 87.5317 43.3728 87.5315C44.797 87.5314 46.1629 86.9656 47.17 85.9585C48.1771 84.9514 48.7429 83.5855 48.7431 82.1612Z" fill="#F3F3F3"/>
<path d="M88.9535 34.6924C90.4743 34.6924 91.9328 35.2965 93.0081 36.3719C94.0835 37.4472 94.6876 38.9057 94.6876 40.4265C94.6876 41.9473 94.0835 43.4058 93.0081 44.4811C91.9328 45.5565 90.4743 46.1606 88.9535 46.1606H74.2559V34.6924H88.9535Z" fill="white"/>
<path d="M88.9536 54.8697C90.4743 54.8697 91.9328 55.4738 93.0082 56.5492C94.0835 57.6245 94.6877 59.083 94.6877 60.6038C94.6877 62.1246 94.0835 63.5831 93.0082 64.6584C91.9328 65.7338 90.4743 66.3379 88.9536 66.3379H83.8848V54.8697H88.9536Z" fill="white"/>
<path d="M88.9533 76.4266C90.4741 76.4266 91.9326 77.0308 93.008 78.1061C94.0833 79.1815 94.6874 80.64 94.6874 82.1607C94.6874 83.6815 94.0833 85.14 93.008 86.2154C91.9326 87.2907 90.4741 87.8949 88.9533 87.8949H66.7073V76.4266H88.9533Z" fill="white"/>
<path d="M83.8845 54.8697V66.3379H59.5581C58.0373 66.3379 56.5788 65.7338 55.5035 64.6584C54.4281 63.5831 53.824 62.1246 53.824 60.6038C53.824 59.083 54.4281 57.6245 55.5035 56.5492C56.5788 55.4738 58.0373 54.8697 59.5581 54.8697H83.8845Z" fill="#90CCE1"/>
<path d="M74.2557 34.6924V46.1606H59.5581C58.0373 46.1606 56.5788 45.5565 55.5035 44.4811C54.4281 43.4058 53.824 41.9473 53.824 40.4265C53.824 38.9057 54.4281 37.4472 55.5035 36.3719C56.5788 35.2965 58.0373 34.6924 59.5581 34.6924H74.2557Z" fill="#C7E4EF"/>
<path d="M66.7072 76.4266V87.8949H59.5581C58.0373 87.8949 56.5788 87.2907 55.5035 86.2154C54.4281 85.14 53.824 83.6815 53.824 82.1607C53.824 80.64 54.4281 79.1815 55.5035 78.1061C56.5788 77.0308 58.0373 76.4266 59.5581 76.4266H66.7072Z" fill="#5BBCB0"/>
<path d="M43.3729 34.6924C44.4351 34.6925 45.4735 35.0076 46.3566 35.5978C47.2398 36.188 47.9281 37.0268 48.3345 38.0082C48.7409 38.9896 48.8473 40.0694 48.64 41.1112C48.4327 42.153 47.9212 43.11 47.1701 43.8611C46.419 44.6121 45.4621 45.1237 44.4203 45.3309C43.3785 45.5382 42.2986 45.4319 41.3173 45.0254C40.3359 44.619 39.4971 43.9307 38.9069 43.0475C38.3167 42.1644 38.0016 41.1261 38.0015 40.0638C38.0014 39.3584 38.1403 38.6599 38.4102 38.0082C38.6801 37.3564 39.0757 36.7643 39.5745 36.2655C40.0733 35.7667 40.6655 35.371 41.3173 35.1011C41.969 34.8312 42.6675 34.6923 43.3729 34.6924Z" fill="#C7E4EF"/>
<path d="M43.3729 55.2329C44.4351 55.233 45.4735 55.5481 46.3566 56.1383C47.2398 56.7285 47.9281 57.5673 48.3345 58.5487C48.7409 59.5301 48.8473 60.61 48.64 61.6517C48.4327 62.6935 47.9212 63.6505 47.1701 64.4016C46.419 65.1527 45.4621 65.6642 44.4203 65.8715C43.3785 66.0787 42.2986 65.9724 41.3173 65.566C40.3359 65.1595 39.4971 64.4712 38.9069 63.5881C38.3167 62.7049 38.0016 61.6666 38.0015 60.6044C38.0014 59.899 38.1403 59.2004 38.4102 58.5487C38.6801 57.897 39.0757 57.3048 39.5745 56.806C40.0733 56.3072 40.6655 55.9115 41.3173 55.6416C41.969 55.3717 42.6675 55.2328 43.3729 55.2329Z" fill="#90CCE1"/>
<path d="M43.3729 76.7896C44.4351 76.7897 45.4735 77.1048 46.3566 77.695C47.2398 78.2852 47.9281 79.124 48.3345 80.1054C48.7409 81.0868 48.8473 82.1666 48.64 83.2084C48.4327 84.2502 47.9212 85.2072 47.1701 85.9583C46.419 86.7094 45.4621 87.2209 44.4203 87.4281C43.3785 87.6354 42.2986 87.5291 41.3173 87.1226C40.3359 86.7162 39.4971 86.0279 38.9069 85.1448C38.3167 84.2616 38.0016 83.2233 38.0015 82.1611C38.0014 81.4557 38.1403 80.7571 38.4102 80.1054C38.6801 79.4537 39.0757 78.8615 39.5745 78.3627C40.0733 77.8639 40.6655 77.4682 41.3173 77.1983C41.969 76.9284 42.6675 76.7895 43.3729 76.7896Z" fill="#5BBCB0"/>
<path d="M34.0316 106.542C34.0316 106.542 40.899 111.989 36.8733 116.725C36.8733 116.725 25.0325 129.75 20.533 119.093C20.533 119.093 10.5864 111.516 21.9533 106.542C21.9533 106.542 27.8743 98.2546 34.0316 106.542Z" fill="#F3F3F3"/>
<path d="M48.7432 40.0638C48.7431 41.1261 48.428 42.1645 47.8377 43.0477C47.2475 43.9308 46.4086 44.6191 45.4272 45.0255C44.4457 45.4319 43.3658 45.5382 42.324 45.3308C41.2821 45.1235 40.3252 44.6119 39.5741 43.8606C38.8231 43.1094 38.3117 42.1524 38.1046 41.1105C37.8974 40.0686 38.0039 38.9887 38.4105 38.0074C38.8171 37.026 39.5056 36.1873 40.3889 35.5972C41.2722 35.0072 42.3107 34.6923 43.3729 34.6924C44.0783 34.6923 44.7767 34.8312 45.4284 35.1012C46.0801 35.3711 46.6721 35.7668 47.1709 36.2656C47.6696 36.7644 48.0651 37.3566 48.3349 38.0083C48.6047 38.66 48.7434 39.3585 48.7432 40.0638V40.0638Z" stroke="#1B2E5B" stroke-width="4" stroke-linecap="round" stroke-linejoin="round"/>
<path d="M48.7432 60.6044C48.7431 61.6666 48.428 62.705 47.8377 63.5882C47.2475 64.4714 46.4086 65.1597 45.4272 65.5661C44.4457 65.9725 43.3658 66.0787 42.324 65.8714C41.2821 65.664 40.3252 65.1524 39.5741 64.4012C38.8231 63.65 38.3117 62.6929 38.1046 61.651C37.8974 60.6092 38.0039 59.5293 38.4105 58.5479C38.8171 57.5666 39.5056 56.7278 40.3889 56.1377C41.2722 55.5477 42.3107 55.2328 43.3729 55.2329C44.0783 55.2328 44.7767 55.3718 45.4284 55.6417C46.0801 55.9116 46.6721 56.3073 47.1709 56.8061C47.6696 57.3049 48.0651 57.8971 48.3349 58.5488C48.6047 59.2005 48.7434 59.899 48.7432 60.6044V60.6044Z" stroke="#1B2E5B" stroke-width="4" stroke-linecap="round" stroke-linejoin="round"/>
<path d="M48.7432 82.1611C48.7431 83.2233 48.428 84.2617 47.8377 85.1449C47.2475 86.0281 46.4086 86.7164 45.4272 87.1228C44.4457 87.5292 43.3658 87.6354 42.324 87.4281C41.2821 87.2207 40.3252 86.7091 39.5741 85.9579C38.8231 85.2067 38.3117 84.2496 38.1046 83.2077C37.8974 82.1659 38.0039 81.086 38.4105 80.1046C38.8171 79.1233 39.5056 78.2845 40.3889 77.6944C41.2722 77.1044 42.3107 76.7895 43.3729 76.7896C44.0783 76.7896 44.7767 76.9285 45.4284 77.1984C46.0801 77.4683 46.6721 77.864 47.1709 78.3628C47.6696 78.8616 48.0651 79.4538 48.3349 80.1055C48.6047 80.7572 48.7434 81.4557 48.7432 82.1611Z" stroke="#1B2E5B" stroke-width="4" stroke-linecap="round" stroke-linejoin="round"/>
<path d="M74.2557 34.6924H88.9533C90.4741 34.6924 91.9326 35.2965 93.0079 36.3719C94.0833 37.4472 94.6874 38.9057 94.6874 40.4265C94.6874 41.9473 94.0833 43.4058 93.0079 44.4811C91.9326 45.5565 90.4741 46.1606 88.9533 46.1606H59.5581C58.0373 46.1606 56.5788 45.5565 55.5035 44.4811C54.4281 43.4058 53.824 41.9473 53.824 40.4265C53.824 38.9057 54.4281 37.4472 55.5035 36.3719C56.5788 35.2965 58.0373 34.6924 59.5581 34.6924H74.2557Z" stroke="#1B2E5B" stroke-width="4" stroke-linecap="round" stroke-linejoin="round"/>
<path d="M83.8845 54.8697H88.9533C90.4741 54.8697 91.9326 55.4738 93.0079 56.5492C94.0833 57.6245 94.6874 59.083 94.6874 60.6038C94.6874 62.1246 94.0833 63.5831 93.0079 64.6584C91.9326 65.7338 90.4741 66.3379 88.9533 66.3379H59.5581C58.0373 66.3379 56.5788 65.7338 55.5035 64.6584C54.4281 63.5831 53.824 62.1246 53.824 60.6038C53.824 59.083 54.4281 57.6245 55.5035 56.5492C56.5788 55.4738 58.0373 54.8697 59.5581 54.8697H83.8845Z" stroke="#1B2E5B" stroke-width="4" stroke-linecap="round" stroke-linejoin="round"/>
<path d="M66.7072 76.4266H88.9533C90.4741 76.4266 91.9326 77.0308 93.0079 78.1061C94.0833 79.1815 94.6874 80.64 94.6874 82.1607C94.6874 83.6815 94.0833 85.14 93.0079 86.2154C91.9326 87.2907 90.4741 87.8949 88.9533 87.8949H59.5581C58.0373 87.8949 56.5788 87.2907 55.5035 86.2154C54.4281 85.14 53.824 83.6815 53.824 82.1607C53.824 80.64 54.4281 79.1815 55.5035 78.1061C56.5788 77.0308 58.0373 76.4266 59.5581 76.4266H66.7072Z" stroke="#1B2E5B" stroke-width="4" stroke-linecap="round" stroke-linejoin="round"/>
<path d="M66.7073 76.4266V87.8949" stroke="#1B2E5B" stroke-width="4" stroke-linecap="round" stroke-linejoin="round"/>
<path d="M83.8848 66.3379V54.8697" stroke="#1B2E5B" stroke-width="4" stroke-linecap="round" stroke-linejoin="round"/>
<path d="M74.2559 34.6924V46.1606" stroke="#1B2E5B" stroke-width="4" stroke-linecap="round" stroke-linejoin="round"/>
<path d="M90.8021 99.8286C90.8021 99.8286 113.67 105.252 113.67 80.6851C113.67 80.6851 133.066 55.9884 105.582 43.9079C105.582 43.9079 110.741 14.7525 76.7785 17.0226C76.7785 17.0226 51.2612 -2.13491 36.7498 27.5665C36.7498 27.5665 14.7692 25.6468 14.966 52.7567C14.966 52.7567 1.34055 65.3646 15.8682 81.5768C15.8682 81.5768 18.4014 101.333 44.9246 97.0707C44.9246 97.0707 70.0264 115.779 90.8021 99.8286Z" stroke="#1B2E5B" stroke-width="4" stroke-linecap="round" stroke-linejoin="round"/>
<path d="M21.9533 106.542C21.9533 106.542 27.8743 98.2546 34.0316 106.542C34.0316 106.542 40.899 111.989 36.8733 116.725C36.8733 116.725 25.0325 129.75 20.533 119.093C20.533 119.093 10.5864 111.516 21.9533 106.542Z" stroke="#1B2E5B" stroke-width="4" stroke-linecap="round" stroke-linejoin="round"/>
</g>
<defs>
<filter id="filter0_d_695_2" x="-4" y="0" width="140" height="140" filterUnits="userSpaceOnUse" color-interpolation-filters="sRGB">
<feFlood flood-opacity="0" result="BackgroundImageFix"/>
<feColorMatrix in="SourceAlpha" type="matrix" values="0 0 0 0 0 0 0 0 0 0 0 0 0 0 0 0 0 0 127 0" result="hardAlpha"/>
<feOffset dy="4"/>
<feGaussianBlur stdDeviation="2"/>
<feComposite in2="hardAlpha" operator="out"/>
<feColorMatrix type="matrix" values="0 0 0 0 0 0 0 0 0 0 0 0 0 0 0 0 0 0 0.25 0"/>
<feBlend mode="normal" in2="BackgroundImageFix" result="effect1_dropShadow_695_2"/>
<feBlend mode="normal" in="SourceGraphic" in2="effect1_dropShadow_695_2" result="shape"/>
</filter>
</defs>
</svg>
