<svg width="53" height="53" viewBox="0 0 53 53" fill="none" xmlns="http://www.w3.org/2000/svg">
<path d="M43.8906 6.625H9.10933C6.52117 6.625 4.41663 8.60587 4.41663 11.0417V41.9583C4.41663 44.3941 6.52117 46.375 9.10933 46.375H43.8906C46.4788 46.375 48.5833 44.3941 48.5833 41.9583V11.0417C48.5833 8.60587 46.4788 6.625 43.8906 6.625ZM43.8906 41.9583H9.10933C8.98346 41.9583 8.89734 41.923 8.85979 41.923C8.84433 41.923 8.8355 41.9274 8.83329 41.9407L8.80679 11.1432C8.82225 11.1212 8.92163 11.0417 9.10933 11.0417H43.8906C44.065 11.0439 44.16 11.1035 44.1666 11.0593L44.1931 41.8568C44.1777 41.8788 44.0783 41.9583 43.8906 41.9583Z" fill="white"/>
<path d="M13.25 15.4584H26.5V28.7084H13.25V15.4584ZM28.7083 33.125H13.25V37.5417H39.75V33.125H30.9167H28.7083ZM30.9167 24.2917H39.75V28.7084H30.9167V24.2917ZM30.9167 15.4584H39.75V19.875H30.9167V15.4584Z" fill="white"/>
</svg>
