<svg width="93" height="93" viewBox="0 0 93 93" fill="none" xmlns="http://www.w3.org/2000/svg">
<path d="M78.5384 5.57977L85.0949 12.1363C86.9084 13.9498 86.9084 16.8793 85.0949 18.6928L65.0999 38.7343V83.6998H13.95V13.9498H63.5654L71.9354 5.57977C73.7954 3.76627 76.7249 3.71977 78.5384 5.57977ZM52.2194 45.0118L77.1899 20.0878L70.5869 13.4848L45.6629 38.4553L42.3614 48.3133L52.2194 45.0118Z" fill="#012A5D"/>
<path d="M38.5366 48.9053C38.5366 49.9756 38.2124 50.8857 37.564 51.6357C36.9155 52.3857 36.0054 52.9014 34.8335 53.1826V53.2529C36.2163 53.4248 37.2632 53.8467 37.9741 54.5186C38.6851 55.1826 39.0405 56.0811 39.0405 57.2139C39.0405 58.8623 38.4429 60.1475 37.2476 61.0693C36.0522 61.9834 34.3452 62.4404 32.1265 62.4404C30.2671 62.4404 28.6187 62.1318 27.1812 61.5146V58.4326C27.8452 58.7686 28.5757 59.042 29.3726 59.2529C30.1694 59.4639 30.9585 59.5693 31.7397 59.5693C32.9351 59.5693 33.8179 59.3662 34.3882 58.96C34.9585 58.5537 35.2437 57.9014 35.2437 57.0029C35.2437 56.1982 34.9155 55.6279 34.2593 55.292C33.603 54.9561 32.5562 54.7881 31.1187 54.7881H29.8179V52.0107H31.1421C32.4702 52.0107 33.439 51.8389 34.0483 51.4951C34.6655 51.1436 34.9741 50.5459 34.9741 49.7021C34.9741 48.4053 34.1616 47.7568 32.5366 47.7568C31.9741 47.7568 31.3999 47.8506 30.814 48.0381C30.2358 48.2256 29.5913 48.5498 28.8804 49.0107L27.2046 46.5146C28.7671 45.3896 30.6304 44.8271 32.7944 44.8271C34.5679 44.8271 35.9663 45.1865 36.9897 45.9053C38.021 46.624 38.5366 47.624 38.5366 48.9053Z" fill="white"/>
</svg>
