<svg width="93" height="93" viewBox="0 0 93 93" fill="none" xmlns="http://www.w3.org/2000/svg">
<path d="M78.5384 5.57977L85.0949 12.1363C86.9084 13.9498 86.9084 16.8793 85.0949 18.6928L65.0999 38.7343V83.6998H13.95V13.9498H63.5654L71.9354 5.57977C73.7954 3.76627 76.7249 3.71977 78.5384 5.57977ZM52.2194 45.0118L77.1899 20.0878L70.5869 13.4848L45.6629 38.4553L42.3614 48.3133L52.2194 45.0118Z" fill="#012A5D"/>
<path d="M36.1812 62.2061H32.5601V52.292L32.5952 50.6631L32.6538 48.8818C32.0522 49.4834 31.6343 49.8779 31.3999 50.0654L29.4312 51.6475L27.6851 49.4678L33.2046 45.0732H36.1812V62.2061Z" fill="white"/>
</svg>
