<svg width="93" height="93" viewBox="0 0 93 93" fill="none" xmlns="http://www.w3.org/2000/svg">
<path d="M78.5384 5.57977L85.0949 12.1363C86.9084 13.9498 86.9084 16.8793 85.0949 18.6928L65.0999 38.7343V83.6998H13.95V13.9498H63.5654L71.9354 5.57977C73.7954 3.76627 76.7249 3.71977 78.5384 5.57977ZM52.2194 45.0118L77.1899 20.0878L70.5869 13.4848L45.6629 38.4553L42.3614 48.3133L52.2194 45.0118Z" fill="#012A5D"/>
<path d="M39.2046 62.2061H27.228V59.6865L31.5288 55.3389C32.8022 54.0342 33.6343 53.1318 34.0249 52.6318C34.4155 52.124 34.6968 51.6553 34.8687 51.2256C35.0405 50.7959 35.1265 50.3506 35.1265 49.8896C35.1265 49.2021 34.9351 48.6904 34.5522 48.3545C34.1772 48.0186 33.6733 47.8506 33.0405 47.8506C32.3765 47.8506 31.7319 48.0029 31.1069 48.3076C30.4819 48.6123 29.8296 49.0459 29.1499 49.6084L27.1812 47.2764C28.0249 46.5576 28.7241 46.0498 29.2788 45.7529C29.8335 45.4561 30.439 45.2295 31.0952 45.0732C31.7515 44.9092 32.4858 44.8271 33.2983 44.8271C34.3687 44.8271 35.314 45.0225 36.1343 45.4131C36.9546 45.8037 37.5913 46.3506 38.0444 47.0537C38.4976 47.7568 38.7241 48.5615 38.7241 49.4678C38.7241 50.2568 38.5835 50.999 38.3022 51.6943C38.0288 52.3818 37.5991 53.0889 37.0132 53.8154C36.4351 54.542 35.4116 55.5771 33.9429 56.9209L31.7397 58.9951V59.1592H39.2046V62.2061Z" fill="white"/>
</svg>
