<svg width="162" height="146" viewBox="0 0 162 146" fill="none" xmlns="http://www.w3.org/2000/svg">
<path d="M49.4685 71.2241C49.4408 74.2134 49.1087 77.175 48.4997 80.1089C48.4167 80.4688 48.6104 80.8563 48.9703 80.967C49.3024 81.05 49.7453 80.8563 49.8283 80.4964C50.4649 77.4518 50.7971 74.3518 50.8247 71.2518C50.8524 70.3384 49.4685 70.3384 49.4685 71.2241Z" fill="#1C2D5A"/>
<path d="M26.4959 97.4359C23.7557 97.8234 21.0155 98.0172 18.2477 97.9895C17.3619 97.9895 17.3619 99.3734 18.2477 99.3734C21.1262 99.4011 24.0048 99.1797 26.8557 98.7645C27.2155 98.7091 27.437 98.2386 27.3263 97.9064C27.2432 97.5189 26.8834 97.3805 26.4959 97.4359Z" fill="#1C2D5A"/>
<path d="M149.14 48.2512C146.344 48.0851 143.521 47.919 140.725 47.8083C138.013 47.6699 135.273 47.6976 132.643 48.3895C131.785 48.611 132.145 49.9672 133.003 49.7181C135.577 49.0262 138.234 49.0538 140.864 49.1922C143.632 49.3306 146.399 49.4967 149.167 49.6351C150.025 49.6628 150.025 48.2788 149.14 48.2512Z" fill="#1C2D5A"/>
<path d="M134.275 18.801L149.941 18.7456" stroke="#1C2D5A" stroke-width="2.82222" stroke-miterlimit="10" stroke-linecap="round" stroke-linejoin="round"/>
<path d="M133.169 64.6089V57.4955" stroke="#1C2D5A" stroke-width="2.82222" stroke-miterlimit="10"/>
<path d="M149.666 44.7632C151.659 44.7632 153.264 46.3685 153.264 48.3614C153.264 50.3543 151.659 51.9596 149.666 51.9596C147.673 51.9596 146.068 50.3543 146.068 48.3614C146.068 46.3685 147.673 44.7632 149.666 44.7632Z" fill="#5BBCB0"/>
<path d="M149.666 51.9596C151.653 51.9596 153.264 50.3486 153.264 48.3614C153.264 46.3742 151.653 44.7632 149.666 44.7632C147.678 44.7632 146.068 46.3742 146.068 48.3614C146.068 50.3486 147.678 51.9596 149.666 51.9596Z" stroke="#1C2D5A" stroke-width="2.25778" stroke-miterlimit="10"/>
<path d="M143.493 27.99C145.071 27.5195 146.704 28.4328 147.174 30.0105C147.645 31.5882 146.731 33.2213 145.154 33.6918C143.576 34.1623 141.943 33.2489 141.473 31.6712C141.002 30.0936 141.915 28.4328 143.493 27.99Z" fill="#B1DBD5"/>
<path d="M143.493 27.99C145.071 27.5195 146.704 28.4328 147.174 30.0105C147.645 31.5882 146.731 33.2213 145.154 33.6918C143.576 34.1623 141.943 33.2489 141.473 31.6712C141.002 30.0936 141.915 28.4328 143.493 27.99Z" stroke="#1C2D5A" stroke-width="2.25778" stroke-miterlimit="10"/>
<path d="M138.234 3.88204C139.923 3.38383 141.666 4.35258 142.165 6.04098C142.663 7.72937 141.694 9.47313 140.006 9.97134C138.317 10.4696 136.574 9.47313 136.075 7.81241C135.577 6.12401 136.546 4.38026 138.234 3.88204Z" fill="#B1DBD5"/>
<path d="M138.234 3.88204C139.923 3.38383 141.666 4.35258 142.165 6.04098C142.663 7.72937 141.694 9.47313 140.006 9.97134C138.317 10.4696 136.574 9.47313 136.075 7.81241C135.577 6.12401 136.546 4.38026 138.234 3.88204Z" stroke="#1C2D5A" stroke-width="2.25778" stroke-miterlimit="10"/>
<path d="M129.847 15.8949C131.536 15.3966 133.279 16.3654 133.778 18.0538C134.276 19.7422 133.307 21.4859 131.619 21.9842C129.93 22.4824 128.187 21.5136 127.688 19.8252C127.218 18.1368 128.187 16.3931 129.847 15.8949Z" fill="#8FCCE1"/>
<path d="M129.847 15.8949C131.536 15.3966 133.279 16.3654 133.778 18.0538C134.276 19.7422 133.307 21.4859 131.619 21.9842C129.93 22.4824 128.187 21.5136 127.688 19.8252C127.218 18.1368 128.187 16.3931 129.847 15.8949Z" stroke="#1C2D5A" stroke-width="2.25778" stroke-miterlimit="10"/>
<path d="M132.81 29.2637V33.969" stroke="#1C2D5A" stroke-width="2.82222" stroke-miterlimit="10" stroke-linecap="round" stroke-linejoin="round"/>
<path d="M132.754 39.8365L132.781 48.9151" stroke="#1C2D5A" stroke-width="2.82222" stroke-miterlimit="10" stroke-linecap="round" stroke-linejoin="round"/>
<path d="M131.867 34.0521C133.555 33.5539 135.299 34.5226 135.797 36.211C136.296 37.8994 135.327 39.6432 133.638 40.1414C131.95 40.6396 130.206 39.6708 129.708 37.9825C129.238 36.2941 130.179 34.5226 131.867 34.0521Z" fill="#CBE5F1"/>
<path d="M131.867 34.0521C133.555 33.5539 135.299 34.5226 135.797 36.211C136.296 37.8994 135.327 39.6432 133.638 40.1414C131.95 40.6396 130.206 39.6708 129.708 37.9825C129.238 36.2941 130.179 34.5226 131.867 34.0521Z" stroke="#1C2D5A" stroke-width="2.25778" stroke-miterlimit="10"/>
<path d="M135.661 55.6133H122.818" stroke="#1C2D5A" stroke-width="2.82222" stroke-miterlimit="10"/>
<path d="M132.478 52.5966C134.166 52.0984 135.91 53.0672 136.408 54.7556C136.906 56.444 135.937 58.1877 134.249 58.6859C132.561 59.1842 130.817 58.2154 130.319 56.527C129.848 54.8386 130.789 53.0949 132.478 52.5966Z" fill="#8FCCE1"/>
<path d="M132.478 52.5966C134.166 52.0984 135.91 53.0672 136.408 54.7556C136.906 56.444 135.937 58.1877 134.249 58.6859C132.561 59.1842 130.817 58.2154 130.319 56.527C129.848 54.8386 130.789 53.0949 132.478 52.5966Z" stroke="#1C2D5A" stroke-width="2.25778" stroke-miterlimit="10"/>
<path d="M127.134 18.8839L122.927 18.8009" stroke="#1C2D5A" stroke-width="2.82222" stroke-miterlimit="10"/>
<path d="M152.378 15.4796C154.066 14.9814 155.81 15.9501 156.308 17.6385C156.806 19.3269 155.838 21.0707 154.149 21.5689C152.461 22.0671 150.717 21.0983 150.219 19.4099C149.748 17.7215 150.689 15.9778 152.378 15.4796Z" fill="#CBE5F1"/>
<path d="M152.378 15.4796C154.066 14.9814 155.81 15.9501 156.308 17.6385C156.806 19.3269 155.838 21.0707 154.149 21.5689C152.461 22.0671 150.717 21.0983 150.219 19.4099C149.748 17.7215 150.689 15.9778 152.378 15.4796Z" stroke="#1C2D5A" stroke-width="2.25778" stroke-miterlimit="10"/>
<path d="M136.961 56.0838C139.784 55.8624 142.635 55.6963 145.486 55.8624C146.87 55.9454 148.254 56.1945 149.638 56.3053C151.077 56.416 152.516 56.3606 153.928 56.1392C154.288 56.0838 154.509 55.6133 154.398 55.2812C154.288 54.8937 153.928 54.7276 153.54 54.8106C152.212 55.0044 150.828 55.032 149.499 54.9213C148.115 54.7829 146.731 54.5615 145.348 54.4785C142.552 54.3124 139.756 54.4785 136.961 54.6999C136.601 54.7276 136.269 55.0044 136.269 55.3919C136.269 55.724 136.573 56.1115 136.961 56.0838Z" fill="#1C2D5A"/>
<path d="M144.878 27.2708C144.49 24.5306 144.296 21.7904 144.324 19.0226C144.324 18.1368 142.94 18.1368 142.94 19.0226C142.912 21.9011 143.134 24.7797 143.549 27.6306C143.604 27.9904 144.075 28.2119 144.407 28.1012C144.795 28.0181 144.933 27.6583 144.878 27.2708Z" fill="#1C2D5A"/>
<path d="M139.673 18.054C139.757 15.5075 139.84 12.9611 139.895 10.4147C139.923 9.52894 138.539 9.52894 138.511 10.4147C138.428 12.9611 138.345 15.5075 138.29 18.054C138.262 18.9397 139.646 18.9397 139.673 18.054Z" fill="#1C2D5A"/>
<path d="M133.556 31.6437C135.909 31.3115 138.456 30.7026 140.808 31.3392C141.666 31.5606 142.026 30.2321 141.168 30.0106C138.566 29.291 135.798 29.9276 133.169 30.3151C132.809 30.3705 132.588 30.841 132.698 31.1731C132.809 31.5606 133.169 31.699 133.556 31.6437Z" fill="#1C2D5A"/>
<path d="M132.919 28.4613C131.535 27.963 130.041 28.1845 128.601 28.3229C127.051 28.4889 125.529 28.6273 123.979 28.7934C123.619 28.8211 123.287 29.0979 123.287 29.4854C123.287 29.8175 123.592 30.205 123.979 30.1773C125.474 30.0113 126.968 29.8729 128.463 29.7068C129.792 29.5684 131.231 29.2916 132.532 29.7622C132.892 29.9005 133.279 29.6238 133.39 29.2916C133.528 28.9318 133.279 28.5997 132.919 28.4613Z" fill="#1C2D5A"/>
<path d="M132.145 43.6842C130.872 43.8226 129.571 43.7949 128.298 43.6012C127.661 43.5181 127.052 43.3797 126.416 43.2137C125.779 43.0476 125.142 42.8815 124.478 42.9369C123.592 42.9922 123.592 44.3762 124.478 44.3208C125.115 44.2931 125.696 44.4592 126.305 44.6253C126.941 44.7914 127.578 44.9021 128.215 44.9851C129.516 45.1512 130.816 45.2065 132.145 45.0681C132.505 45.0405 132.837 44.7637 132.837 44.3762C132.837 44.0164 132.505 43.6289 132.145 43.6842Z" fill="#1C2D5A"/>
<path d="M144.13 55.143C144.351 58.1323 145.376 61.177 144.822 64.1939C144.739 64.5538 144.933 64.9412 145.293 65.052C145.625 65.135 146.068 64.9412 146.151 64.5814C146.76 61.3984 145.763 58.2984 145.514 55.143C145.486 54.7832 145.21 54.451 144.822 54.451C144.462 54.451 144.102 54.7555 144.13 55.143Z" fill="#1C2D5A"/>
<path d="M154.094 30.6197C155.368 30.2598 156.696 30.9795 157.084 32.2527C157.444 33.5259 156.724 34.8545 155.451 35.242C154.177 35.6018 152.849 34.8822 152.461 33.6089C152.102 32.308 152.821 30.9795 154.094 30.6197Z" fill="#8FCCE1"/>
<path d="M154.094 30.6197C155.368 30.2598 156.696 30.9795 157.084 32.2527C157.444 33.5259 156.724 34.8545 155.451 35.242C154.177 35.6018 152.849 34.8822 152.461 33.6089C152.102 32.308 152.821 30.9795 154.094 30.6197Z" stroke="#1C2D5A" stroke-width="2.25778" stroke-miterlimit="10"/>
<path d="M155.118 30.2324C155.256 28.8208 154.924 27.4092 154.592 26.0253C154.26 24.6967 153.9 23.3128 154.094 21.9288C154.122 21.6244 154.011 21.3476 153.706 21.2369C153.457 21.1538 153.07 21.3199 153.014 21.6244C152.821 23.0913 153.097 24.5306 153.43 25.9422C153.762 27.3539 154.149 28.7378 154.011 30.2048C153.983 30.5092 154.288 30.7583 154.564 30.7583C154.869 30.786 155.09 30.5369 155.118 30.2324Z" fill="#1C2D5A"/>
<path d="M140.31 38.8954C141.583 38.5356 142.912 39.2552 143.299 40.5284C143.659 41.8017 142.939 43.1302 141.666 43.5177C140.393 43.8776 139.064 43.1579 138.677 41.8847C138.317 40.6115 139.037 39.2829 140.31 38.8954Z" fill="#8FCCE1"/>
<path d="M140.31 38.8954C141.583 38.5356 142.912 39.2552 143.299 40.5284C143.659 41.8017 142.939 43.1302 141.666 43.5177C140.393 43.8776 139.064 43.1579 138.677 41.8847C138.317 40.6115 139.037 39.2829 140.31 38.8954Z" stroke="#1C2D5A" stroke-width="2.25778" stroke-miterlimit="10"/>
<path d="M141.473 47.8083L141.583 43.8779C141.611 43.0752 140.366 43.0752 140.338 43.8779L140.227 47.8083C140.199 48.6109 141.445 48.6109 141.473 47.8083Z" fill="#1C2D5A"/>
<path d="M153.456 58.2703C154.757 57.8828 156.086 58.6302 156.473 59.9034C156.833 61.1766 156.086 62.5329 154.813 62.8927C153.512 63.2802 152.183 62.5329 151.796 61.2596C151.408 59.9864 152.156 58.6302 153.456 58.2703Z" fill="#B1DBD5"/>
<path d="M153.456 58.2703C154.757 57.8828 156.086 58.6302 156.473 59.9034C156.833 61.1766 156.086 62.5329 154.813 62.8927C153.512 63.2802 152.183 62.5329 151.796 61.2596C151.408 59.9864 152.156 58.6302 153.456 58.2703Z" stroke="#1C2D5A" stroke-width="2.25778" stroke-miterlimit="10"/>
<path d="M153.207 55.5306V57.7726C153.207 58.1324 153.512 58.4922 153.899 58.4646C154.287 58.4369 154.591 58.1601 154.591 57.7726V55.5306C154.591 55.1708 154.259 54.811 153.899 54.8387C153.512 54.8663 153.207 55.1431 153.207 55.5306Z" fill="#1C2D5A"/>
<path d="M150.247 55.2259C150.496 54.2848 150.662 53.3437 150.718 52.375C150.745 52.0152 150.385 51.6553 150.026 51.683C149.638 51.7107 149.361 51.9875 149.334 52.375C149.306 52.5964 149.306 52.8178 149.278 53.0393C149.278 53.0946 149.278 53.15 149.251 53.2053C149.278 53.0116 149.251 53.2053 149.251 53.2607C149.223 53.3714 149.223 53.4821 149.195 53.5928C149.112 54.0357 149.029 54.4509 148.918 54.8937C148.835 55.2536 149.029 55.6687 149.389 55.7518C149.749 55.8071 150.136 55.6134 150.247 55.2259Z" fill="#1C2D5A"/>
<path d="M47.4479 93.201C47.2819 95.8582 47.1158 98.4876 47.0051 101.145C46.8667 103.691 46.8944 106.293 47.5863 108.756C47.8354 109.614 49.164 109.255 48.9149 108.397C48.2229 105.989 48.2506 103.497 48.389 101.034C48.5274 98.4323 48.6935 95.8305 48.8319 93.2287C48.8872 92.3153 47.5033 92.3153 47.4479 93.201Z" fill="#1C2D5A"/>
<path d="M18.026 108.037V93.2009" stroke="#1C2D5A" stroke-width="2.82222" stroke-miterlimit="10" stroke-linecap="round" stroke-linejoin="round"/>
<path d="M54.4509 92.6477C53.6205 92.3986 52.7902 92.2325 51.9321 92.1772C51.5723 92.1495 51.2125 92.5093 51.2401 92.8691C51.2678 93.2566 51.5446 93.5334 51.9321 93.5611C52.1259 93.5888 52.3196 93.5888 52.5134 93.6165C52.458 93.6165 52.4026 93.5888 52.3196 93.5888C52.9285 93.6718 53.5098 93.8102 54.0911 93.9763C54.4232 94.087 54.866 93.8379 54.9491 93.5057C55.0044 93.1182 54.8107 92.7584 54.4509 92.6477Z" fill="#1C2D5A"/>
<path d="M63.8341 109.144H56.7207" stroke="#1C2D5A" stroke-width="2.82222" stroke-miterlimit="10"/>
<path d="M44.5139 92.5091C44.5139 90.4332 46.2023 88.7725 48.2505 88.7725C50.3264 88.7725 51.9871 90.4609 51.9871 92.5091C51.9871 94.585 50.2987 96.2457 48.2505 96.2457C46.2023 96.2457 44.5139 94.585 44.5139 92.5091Z" fill="#5BBCB0"/>
<path d="M44.5139 92.5091C44.5139 90.4332 46.2023 88.7725 48.2505 88.7725C50.3264 88.7725 51.9871 90.4609 51.9871 92.5091C51.9871 94.585 50.2987 96.2457 48.2505 96.2457C46.2023 96.2457 44.5139 94.585 44.5139 92.5091Z" stroke="#1C2D5A" stroke-width="2.25778" stroke-miterlimit="10"/>
<path d="M3.10787 104.106C2.60966 102.418 3.57841 100.674 5.26681 100.176C6.9552 99.6775 8.69896 100.646 9.19717 102.335C9.69539 104.023 8.72663 105.767 7.03824 106.265C5.34984 106.736 3.57841 105.767 3.10787 104.106Z" fill="#B1DBD5"/>
<path d="M3.10787 104.106C2.60966 102.418 3.57841 100.674 5.26681 100.176C6.9552 99.6775 8.69896 100.646 9.19717 102.335C9.69539 104.023 8.72663 105.767 7.03824 106.265C5.34984 106.736 3.57841 105.767 3.10787 104.106Z" stroke="#1C2D5A" stroke-width="2.25778" stroke-miterlimit="10"/>
<path d="M15.1201 112.465C14.6219 110.777 15.5906 109.033 17.279 108.535C18.9674 108.037 20.7112 109.005 21.2094 110.694C21.7076 112.382 20.7388 114.126 19.0504 114.624C17.3621 115.122 15.6183 114.154 15.1201 112.465Z" fill="#8FCCE1"/>
<path d="M15.1201 112.465C14.6219 110.777 15.5906 109.033 17.279 108.535C18.9674 108.037 20.7112 109.005 21.2094 110.694C21.7076 112.382 20.7388 114.126 19.0504 114.624C17.3621 115.122 15.6183 114.154 15.1201 112.465Z" stroke="#1C2D5A" stroke-width="2.25778" stroke-miterlimit="10"/>
<path d="M39.0611 108.59L48.1397 108.535" stroke="#1C2D5A" stroke-width="2.82222" stroke-miterlimit="10" stroke-linecap="round" stroke-linejoin="round"/>
<path d="M45.7045 108.037V115.344" stroke="#1C2D5A" stroke-width="2.82222" stroke-miterlimit="10"/>
<path d="M51.8213 109.864C51.3231 108.175 52.2918 106.431 53.9802 105.933C55.6686 105.435 57.4124 106.404 57.9106 108.092C58.4088 109.781 57.4401 111.524 55.7517 112.022C54.0633 112.493 52.3195 111.524 51.8213 109.864Z" fill="#8FCCE1"/>
<path d="M51.8213 109.864C51.3231 108.175 52.2918 106.431 53.9802 105.933C55.6686 105.435 57.4124 106.404 57.9106 108.092C58.4088 109.781 57.4401 111.524 55.7517 112.022C54.0633 112.493 52.3195 111.524 51.8213 109.864Z" stroke="#1C2D5A" stroke-width="2.25778" stroke-miterlimit="10"/>
<path d="M26.9102 108.009H32.9995" stroke="#1C2D5A" stroke-width="2.82222" stroke-miterlimit="10" stroke-linecap="round" stroke-linejoin="round"/>
<path d="M14.7043 91.319C14.2061 89.6306 15.1748 87.8869 16.8632 87.3886C18.5516 86.8904 20.2954 87.8592 20.7936 89.5476C21.2918 91.236 20.3231 92.9797 18.6347 93.4779C16.9463 93.9761 15.2025 93.0074 14.7043 91.319Z" fill="#CBE5F1"/>
<path d="M14.7043 91.319C14.2061 89.6306 15.1748 87.8869 16.8632 87.3886C18.5516 86.8904 20.2954 87.8592 20.7936 89.5476C21.2918 91.236 20.3231 92.9797 18.6347 93.4779C16.9463 93.9761 15.2025 93.0074 14.7043 91.319Z" stroke="#1C2D5A" stroke-width="2.25778" stroke-miterlimit="10"/>
<path d="M55.2816 105.379C55.0602 102.556 54.8942 99.7052 55.0602 96.8543C55.1433 95.4703 55.3924 94.0864 55.5031 92.7025C55.6138 91.2632 55.5584 89.8239 55.337 88.4123C55.2817 88.0525 54.8111 87.831 54.479 87.9417C54.0915 88.0524 53.9254 88.4123 54.0084 88.7998C54.2022 90.1283 54.2299 91.5123 54.1191 92.8409C53.9807 94.2248 53.7593 95.6087 53.6763 96.9926C53.5102 99.7882 53.6763 102.584 53.8977 105.379C53.9254 105.739 54.2022 106.071 54.5897 106.071C54.9495 106.071 55.3093 105.739 55.2816 105.379Z" fill="#1C2D5A"/>
<path d="M17.2779 102.639C14.7315 102.556 12.1851 102.473 9.63865 102.418C8.75294 102.39 8.75294 103.774 9.63865 103.802C12.1851 103.885 14.7315 103.968 17.2779 104.023C18.1637 104.051 18.1637 102.667 17.2779 102.639Z" fill="#1C2D5A"/>
<path d="M27.547 107.815C27.2149 105.684 26.6336 103.359 27.2425 101.228C27.4916 100.37 26.1631 100.01 25.914 100.868C25.1943 103.248 25.8309 105.795 26.2184 108.203C26.2738 108.563 26.7443 108.784 27.0765 108.673C27.4363 108.563 27.6024 108.203 27.547 107.815Z" fill="#1C2D5A"/>
<path d="M54.3682 98.1833C57.3575 97.9619 60.4022 96.9378 63.4191 97.4914C63.779 97.5744 64.1665 97.3806 64.2772 97.0208C64.3602 96.6887 64.1665 96.2458 63.8066 96.1628C60.6236 95.5539 57.5236 96.5503 54.3682 96.7994C54.0084 96.8271 53.6763 97.1039 53.6763 97.4914C53.6763 97.8512 53.9807 98.211 54.3682 98.1833Z" fill="#1C2D5A"/>
<path d="M29.8168 89.6031C29.457 88.3299 30.1766 87.0013 31.4498 86.6138C32.723 86.254 34.0516 86.9736 34.4391 88.2468C34.799 89.52 34.0793 90.8486 32.8061 91.2361C31.5329 91.5959 30.2043 90.8763 29.8168 89.6031Z" fill="#8FCCE1"/>
<path d="M29.8168 89.6031C29.457 88.3299 30.1766 87.0013 31.4498 86.6138C32.723 86.254 34.0516 86.9736 34.4391 88.2468C34.799 89.52 34.0793 90.8486 32.8061 91.2361C31.5329 91.5959 30.2043 90.8763 29.8168 89.6031Z" stroke="#1C2D5A" stroke-width="2.25778" stroke-miterlimit="10"/>
<path d="M29.3468 88.6062C27.9629 88.4678 26.579 88.7999 25.2504 89.1321C23.9495 89.4642 22.5932 89.8241 21.2647 89.6303C20.9602 89.6026 20.6834 89.7133 20.5727 90.0178C20.4897 90.2669 20.6557 90.6544 20.9602 90.7098C22.3995 90.9035 23.8111 90.6544 25.195 90.2946C26.5513 89.9624 27.9352 89.5749 29.3468 89.7133C29.6513 89.741 29.9004 89.4366 29.9004 89.1598C29.9004 88.8276 29.6513 88.6339 29.3468 88.6062Z" fill="#1C2D5A"/>
<path d="M38.1206 100.619C37.7608 99.346 38.4804 98.0174 39.7537 97.6299C41.0269 97.2701 42.3555 97.9897 42.743 99.2629C43.1028 100.536 42.3831 101.865 41.1099 102.252C39.8367 102.64 38.5081 101.892 38.1206 100.619Z" fill="#8FCCE1"/>
<path d="M38.1206 100.619C37.7608 99.346 38.4804 98.0174 39.7537 97.6299C41.0269 97.2701 42.3555 97.9897 42.743 99.2629C43.1028 100.536 42.3831 101.865 41.1099 102.252C39.8367 102.64 38.5081 101.892 38.1206 100.619Z" stroke="#1C2D5A" stroke-width="2.25778" stroke-miterlimit="10"/>
<path d="M47.0334 99.4564C45.7325 99.4287 44.4039 99.3733 43.103 99.3457C42.3004 99.318 42.3004 100.564 43.103 100.591C44.4039 100.619 45.7325 100.674 47.0334 100.702C47.8361 100.73 47.8361 99.4841 47.0334 99.4564Z" fill="#1C2D5A"/>
<path d="M57.4951 88.8832C57.1076 87.5823 57.8549 86.2537 59.1281 85.8662C60.4013 85.5064 61.7576 86.226 62.1174 87.5269C62.5049 88.8278 61.7576 90.1564 60.4844 90.5439C59.2111 90.9037 57.8549 90.1564 57.4951 88.8832Z" fill="#B1DBD5"/>
<path d="M57.4951 88.8832C57.1076 87.5823 57.8549 86.2537 59.1281 85.8662C60.4013 85.5064 61.7576 86.226 62.1174 87.5269C62.5049 88.8278 61.7576 90.1564 60.4844 90.5439C59.2111 90.9037 57.8549 90.1564 57.4951 88.8832Z" stroke="#1C2D5A" stroke-width="2.25778" stroke-miterlimit="10"/>
<path d="M54.7552 89.1322H56.9972C57.357 89.1322 57.7168 88.8278 57.6892 88.4403C57.6615 88.0528 57.3847 87.7483 56.9972 87.7483H54.7552C54.3954 87.7483 54.0356 88.0804 54.0633 88.4403C54.0633 88.8001 54.3677 89.1322 54.7552 89.1322Z" fill="#1C2D5A"/>
<path d="M39.3383 77.507V88.7722" stroke="#1C2D5A" stroke-width="2.82222" stroke-miterlimit="10" stroke-linecap="round" stroke-linejoin="round"/>
<path d="M34.6614 88.9939C36.2115 88.8556 37.6784 89.0216 39.1177 89.5475C39.4775 89.6859 39.865 89.4091 39.9757 89.077C40.0865 88.6895 39.8374 88.3573 39.5052 88.219C37.9552 87.6654 36.2945 87.4716 34.6614 87.61C34.3016 87.6377 33.9695 87.9145 33.9695 88.302C33.9695 88.6618 34.2739 89.0493 34.6614 88.9939Z" fill="#1C2D5A"/>
<path d="M7.4252 77.5075C7.39753 80.4968 7.06538 83.4585 6.45645 86.3924C6.37342 86.7522 6.56717 87.1397 6.92699 87.2504C7.25913 87.3335 7.70199 87.1397 7.78502 86.7799C8.42163 83.7352 8.75378 80.6352 8.78146 77.5352C8.80913 76.6218 7.4252 76.6218 7.4252 77.5075Z" fill="#1C2D5A"/>
<path d="M4.60146 89.4091C4.24164 88.1359 4.96129 86.8073 6.2345 86.4198C7.50772 86.06 8.8363 86.7796 9.2238 88.0529C9.58362 89.3261 8.86397 90.6547 7.59076 91.0422C6.31754 91.402 4.98896 90.6823 4.60146 89.4091Z" fill="#8FCCE1"/>
<path d="M4.60146 89.4091C4.24164 88.1359 4.96129 86.8073 6.2345 86.4198C7.50772 86.06 8.8363 86.7796 9.2238 88.0529C9.58362 89.3261 8.86397 90.6547 7.59076 91.0422C6.31754 91.402 4.98896 90.6823 4.60146 89.4091Z" stroke="#1C2D5A" stroke-width="2.25778" stroke-miterlimit="10"/>
<path d="M46.2309 83.707C45.871 82.4338 46.5907 81.1052 47.8639 80.7177C49.1371 80.3579 50.4657 81.0775 50.8532 82.3507C51.213 83.6239 50.4934 84.9525 49.2202 85.34C47.9469 85.6998 46.5907 84.9802 46.2309 83.707Z" fill="#CBE5F1"/>
<path d="M46.2309 83.707C45.871 82.4338 46.5907 81.1052 47.8639 80.7177C49.1371 80.3579 50.4657 81.0775 50.8532 82.3507C51.213 83.6239 50.4934 84.9525 49.2202 85.34C47.9469 85.6998 46.5907 84.9802 46.2309 83.707Z" stroke="#1C2D5A" stroke-width="2.25778" stroke-miterlimit="10"/>
<path d="M21.6519 78.0051V79.8596C21.6519 80.1364 21.901 80.4131 22.2054 80.4131C22.5099 80.4131 22.759 80.164 22.759 79.8596V78.0051C22.759 77.7283 22.5099 77.4515 22.2054 77.4515C21.901 77.4792 21.6519 77.7006 21.6519 78.0051Z" fill="#1C2D5A"/>
<path d="M20.0186 82.6279C19.6864 81.4377 20.3507 80.1922 21.5409 79.86C22.7311 79.5279 23.9766 80.1922 24.3088 81.3823C24.6409 82.5725 23.9766 83.8181 22.7864 84.1502C21.5963 84.4823 20.3507 83.7904 20.0186 82.6279Z" fill="#8FCCE1"/>
<path d="M20.0186 82.6279C19.6864 81.4377 20.3507 80.1922 21.5409 79.86C22.7311 79.5279 23.9766 80.1922 24.3088 81.3823C24.6409 82.5725 23.9766 83.8181 22.7864 84.1502C21.5963 84.4823 20.3507 83.7904 20.0186 82.6279Z" stroke="#1C2D5A" stroke-width="2.25778" stroke-miterlimit="10"/>
<path d="M42.7427 119.523C42.2445 117.835 43.2132 116.091 44.9016 115.593C46.59 115.095 48.3338 116.064 48.832 117.752C49.3302 119.44 48.3615 121.184 46.6731 121.682C44.9847 122.153 43.2409 121.212 42.7427 119.523Z" fill="#B1DBD5"/>
<path d="M42.7427 119.523C42.2445 117.835 43.2132 116.091 44.9016 115.593C46.59 115.095 48.3338 116.064 48.832 117.752C49.3302 119.44 48.3615 121.184 46.6731 121.682C44.9847 122.153 43.2409 121.212 42.7427 119.523Z" stroke="#1C2D5A" stroke-width="2.25778" stroke-miterlimit="10"/>
<path d="M23.8661 98.8196C23.3956 97.2419 24.3089 95.6088 25.8866 95.1383C27.4643 94.6678 29.0974 95.5812 29.5679 97.1588C30.0384 98.7365 29.125 100.37 27.5473 100.84C25.9973 101.311 24.3366 100.397 23.8661 98.8196Z" fill="#B1DBD5"/>
<path d="M23.8661 98.8196C23.3956 97.2419 24.3089 95.6088 25.8866 95.1383C27.4643 94.6678 29.0974 95.5812 29.5679 97.1588C30.0384 98.7365 29.125 100.37 27.5473 100.84C25.9973 101.311 24.3366 100.397 23.8661 98.8196Z" stroke="#1C2D5A" stroke-width="2.25778" stroke-miterlimit="10"/>
<path d="M33.2493 108.811C32.7511 107.123 33.7198 105.379 35.4082 104.881C37.0966 104.383 38.8404 105.352 39.3386 107.04C39.8368 108.728 38.8681 110.472 37.1797 110.97C35.4913 111.441 33.7475 110.472 33.2493 108.811Z" fill="#CBE5F1"/>
<path d="M33.2493 108.811C32.7511 107.123 33.7198 105.379 35.4082 104.881C37.0966 104.383 38.8404 105.352 39.3386 107.04C39.8368 108.728 38.8681 110.472 37.1797 110.97C35.4913 111.441 33.7475 110.472 33.2493 108.811Z" stroke="#1C2D5A" stroke-width="2.25778" stroke-miterlimit="10"/>
<path d="M123.509 2H2V77.0091H123.509V2Z" fill="#F7F3F5"/>
<path d="M123.509 2H2V77.0091H123.509V2Z" stroke="#1C2D5A" stroke-width="4.00135" stroke-miterlimit="10" stroke-linecap="round" stroke-linejoin="round"/>
<path d="M115.206 10.7185H9.61182V68.0133H115.206V10.7185Z" fill="#1C2D5A"/>
<path d="M115.206 10.7185H9.61182V68.0133H115.206V10.7185Z" stroke="#1C2D5A" stroke-width="8.40627" stroke-miterlimit="10" stroke-linecap="round" stroke-linejoin="round"/>
<path d="M12.9886 65.3564C24.7243 41.4421 44.4038 24.3921 71.7226 14.0126C73.5771 13.3206 73.0512 10.5804 71.086 10.5804H11.5493C10.5806 10.5804 9.77789 11.3831 9.77789 12.3519L9.61182 64.5538C9.61182 66.4359 12.1582 67.0448 12.9886 65.3564Z" fill="#24406E"/>
<path d="M149.416 125.613L150.025 143.521C150.135 143.853 149.803 144.13 149.554 143.936L133.777 127.052L79.7209 126.277C71.1682 126.277 64.2485 119.468 64.2485 111.054V79.7771C64.2485 71.3628 71.1682 64.5538 79.7209 64.5538H144.544C153.097 64.5538 160.017 71.3628 160.017 79.7771V111.054C160.044 119.441 157.968 125.613 149.416 125.613Z" fill="#F7F3F5"/>
<path d="M149.416 125.613L150.025 143.521C150.135 143.853 149.803 144.13 149.554 143.936L133.777 127.052L79.7209 126.277C71.1682 126.277 64.2485 119.468 64.2485 111.054V79.7771C64.2485 71.3628 71.1682 64.5538 79.7209 64.5538H144.544C153.097 64.5538 160.017 71.3628 160.017 79.7771V111.054C160.044 119.441 157.968 125.613 149.416 125.613Z" stroke="#1C2D5A" stroke-width="3.95111" stroke-miterlimit="10" stroke-linecap="round" stroke-linejoin="round"/>
<path d="M115.759 76.4556C115.759 84.3994 104.854 90.8485 91.402 90.8485C77.9502 90.8485 67.0448 84.3994 67.0448 76.4556C67.0448 68.5119 77.9502 62.0627 91.402 62.0627C104.854 62.0627 115.759 68.5119 115.759 76.4556Z" fill="#F7F3F5"/>
<path d="M150.385 73.4662C148.531 73.7707 147.202 74.2689 146.344 74.9332C145.514 75.5975 145.099 77.0367 145.099 79.3064V100.84C145.099 101.698 145.043 102.612 144.96 103.553C144.877 104.494 144.739 105.463 144.545 106.459C144.268 107.871 143.881 109.227 143.355 110.583C142.829 111.939 142.137 113.074 141.279 113.96C140.283 115.012 139.12 115.87 137.819 116.534C136.518 117.198 135.162 117.724 133.751 118.084C132.699 118.361 131.702 118.555 130.706 118.665C129.71 118.776 128.796 118.831 127.938 118.831C126.997 118.831 125.751 118.776 124.257 118.638C122.734 118.499 121.184 118.139 119.551 117.558C118.638 117.281 117.725 116.922 116.811 116.451C115.898 115.981 115.012 115.372 114.209 114.652C114.154 114.597 114.099 114.569 114.043 114.514C113.988 114.458 113.905 114.431 113.877 114.375C112.521 113.102 111.469 111.69 110.694 110.085C109.919 108.48 109.532 105.906 109.532 102.39V79.6939C109.532 77.0367 109.117 75.4037 108.314 74.7948C107.511 74.1858 106.238 73.7983 104.522 73.6046C104.439 73.6046 104.328 73.6046 104.245 73.5769C104.162 73.5492 104.051 73.5492 103.968 73.5492V71.7778H126.859V73.4662C126.803 73.5216 126.776 73.5216 126.72 73.5216H126.582C124.423 73.6046 122.818 73.9367 121.793 74.4903C120.769 75.0439 120.271 76.8153 120.271 79.7492V102.307C120.271 103.082 120.299 103.968 120.326 104.992C120.382 106.016 120.52 107.068 120.742 108.148C121.184 110.057 122.098 111.773 123.426 113.296C124.755 114.818 126.969 115.593 130.042 115.593C133.778 115.593 136.491 114.735 138.179 113.019C139.84 111.303 140.947 109.393 141.501 107.317C141.777 106.099 141.943 104.937 141.999 103.802C142.054 102.667 142.11 101.698 142.11 100.896V80.1644C142.11 78.1439 141.75 76.5385 141.002 75.4314C140.255 74.2966 138.428 73.6599 135.494 73.5216V71.7501H150.385V73.4662Z" fill="#1C2D5A"/>
<path d="M22.7859 48.4998V23.8105H13.9564V18.7729H37.594V23.8105H28.7922V48.4998H22.7859Z" fill="#F7F3F5"/>
<path d="M22.7859 48.4998V23.8105H13.9564V18.7729H37.594V23.8105H28.7922V48.4998H22.7859Z" stroke="#F7F3F5" stroke-width="0.951653" stroke-miterlimit="10" stroke-linecap="round" stroke-linejoin="round"/>
<path d="M41.5254 48.5001V25.4438H59.9317V30.1492H47.3656V34.0519H59.046V38.7573H47.3656V43.7671H60.3745V48.5001H41.5254Z" fill="#F7F3F5"/>
<path d="M41.5254 48.5001V25.4438H59.9317V30.1492H47.3656V34.0519H59.046V38.7573H47.3656V43.7671H60.3745V48.5001H41.5254Z" stroke="#F7F3F5" stroke-width="0.951653" stroke-miterlimit="10" stroke-linecap="round" stroke-linejoin="round"/>
<path d="M85.2853 40.9434C84.5103 43.6282 83.2648 45.6211 81.521 46.922C79.7773 48.2229 77.5907 48.8595 74.9335 48.8595C73.2728 48.8595 71.7782 48.5827 70.4219 48.0291C69.0657 47.4755 67.8755 46.7005 66.9067 45.6764C65.9103 44.6523 65.163 43.4345 64.6094 41.9675C64.0558 40.5282 63.7791 38.8952 63.7791 37.1237C63.7791 35.2416 64.0558 33.5255 64.6094 32.0309C65.163 30.5362 65.938 29.263 66.9344 28.2112C67.9308 27.1594 69.1487 26.3844 70.5603 25.8308C71.9719 25.2773 73.5219 25.0005 75.238 25.0005C77.7568 25.0005 79.888 25.6094 81.6318 26.7996C83.3755 27.9898 84.5657 29.8166 85.23 32.3076L79.3621 33.2487C79.0023 32.0032 78.4487 31.1175 77.7014 30.6192C76.9541 30.0934 76.0407 29.8442 74.9612 29.8442C74.2139 29.8442 73.4942 29.955 72.8576 30.2041C72.221 30.4532 71.6675 30.8407 71.1969 31.3666C70.7264 31.9201 70.3666 32.6121 70.1175 33.5255C69.8683 34.4112 69.73 35.5184 69.73 36.8193C69.73 38.1755 69.8683 39.338 70.1175 40.2514C70.3666 41.1648 70.7264 41.9121 71.1969 42.4934C71.6675 43.047 72.1933 43.4621 72.83 43.7112C73.4666 43.9603 74.1309 44.0711 74.8782 44.0711C75.93 44.0711 76.8434 43.7389 77.646 43.047C78.4487 42.3827 79.0576 41.3032 79.4728 39.8362L85.2853 40.9434Z" fill="#F7F3F5"/>
<path d="M85.2853 40.9434C84.5103 43.6282 83.2648 45.6211 81.521 46.922C79.7773 48.2229 77.5907 48.8595 74.9335 48.8595C73.2728 48.8595 71.7782 48.5827 70.4219 48.0291C69.0657 47.4755 67.8755 46.7005 66.9067 45.6764C65.9103 44.6523 65.163 43.4345 64.6094 41.9675C64.0558 40.5282 63.7791 38.8952 63.7791 37.1237C63.7791 35.2416 64.0558 33.5255 64.6094 32.0309C65.163 30.5362 65.938 29.263 66.9344 28.2112C67.9308 27.1594 69.1487 26.3844 70.5603 25.8308C71.9719 25.2773 73.5219 25.0005 75.238 25.0005C77.7568 25.0005 79.888 25.6094 81.6318 26.7996C83.3755 27.9898 84.5657 29.8166 85.23 32.3076L79.3621 33.2487C79.0023 32.0032 78.4487 31.1175 77.7014 30.6192C76.9541 30.0934 76.0407 29.8442 74.9612 29.8442C74.2139 29.8442 73.4942 29.955 72.8576 30.2041C72.221 30.4532 71.6675 30.8407 71.1969 31.3666C70.7264 31.9201 70.3666 32.6121 70.1175 33.5255C69.8683 34.4112 69.73 35.5184 69.73 36.8193C69.73 38.1755 69.8683 39.338 70.1175 40.2514C70.3666 41.1648 70.7264 41.9121 71.1969 42.4934C71.6675 43.047 72.1933 43.4621 72.83 43.7112C73.4666 43.9603 74.1309 44.0711 74.8782 44.0711C75.93 44.0711 76.8434 43.7389 77.646 43.047C78.4487 42.3827 79.0576 41.3032 79.4728 39.8362L85.2853 40.9434Z" stroke="#F7F3F5" stroke-width="0.951653" stroke-miterlimit="10" stroke-linecap="round" stroke-linejoin="round"/>
<path d="M89.7691 48.5001V25.4438H95.6093V34.1073H104.107V25.4438H109.947V48.5001H104.107V38.8403H95.6093V48.5001H89.7691Z" fill="#F7F3F5"/>
<path d="M89.7691 48.5001V25.4438H95.6093V34.1073H104.107V25.4438H109.947V48.5001H104.107V38.8403H95.6093V48.5001H89.7691Z" stroke="#F7F3F5" stroke-width="0.951653" stroke-miterlimit="10" stroke-linecap="round" stroke-linejoin="round"/>
<path d="M87.9432 109.005C88.3861 108.23 88.995 107.428 89.7146 106.597C90.4343 105.767 92.178 104.106 94.9182 101.588C97.6584 99.0689 99.5406 97.159 100.592 95.8028C102.17 93.7822 103.333 91.8447 104.08 90.018C104.799 88.1635 105.187 86.226 105.187 84.2054C105.187 80.6072 103.914 77.6179 101.367 75.2099C98.8209 72.8018 95.3057 71.584 90.8218 71.584C86.753 71.584 83.3486 72.6358 80.6361 74.7117C77.9236 76.7876 76.2905 80.2197 75.7923 85.0081L84.4557 85.8662C84.6218 83.3197 85.2307 81.5206 86.3102 80.4411C87.3896 79.3617 88.8289 78.8081 90.628 78.8081C92.4548 78.8081 93.8941 79.334 94.9459 80.3581C95.9977 81.4099 96.4959 82.8769 96.4959 84.8144C96.4959 86.5581 95.887 88.3296 94.6968 90.1287C93.8111 91.4296 91.403 93.893 87.5004 97.5465C82.6289 102.058 79.3905 105.684 77.7298 108.397C76.0691 111.137 75.1003 114.015 74.7682 117.06H105.215V109.005H87.9432Z" fill="#0581C1" stroke="#1C2D5A" stroke-width="2.25778" stroke-miterlimit="10" stroke-linecap="round" stroke-linejoin="round"/>
<path d="M116.287 113.213L104.689 104.743V121.682L116.287 113.213Z" fill="#0581C1"/>
<path d="M116.287 113.213L104.689 104.743V121.682L116.287 113.213Z" stroke="#1C2D5A" stroke-width="2.25778" stroke-miterlimit="10" stroke-linecap="round" stroke-linejoin="round"/>
<path d="M68.2095 73.4659C67.5452 72.9677 66.7979 72.9124 65.9952 72.774C65.1925 72.6356 64.4452 72.2758 63.6979 71.999C62.9229 71.7222 62.0371 72.3311 61.8157 73.0508C61.5943 73.9088 62.1202 74.6284 62.8675 74.9329C63.5595 75.182 64.2514 75.5142 64.9988 75.6802C65.5523 75.7909 66.1613 75.7633 66.6595 76.0954C67.3238 76.5936 68.3479 76.2061 68.7354 75.5418C69.2059 74.7668 68.8738 73.9365 68.2095 73.4659Z" fill="#F7F3F5"/>
<path d="M63.8913 74.1305C65.635 73.9645 67.0743 74.7118 68.7627 74.8225C70.7279 74.9332 70.7002 71.8886 68.7627 71.7778C67.9877 71.7225 67.2681 71.3627 66.5208 71.2243C65.6627 71.0582 64.777 71.0028 63.8913 71.0859C63.0609 71.1689 62.369 71.7225 62.369 72.6082C62.369 73.3555 63.0609 74.2136 63.8913 74.1305Z" fill="#F7F3F5"/>
<path d="M65.5789 72.0542C67.0736 72.1372 68.5682 72.1649 70.0629 72.1372L65.5789 72.0542Z" fill="#F7F3F5"/>
<path d="M63.5591 75.4864H65.7733C66.8528 75.4864 66.8528 73.8257 65.7733 73.8257H63.5591C62.4796 73.8257 62.4796 75.4864 63.5591 75.4864Z" fill="#F7F3F5"/>
<path d="M66.9915 78.7807V75.8744C66.9915 74.795 65.3307 74.795 65.3307 75.8744V78.7807C65.3307 79.8601 66.9915 79.8601 66.9915 78.7807Z" fill="#F7F3F5"/>
<path d="M66.9355 79.0018V75.5143C66.9355 74.4348 65.2748 74.4348 65.2748 75.5143V79.0018C65.2748 80.0813 66.9355 80.0813 66.9355 79.0018Z" fill="#F7F3F5"/>
<path d="M66.0775 79.0845C66.299 74.822 62.2025 75.2095 62.2025 75.2095" stroke="#F7F3F5" stroke-width="3.27378" stroke-miterlimit="10"/>
<path d="M65.6628 70.9473H71.7521" stroke="#F7F3F5" stroke-width="3.556" stroke-miterlimit="10"/>
<path d="M117.31 63.4741V65.6607C117.31 65.8821 117.504 66.0759 117.725 66.0759C117.947 66.0759 118.14 65.8821 118.14 65.6607V63.4187C118.14 63.1973 117.947 63.0035 117.725 63.0035C117.504 63.0035 117.31 63.1973 117.31 63.4187V63.8062C117.31 64.0276 117.504 64.2214 117.725 64.2214C117.947 64.2214 118.14 64.0276 118.14 63.8062V63.4187C118.14 63.1973 117.947 63.0035 117.725 63.0035C117.504 63.0035 117.31 63.1973 117.31 63.4187V65.6607C117.31 65.8821 117.504 66.0759 117.725 66.0759C117.947 66.0759 118.14 65.8821 118.14 65.6607V63.4741C118.14 63.2527 117.947 63.0589 117.725 63.0589C117.504 63.0589 117.31 63.225 117.31 63.4741Z" fill="#F7F3F5"/>
<path d="M117.283 63.5573V66.0483C117.283 66.2698 117.477 66.4635 117.698 66.4635C117.92 66.4635 118.114 66.2698 118.114 66.0483V63.5573C118.114 63.3358 117.92 63.1421 117.698 63.1421C117.449 63.1421 117.283 63.3082 117.283 63.5573Z" fill="#F7F3F5"/>
<path d="M117.781 63.4463C117.781 63.8615 117.781 64.249 117.781 64.6642C117.781 65.0517 117.753 65.4669 117.864 65.8267C117.975 66.1588 118.445 66.2696 118.611 65.9374C118.805 65.5499 119.027 65.1624 119.11 64.7472C119.22 64.3044 119.137 63.8615 119.248 63.4187C118.971 63.391 118.694 63.3356 118.445 63.3079C118.473 63.7508 118.667 64.166 118.778 64.5812C118.861 64.9963 118.916 65.4115 118.971 65.8267C119.027 66.3526 119.746 66.3526 119.802 65.8267C119.829 65.4946 119.774 64.941 119.386 64.8303C118.944 64.6919 118.75 65.1901 118.556 65.4946L119.303 65.8267C119.469 65.1347 119.774 64.4981 120.078 63.8615C120.328 63.3633 121.02 62.2285 120.161 61.924C119.885 61.841 119.663 62.0624 119.636 62.3115C119.58 63.0312 119.497 63.7785 119.442 64.4981C119.386 65.2178 119.414 65.9374 119.774 66.6017C119.885 66.7678 120.106 66.8508 120.3 66.7678C120.494 66.6847 120.577 66.491 120.549 66.2696C120.466 65.7437 120.466 65.1901 120.521 64.6365C120.549 64.3874 120.577 64.1106 120.66 63.8615C120.715 63.6124 120.77 63.3633 120.909 63.1695C120.66 63.1419 120.411 63.1142 120.161 63.0588C120.355 64.0829 120.521 65.1071 120.853 66.1035C120.992 66.5463 121.684 66.491 121.656 65.9928C121.656 65.5222 121.767 65.0794 121.85 64.6088C121.905 64.3874 122.016 64.1106 121.933 63.8615C121.85 63.5847 121.545 63.474 121.296 63.557C120.244 63.8892 120.383 65.2178 120.411 66.1035C120.66 66.0204 120.936 65.9651 121.186 65.8821C120.992 65.4115 120.992 64.8579 121.103 64.3597C121.158 64.0829 121.269 63.8062 121.352 63.557C121.407 63.391 121.49 63.0588 121.656 62.9758C121.462 62.8928 121.241 62.8097 121.047 62.7267C121.213 63.8062 121.435 64.8856 121.739 65.9651C121.794 66.1588 121.988 66.2972 122.182 66.2696C122.376 66.2419 122.569 66.0758 122.542 65.8544C122.486 65.4115 122.486 64.941 122.486 64.4981C122.486 64.3044 122.486 64.0829 122.486 63.8892C122.486 63.7785 122.459 63.6678 122.403 63.557C122.376 63.5017 122.348 63.4187 122.376 63.3633C122.459 63.1419 122.293 62.9204 122.099 62.8651C121.878 62.8097 121.656 62.9481 121.601 63.1419C121.518 63.3633 121.573 63.5847 121.656 63.8062C121.711 63.9999 121.711 64.2213 121.711 64.4151C121.711 64.8856 121.684 65.3838 121.767 65.8544C122.044 65.8267 122.32 65.7713 122.569 65.7437C122.265 64.6919 122.044 63.6124 121.878 62.5053C121.822 62.2008 121.49 62.1731 121.269 62.2562C120.936 62.3946 120.798 62.7821 120.687 63.0865C120.549 63.4187 120.411 63.7785 120.328 64.1106C120.161 64.8303 120.189 65.5776 120.494 66.2696C120.66 66.6571 121.296 66.4633 121.269 66.0481C121.241 65.6606 121.241 65.2454 121.269 64.8579C121.269 64.7472 121.296 64.6088 121.352 64.4981C121.379 64.4428 121.435 64.3874 121.49 64.3321C121.545 64.3044 121.601 64.3044 121.545 64.3044C121.462 64.2767 121.407 64.2767 121.324 64.249C121.324 64.249 121.352 64.249 121.352 64.2767C121.296 64.1937 121.213 64.1106 121.158 64.0276C121.158 63.9446 121.158 63.9446 121.13 64.0276C121.13 64.0829 121.103 64.1383 121.103 64.166C121.075 64.249 121.075 64.3044 121.047 64.3874C121.019 64.5535 120.964 64.7196 120.936 64.8579C120.881 65.1901 120.826 65.5499 120.826 65.9097C121.103 65.8821 121.379 65.8267 121.628 65.799C121.296 64.8026 121.13 63.7785 120.936 62.7544C120.853 62.3669 120.355 62.3669 120.189 62.6437C119.857 63.1696 119.774 63.8615 119.719 64.4704C119.663 65.1071 119.691 65.7713 119.774 66.408C120.023 66.2972 120.272 66.1865 120.521 66.0758C120.217 65.5222 120.272 64.8579 120.328 64.249C120.383 63.557 120.438 62.8928 120.494 62.2008L119.968 62.5883H119.995C119.94 62.5606 119.885 62.5053 119.802 62.4776C119.691 62.3945 119.802 62.3946 119.746 62.3946C119.719 62.3946 119.719 62.5329 119.691 62.5606C119.636 62.699 119.58 62.8374 119.525 62.9481C119.386 63.2249 119.248 63.5017 119.137 63.7785C118.888 64.3321 118.639 64.8856 118.501 65.4669C118.39 65.9097 118.999 66.2142 119.248 65.799C119.331 65.6606 119.414 65.4946 119.525 65.3562C119.469 65.4115 119.414 65.4669 119.386 65.4946L119.414 65.4669C119.303 65.4946 119.193 65.4946 119.082 65.5222C119.11 65.5222 119.11 65.5222 119.137 65.5222C119.082 65.4946 119.027 65.4392 118.944 65.4115C118.888 65.3562 118.944 65.4392 118.944 65.4946C118.944 65.5776 118.944 65.633 118.944 65.716H119.774C119.719 65.2731 119.663 64.8303 119.58 64.4151C119.553 64.2213 119.497 64.0276 119.442 63.8338C119.386 63.6401 119.276 63.4187 119.276 63.2249C119.248 62.7821 118.556 62.6437 118.473 63.1142C118.39 63.5294 118.445 63.9445 118.362 64.3597C118.279 64.7472 118.113 65.0794 117.919 65.4115L118.667 65.5222C118.556 65.1901 118.611 64.8303 118.611 64.4981C118.611 64.1106 118.611 63.7508 118.611 63.3633C118.611 62.9204 117.781 62.9204 117.781 63.4463Z" fill="#F7F3F5"/>
<path d="M121.712 63.4187V65.9652C121.712 66.1866 121.906 66.3803 122.127 66.3803C122.348 66.3803 122.542 66.1866 122.542 65.9652V63.4187C122.542 63.1973 122.348 63.0035 122.127 63.0035C121.878 63.0035 121.712 63.1696 121.712 63.4187Z" fill="#F7F3F5"/>
<path d="M116.12 66.1036C117.089 65.7991 117.781 65.0518 117.892 64.0277" stroke="#F7F3F5" stroke-width="2.25778" stroke-miterlimit="10"/>
<path d="M123.787 66.2141C122.79 65.882 122.071 65.0516 121.96 63.9445" stroke="#F7F3F5" stroke-width="2.38026" stroke-miterlimit="10"/>
<path d="M103.776 110.694C103.748 111.497 103.72 112.299 103.72 113.102C103.693 113.711 103.665 114.541 104.274 114.873C104.717 115.123 105.021 114.652 105.076 114.265C105.132 113.877 105.104 113.462 105.104 113.074C105.104 112.687 105.104 112.327 105.104 111.94C105.104 111.635 105.049 111.248 105.187 110.998H104.468C104.772 111.524 104.8 112.133 104.772 112.715C104.744 113.406 104.634 114.098 104.468 114.763C104.329 115.289 105.132 115.51 105.27 114.984C105.464 114.209 105.575 113.434 105.602 112.659C105.63 111.94 105.547 111.22 105.16 110.583C104.993 110.334 104.606 110.306 104.44 110.583C104.135 111.137 104.246 111.829 104.246 112.438C104.246 112.77 104.246 113.074 104.246 113.406C104.246 113.573 104.246 113.739 104.246 113.905C104.246 114.043 104.274 114.209 104.191 114.32C104.246 114.265 104.301 114.209 104.329 114.181C104.301 114.181 104.301 114.209 104.274 114.209C104.385 114.209 104.495 114.181 104.606 114.154C104.717 114.181 104.661 114.237 104.634 114.154C104.606 114.098 104.578 114.071 104.578 114.015C104.551 113.905 104.523 113.822 104.523 113.711C104.523 113.406 104.523 113.102 104.551 112.77C104.578 112.078 104.578 111.386 104.606 110.694C104.634 110.168 103.803 110.168 103.776 110.694Z" fill="#0581C1"/>
<path d="M103.388 116.506H104.938C105.602 116.506 106.184 115.925 106.184 115.261C106.184 114.596 105.602 114.015 104.938 114.015H102.696C102.032 114.015 101.451 114.596 101.451 115.261C101.451 115.925 102.032 116.506 102.696 116.506H104.938V114.015H103.388C102.724 114.015 102.143 114.596 102.143 115.261C102.143 115.925 102.724 116.506 103.388 116.506Z" fill="#0581C1"/>
<path d="M103.36 112.05H104.661C105.325 112.05 105.934 111.469 105.907 110.805C105.879 110.14 105.353 109.559 104.661 109.559H102.834C102.17 109.559 101.561 110.14 101.589 110.805C101.616 111.469 102.142 112.05 102.834 112.05H104.661V109.559H103.36C102.696 109.559 102.087 110.14 102.115 110.805C102.142 111.497 102.668 112.05 103.36 112.05Z" fill="#0581C1"/>
<path d="M103.914 112.05H105.16C105.824 112.05 106.433 111.469 106.405 110.805C106.377 110.14 105.851 109.559 105.16 109.559H103.416C102.751 109.559 102.143 110.14 102.17 110.805C102.198 111.469 102.724 112.05 103.416 112.05H105.16V109.559H103.914C103.25 109.559 102.641 110.14 102.668 110.805C102.724 111.469 103.222 112.05 103.914 112.05Z" fill="#0581C1"/>
<path d="M103.167 116.479C104.773 116.479 104.773 113.988 103.167 113.988C101.562 113.988 101.562 116.479 103.167 116.479Z" fill="#0581C1"/>
<path d="M103.72 116.506H105.326C105.99 116.506 106.599 115.925 106.571 115.261C106.544 114.596 106.018 114.015 105.326 114.015H103.444C102.779 114.015 102.17 114.596 102.198 115.261C102.226 115.925 102.752 116.506 103.444 116.506H105.326V114.015H103.72C103.056 114.015 102.447 114.596 102.475 115.261C102.503 115.925 103.029 116.506 103.72 116.506Z" fill="#0581C1"/>
<path d="M70.9751 129.93H69.5635V134.497H70.9751V129.93Z" fill="#1C2D5A"/>
<path d="M71.9996 134.47H73.3282V131.979L75.0442 134.47H76.3728V129.93H75.0442V132.449L73.3282 129.93H71.9996V134.47Z" fill="#1C2D5A"/>
<path d="M77.3138 134.47H78.7254V132.615H80.4968V131.702H78.7254V130.899H80.8013V129.93H77.3138V134.47Z" fill="#1C2D5A"/>
<path d="M83.0433 131.203C83.2094 131.01 83.4308 130.899 83.7353 130.899C84.0398 130.899 84.2612 131.01 84.4273 131.203C84.5933 131.397 84.6764 131.702 84.6764 132.144C84.6764 132.643 84.5933 133.003 84.4273 133.196C84.2612 133.39 84.0398 133.501 83.7353 133.501C83.4308 133.501 83.2094 133.39 83.0433 133.196C82.8773 133.003 82.7942 132.67 82.7942 132.2C82.7665 131.729 82.8773 131.397 83.0433 131.203ZM81.6871 133.528C81.9085 133.888 82.1576 134.137 82.5174 134.303C82.8496 134.47 83.2924 134.553 83.7907 134.553C84.2889 134.553 84.7317 134.47 85.0639 134.276C85.396 134.082 85.6728 133.833 85.8389 133.473C86.0049 133.141 86.1157 132.698 86.1157 132.172C86.1157 131.425 85.9219 130.871 85.5067 130.456C85.0916 130.041 84.5103 129.847 83.763 129.847C83.0156 129.847 82.4344 130.041 82.0192 130.456C81.604 130.871 81.4103 131.453 81.4103 132.2C81.3826 132.726 81.4656 133.169 81.6871 133.528Z" fill="#1C2D5A"/>
<path d="M88.274 130.843H88.883C89.1321 130.843 89.3258 130.871 89.4089 130.954C89.4919 131.037 89.5473 131.148 89.5473 131.286C89.5473 131.397 89.5196 131.48 89.4642 131.563C89.4089 131.646 89.3258 131.674 89.2428 131.701C89.049 131.757 88.9383 131.757 88.883 131.757H88.3017V130.843H88.274ZM88.274 134.469V132.615H88.3848C88.5231 132.615 88.6339 132.642 88.7169 132.725C88.7999 132.781 88.883 132.891 88.966 133.085L89.7133 134.469H91.291L90.599 133.141C90.5714 133.085 90.4883 132.975 90.4053 132.864C90.2946 132.753 90.2392 132.67 90.1839 132.615C90.1008 132.559 89.9901 132.504 89.824 132.449C90.0455 132.393 90.2115 132.338 90.3223 132.255C90.516 132.144 90.6544 132.006 90.7651 131.812C90.8758 131.618 90.9312 131.425 90.9312 131.148C90.9312 130.871 90.8481 130.622 90.7098 130.4C90.5714 130.207 90.3776 130.068 90.1562 129.985C89.9348 129.902 89.6026 129.875 89.1598 129.875H86.8071V134.441L88.274 134.469Z" fill="#1C2D5A"/>
<path d="M91.7903 134.47H92.9528V131.01L93.8385 134.47H94.8626L95.7483 131.01V134.47H96.9108V129.93H95.0564L94.3644 132.698L93.6448 129.93H91.7903V134.47Z" fill="#1C2D5A"/>
<path d="M97.7964 134.47H101.644V133.446H99.208V132.532H101.422V131.619H99.208V130.899H101.588V129.93H97.7964V134.47Z" fill="#1C2D5A"/>
<path d="M104.19 130.954C104.55 130.954 104.827 131.037 104.965 131.231C105.131 131.397 105.214 131.729 105.214 132.227C105.214 132.587 105.186 132.864 105.103 133.03C105.02 133.196 104.937 133.307 104.799 133.362C104.66 133.418 104.467 133.473 104.162 133.473H103.83V130.982H104.19V130.954ZM102.419 134.469H104.522C104.771 134.469 105.048 134.442 105.352 134.359C105.574 134.303 105.795 134.165 105.989 133.999C106.183 133.805 106.349 133.584 106.46 133.335C106.57 133.058 106.626 132.698 106.626 132.2C106.626 131.895 106.598 131.591 106.515 131.314C106.432 131.037 106.321 130.788 106.155 130.594C105.989 130.373 105.768 130.235 105.519 130.124C105.269 130.013 104.937 129.958 104.522 129.958H102.419V134.469Z" fill="#1C2D5A"/>
<path d="M110.915 132.56H111.635C111.884 132.56 112.05 132.588 112.16 132.671C112.271 132.754 112.299 132.864 112.299 133.003C112.299 133.141 112.243 133.252 112.16 133.363C112.05 133.446 111.884 133.501 111.635 133.501H110.915V132.56ZM110.915 130.844H111.524C111.745 130.844 111.884 130.871 111.967 130.955C112.05 131.038 112.105 131.121 112.105 131.259C112.105 131.397 112.05 131.508 111.967 131.591C111.884 131.674 111.718 131.702 111.496 131.702H110.887V130.844H110.915ZM109.476 134.47H111.911C112.022 134.47 112.216 134.442 112.548 134.414C112.797 134.387 112.963 134.331 113.074 134.276C113.268 134.165 113.406 134.027 113.517 133.833C113.627 133.639 113.683 133.446 113.683 133.196C113.683 132.92 113.6 132.671 113.461 132.477C113.295 132.283 113.074 132.145 112.742 132.062C112.963 131.979 113.129 131.896 113.24 131.757C113.406 131.563 113.489 131.342 113.489 131.065C113.489 130.733 113.378 130.484 113.129 130.263C112.88 130.041 112.548 129.93 112.105 129.93H109.476V134.47Z" fill="#1C2D5A"/>
<path d="M115.759 132.56V134.47H117.171V132.56L118.942 129.93H117.365L116.451 131.453L115.538 129.93H113.96L115.759 132.56Z" fill="#1C2D5A"/>
<path d="M121.184 131.038H122.623V134.47H124.035V131.038H125.474V129.93H121.184V131.038Z" fill="#1C2D5A"/>
<path d="M127.577 129.93H126.166V134.497H127.577V129.93Z" fill="#1C2D5A"/>
<path d="M128.574 134.47H132.2V133.363H129.986V129.93H128.574V134.47Z" fill="#1C2D5A"/>
</svg>
