<svg width="53" height="53" viewBox="0 0 53 53" fill="none" xmlns="http://www.w3.org/2000/svg">
<path d="M13.25 48.5833C11.4929 48.5833 9.80785 47.8853 8.56542 46.6429C7.32299 45.4005 6.625 43.7154 6.625 41.9583V11.0416C6.625 9.28457 7.32299 7.59947 8.56542 6.35704C9.80785 5.11462 11.4929 4.41663 13.25 4.41663H31.2965C33.0526 4.41759 34.7366 5.11578 35.9782 6.35775L44.4361 14.8113C45.6778 16.0538 46.3752 17.7385 46.375 19.4951V41.9583C46.375 43.7154 45.677 45.4005 44.4346 46.6429C43.1922 47.8853 41.5071 48.5833 39.75 48.5833H13.25ZM11.0417 41.9583C11.0417 42.544 11.2743 43.1057 11.6885 43.5198C12.1026 43.934 12.6643 44.1666 13.25 44.1666H39.75C40.3357 44.1666 40.8974 43.934 41.3115 43.5198C41.7257 43.1057 41.9583 42.544 41.9583 41.9583V22.0833H35.3333C33.5763 22.0833 31.8912 21.3853 30.6487 20.1429C29.4063 18.9004 28.7083 17.2154 28.7083 15.4583V8.83329H13.25C12.6643 8.83329 12.1026 9.06596 11.6885 9.4801C11.2743 9.89424 11.0417 10.4559 11.0417 11.0416V41.9583ZM35.3333 17.6666H41.0441L33.125 9.74754V15.4583C33.125 16.044 33.3577 16.6057 33.7718 17.0198C34.1859 17.434 34.7476 17.6666 35.3333 17.6666ZM35.3333 28.7083C35.3333 28.1226 35.1007 27.5609 34.6865 27.1468C34.2724 26.7326 33.7107 26.5 33.125 26.5C32.5393 26.5 31.9776 26.7326 31.5635 27.1468C31.1493 27.5609 30.9167 28.1226 30.9167 28.7083V37.5416C30.9167 38.1273 31.1493 38.689 31.5635 39.1032C31.9776 39.5173 32.5393 39.75 33.125 39.75C33.7107 39.75 34.2724 39.5173 34.6865 39.1032C35.1007 38.689 35.3333 38.1273 35.3333 37.5416V28.7083ZM28.7083 33.125C28.7083 32.5393 28.4757 31.9776 28.0615 31.5634C27.6474 31.1493 27.0857 30.9166 26.5 30.9166C25.9143 30.9166 25.3526 31.1493 24.9385 31.5634C24.5243 31.9776 24.2917 32.5393 24.2917 33.125V37.5416C24.2917 38.1273 24.5243 38.689 24.9385 39.1032C25.3526 39.5173 25.9143 39.75 26.5 39.75C27.0857 39.75 27.6474 39.5173 28.0615 39.1032C28.4757 38.689 28.7083 38.1273 28.7083 37.5416V33.125ZM19.875 35.3333C19.2893 35.3333 18.7276 35.566 18.3135 35.9801C17.8993 36.3942 17.6667 36.9559 17.6667 37.5416C17.6667 38.1273 17.8993 38.689 18.3135 39.1032C18.7276 39.5173 19.2893 39.75 19.875 39.75H19.8971C20.4828 39.75 21.0445 39.5173 21.4586 39.1032C21.8728 38.689 22.1054 38.1273 22.1054 37.5416C22.1054 36.9559 21.8728 36.3942 21.4586 35.9801C21.0445 35.566 20.4828 35.3333 19.8971 35.3333H19.875Z" fill="white"/>
</svg>
